<svg xmlns="http://www.w3.org/2000/svg" width="96" height="96" viewBox="0 0 96 96">
    <g fill="none" fill-rule="evenodd">
        <rect width="96" height="96" fill="#FFF" fill-opacity=".01" rx="8"/>
        <path fill="#EFAC05" d="M47.577 64.835c-8.811 0-15.977-7.275-15.977-16.218 0-8.942 7.166-16.217 15.977-16.217 8.808 0 15.976 7.275 15.976 16.217 0 8.943-7.168 16.218-15.976 16.218"/>
        <path fill="#C7E2F1" d="M62.762 48.617c0 8.514-6.799 15.416-15.186 15.416S32.39 57.13 32.39 48.617c0-8.512 6.8-15.413 15.186-15.413 8.387 0 15.186 6.901 15.186 15.413"/>
        <path fill="#FEB602" d="M58.948 48.617c0 6.375-5.092 11.542-11.372 11.542s-11.371-5.167-11.371-11.542c0-6.373 5.092-11.541 11.37-11.541 6.281 0 11.373 5.168 11.373 11.541"/>
        <path fill="#EFAC05" d="M48.766 35.117c0 .665-.533 1.206-1.19 1.206-.656 0-1.19-.54-1.19-1.206 0-.668.534-1.209 1.19-1.209a1.2 1.2 0 0 1 1.19 1.209M40.72 36.984a1.22 1.22 0 0 1-.263 1.688 1.18 1.18 0 0 1-1.663-.268 1.222 1.222 0 0 1 .264-1.688 1.179 1.179 0 0 1 1.662.268M35.293 43.297c.626.205.967.887.765 1.522-.204.634-.876.98-1.5.775a1.212 1.212 0 0 1-.764-1.522c.202-.634.874-.98 1.499-.775M34.558 51.64a1.188 1.188 0 0 1 1.5.777 1.211 1.211 0 0 1-.765 1.521 1.184 1.184 0 0 1-1.499-.775 1.213 1.213 0 0 1 .764-1.523M38.794 58.83a1.18 1.18 0 0 1 1.663-.266c.531.392.65 1.147.263 1.687-.386.54-1.13.659-1.662.268a1.222 1.222 0 0 1-.264-1.688M46.387 62.12c0-.668.533-1.208 1.189-1.208a1.2 1.2 0 0 1 1.19 1.208 1.2 1.2 0 0 1-1.19 1.208c-.656 0-1.19-.54-1.19-1.208M54.431 60.25a1.22 1.22 0 0 1 .264-1.686 1.177 1.177 0 0 1 1.662.267 1.22 1.22 0 0 1-.263 1.688 1.18 1.18 0 0 1-1.663-.268M59.86 53.938a1.211 1.211 0 0 1-.765-1.521 1.188 1.188 0 0 1 1.5-.777c.624.207.967.89.764 1.523a1.184 1.184 0 0 1-1.499.775M60.595 45.594a1.188 1.188 0 0 1-1.5-.775 1.212 1.212 0 0 1 .765-1.522 1.186 1.186 0 0 1 1.499.775 1.212 1.212 0 0 1-.764 1.522M56.357 38.404c-.386.54-1.13.66-1.662.268a1.222 1.222 0 0 1-.264-1.688 1.18 1.18 0 0 1 1.663-.268 1.22 1.22 0 0 1 .263 1.688"/>
        <path fill="#FFF" fill-rule="nonzero" d="M41.109 53.261h1.62v-3.928h.824c.93.029 1.341.426 1.607 1.674l.053.257c.22 1.046.422 1.734.545 1.997h1.674c-.09-.19-.197-.579-.32-1.074l-.384-1.592c-.213-.921-.598-1.588-1.249-1.843v-.042a2.495 2.495 0 0 0 1.634-2.382c0-.823-.28-1.49-.77-1.929-.612-.539-1.475-.765-2.764-.765-.943 0-1.846.085-2.47.212v9.415zm1.58-7.935c.184-.044.565-.088 1.161-.088 1.222 0 2 .513 2 1.583 0 .982-.778 1.626-2.046 1.626H42.69v-3.12zm6.324 7.935h1.706v-3.616c.238.057.518.071.84.071 1.217 0 2.28-.34 2.98-1.035.517-.51.797-1.247.797-2.155 0-.893-.364-1.645-.924-2.113-.601-.51-1.51-.78-2.77-.78-1.147 0-2 .086-2.63.2v9.428zm1.58-7.942c.198-.04.563-.08 1.08-.08 1.292 0 2.082.539 2.082 1.536 0 1.052-.851 1.672-2.25 1.672-.38 0-.668-.013-.912-.08v-3.048z"/>
        <g fill="#1A5289" fill-rule="nonzero">
            <path d="M46.32 18c-9.136 0-17.765 4.249-23.52 11.103V27.12a1.799 1.799 0 1 0-3.6 0v7.647c0 1.717 2.219 1.963 1.8 1.8.037 0 .074-.002.11-.004l7.2-.446a1.8 1.8 0 0 0 1.687-1.908 1.814 1.814 0 0 0-1.908-1.686l-3.647.227C29.494 25.878 37.668 21.6 46.32 21.6c14.889 0 27.12 12.231 27.12 27.12a1.799 1.799 0 1 0 3.6 0C77.04 31.847 63.193 18 46.32 18zM73.93 60.877l-7.2.446a1.8 1.8 0 0 0-1.687 1.908 1.82 1.82 0 0 0 1.908 1.686l3.647-.227c-5.052 6.872-13.226 11.15-21.878 11.15-14.889 0-27.12-12.231-27.12-27.12a1.799 1.799 0 1 0-3.6 0c0 16.873 13.847 30.72 30.72 30.72 9.136 0 17.765-4.249 23.52-11.103v1.983a1.799 1.799 0 1 0 3.6 0v-7.647c0-.988-.948-1.85-1.91-1.796z"/>
        </g>
    </g>
</svg>
