<svg xmlns="http://www.w3.org/2000/svg" width="96" height="96" viewBox="0 0 96 96">
    <g fill="none" fill-rule="evenodd">
        <rect width="96" height="96" fill="#FFF" fill-opacity=".01" rx="8"/>
        <g fill-rule="nonzero">
            <path fill="#8FB1D3" d="M72.534 70.11H22.265a2.52 2.52 0 0 1-2.513-2.513V39.95a2.52 2.52 0 0 1 2.513-2.513h50.27a2.52 2.52 0 0 1 2.513 2.513v27.648a2.521 2.521 0 0 1-2.514 2.514z"/>
            <circle cx="2.553" cy="2.543" r="2.513" fill="#0E9347" transform="translate(59.928 51.23)"/>
        </g>
        <path fill="#B5D4F2" d="M58.308 37.436h14.148a2.592 2.592 0 0 1 2.592 2.592v27.54a2.592 2.592 0 0 1-2.592 2.592H58.308V37.436z"/>
        <g fill-rule="nonzero">
            <path fill="#E4AF18" d="M73.341 70.484c-7.444 0-13.478-1.536-13.478-3.11V71c.004 1.574 6.036 3.113 13.478 3.113S86.815 72.574 86.82 71v-3.627c0 1.575-6.035 3.11-13.479 3.11"/>
            <path fill="#F4BF1A" d="M71.786 64.781c-7.444 0-13.478-1.535-13.478-3.11v3.627c.004 1.574 6.036 3.112 13.478 3.112s13.474-1.538 13.478-3.112V61.67c0 1.575-6.034 3.11-13.478 3.11"/>
            <path fill="#E4AF18" d="M74.896 59.079c-7.443 0-13.478-1.536-13.478-3.11v3.626c.004 1.574 6.037 3.113 13.478 3.113 7.442 0 13.475-1.539 13.479-3.113V55.97c0 1.574-6.035 3.11-13.479 3.11"/>
            <path fill="#FFD949" d="M85.264 49.815c0 1.575-6.034 3.043-13.478 3.043s-13.478-1.468-13.478-3.043c0-1.575 6.034-2.66 13.478-2.66s13.478 1.085 13.478 2.66"/>
            <path fill="#F4BF1A" d="M71.786 52.858c-7.444 0-13.478-1.535-13.478-3.11v3.627c.004 1.573 6.036 3.112 13.478 3.112s13.474-1.539 13.478-3.112v-3.627c0 1.575-6.034 3.11-13.478 3.11"/>
            <path fill="#DCA815" d="M60.381 51.341v3.627c.315.116.66.228 1.037.334v-3.626a14.547 14.547 0 0 1-1.037-.335M82.154 51.676v3.626a14.28 14.28 0 0 0 1.037-.334V51.34c-.315.116-.66.228-1.037.335M62.973 52.052v3.627c.332.07.678.135 1.037.196v-3.627c-.36-.062-.705-.127-1.037-.196M79.562 52.248v3.628c.36-.062.705-.128 1.037-.197v-3.627c-.332.069-.678.134-1.037.196M65.565 52.48v3.627c.338.044.683.084 1.037.12V52.6a42.489 42.489 0 0 1-1.037-.12M76.97 52.6v3.628c.354-.037.699-.077 1.037-.12v-3.629c-.338.044-.683.085-1.037.121M68.157 52.733v3.629c.34.023.686.045 1.037.062v-3.63a48.968 48.968 0 0 1-1.037-.06M74.378 52.795v3.629c.35-.017.696-.039 1.037-.062v-3.629c-.34.024-.686.045-1.037.062M71.786 52.858c-.174 0-.346-.001-.518-.003v3.629a57.26 57.26 0 0 0 1.036 0v-3.629a57.26 57.26 0 0 1-.518.003"/>
            <path fill="#C49214" d="M63.492 57.562v3.626c.315.116.66.228 1.036.335v-3.626a14.547 14.547 0 0 1-1.036-.335M85.264 57.897v3.626a14.28 14.28 0 0 0 1.037-.335v-3.626c-.315.116-.66.228-1.037.335M66.084 58.273V61.9c.331.07.677.134 1.036.196V58.47c-.359-.062-.705-.127-1.036-.196M82.672 58.469v3.628c.36-.063.705-.128 1.037-.197v-3.627c-.332.069-.677.134-1.037.196M68.676 58.7v3.628c.337.044.682.084 1.036.12v-3.627a45.213 45.213 0 0 1-1.036-.12M80.08 58.82v3.629c.354-.037.7-.078 1.037-.12V58.7c-.338.043-.683.084-1.037.12M71.268 58.954v3.628c.34.024.685.045 1.036.063v-3.63a48.968 48.968 0 0 1-1.036-.061M77.488 59.016v3.629c.351-.018.697-.039 1.037-.063v-3.628c-.34.024-.686.045-1.037.062M74.896 59.079c-.173 0-.346-.002-.518-.003v3.629a57.26 57.26 0 0 0 1.037 0v-3.63a57.26 57.26 0 0 1-.519.004"/>
            <path fill="#DCA815" d="M60.381 63.265v3.626c.315.116.66.227 1.037.335v-3.627a14.547 14.547 0 0 1-1.037-.334M82.154 63.599v3.627a14.28 14.28 0 0 0 1.037-.335v-3.626c-.315.116-.66.227-1.037.334M62.973 63.975v3.628c.332.068.678.134 1.037.195v-3.627c-.36-.061-.705-.127-1.037-.196M79.562 64.171V67.8c.36-.062.705-.128 1.037-.196v-3.628c-.332.07-.678.135-1.037.196M65.565 64.403v3.628c.338.043.683.084 1.037.12v-3.628a45.213 45.213 0 0 1-1.037-.12M76.97 64.523v3.628c.354-.037.699-.077 1.037-.12v-3.628c-.338.043-.683.084-1.037.12M68.157 64.656v3.629c.34.024.686.045 1.037.062v-3.629a48.968 48.968 0 0 1-1.037-.062M74.378 64.718v3.629c.35-.017.696-.038 1.037-.062v-3.629c-.34.024-.686.045-1.037.062M71.786 64.781c-.174 0-.346-.001-.518-.003v3.63a57.26 57.26 0 0 0 1.036 0v-3.63a57.26 57.26 0 0 1-.518.003"/>
            <path fill="#C49214" d="M61.936 68.967v3.626c.315.116.66.228 1.037.335v-3.627a14.547 14.547 0 0 1-1.037-.334M83.71 69.301v3.627a14.28 14.28 0 0 0 1.036-.335v-3.626c-.315.116-.66.228-1.037.334M64.528 69.678v3.627c.332.069.678.134 1.037.196v-3.627c-.36-.062-.705-.127-1.037-.196M81.117 69.874V73.5c.36-.062.705-.127 1.037-.196v-3.627c-.332.069-.678.134-1.037.196M67.12 70.105v3.628c.338.044.683.084 1.037.12v-3.627a45.213 45.213 0 0 1-1.037-.12M78.525 70.225v3.628c.354-.036.699-.077 1.037-.12v-3.628c-.338.044-.683.084-1.037.12M69.712 70.359v3.628c.34.024.686.045 1.037.062v-3.628a48.968 48.968 0 0 1-1.037-.062M75.933 70.42v3.63c.351-.018.696-.039 1.037-.063V70.36c-.34.024-.686.044-1.037.062M73.341 70.484c-.174 0-.346-.002-.518-.003v3.628a57.26 57.26 0 0 0 1.037 0v-3.628a57.26 57.26 0 0 1-.519.003"/>
            <path fill="#FCC62D" d="M84.856 66.011c-1.472 1.295-6.765 2.4-13.07 2.4-4.93 0-9.24-.676-11.59-1.59-.216.196-.333.404-.333.62 0 1.575 6.034 3.043 13.478 3.043S86.82 69.016 86.82 67.44c0-.543-.718-1.028-1.964-1.43"/>
            <path fill="#FFD949" d="M74.896 62.708c-6.85 0-12.501-1.304-13.36-2.739-2.012.456-3.228 1.063-3.228 1.77 0 1.574 6.034 3.042 13.478 3.042s13.478-1.468 13.478-3.043a.626.626 0 0 0-.039-.204c-2.472.695-6.18 1.174-10.329 1.174"/>
            <path fill="#FCC62D" d="M84.742 54.18c-1.612 1.254-6.8 2.307-12.956 2.307-3.975 0-7.547-.44-10.015-1.089-.228.203-.353.415-.353.638 0 1.575 6.035 3.043 13.478 3.043 7.444 0 13.479-1.468 13.479-3.043 0-.753-1.38-1.393-3.633-1.856"/>
        </g>
        <text fill="#1A5289" font-family="MyriadPro-Semibold, Myriad Pro" font-size="15.12" font-weight="500" transform="translate(19.752 37.436)">
            <tspan x="11.34" y="20.72">Rp</tspan>
        </text>
        <path fill="#CECECF" d="M14.838 22.143a.9.9 0 0 1 .27.27L21.56 32.45a.9.9 0 0 1-.757 1.387l-4.202-.001v23.85a1.35 1.35 0 0 1-1.35 1.35h-1.8a1.35 1.35 0 0 1-1.35-1.35v-23.85H7.9a.9.9 0 0 1-.757-1.386l6.451-10.036a.9.9 0 0 1 1.244-.27z"/>
    </g>
</svg>
