<svg xmlns="http://www.w3.org/2000/svg" xmlns:xlink="http://www.w3.org/1999/xlink" width="400" height="299" viewBox="0 0 400 299">
    <defs>
        <path id="a" d="M.048.37H400v.8H.048z"/>
        <path id="c" d="M.089.174H310.31v106.178H.09z"/>
        <path id="e" d="M38.687 33.751c-10.579-.944-20.054-5.731-27.016-12.956h.003c6.963 7.224 16.435 12.01 27.015 12.953l-.002.003zM2.582 6.601A42.488 42.488 0 0 1 .703.424h.001a42.414 42.414 0 0 0 1.878 6.174V6.6z"/>
    </defs>
    <g fill="none" fill-rule="evenodd">
        <g transform="translate(0 261.6)">
            <mask id="b" fill="#fff">
                <use xlink:href="#a"/>
            </mask>
            <path fill="#E4E4DE" d="M.048.87H400v-.2H.048z" mask="url(#b)"/>
        </g>
        <path fill="#E4E4DE" d="M81.613 275.346h26.497v-.2H81.613zM136.912 269.29h34.843v-.2h-34.843zM41.967 267.918h38.845v-.2H41.967zM198.084 270.624h27.432v-.2h-27.432zM353.97 270.624h5.95v-.2h-5.95zM232.64 270.624h38.852v-.2h-38.853zM261.294 274.002h74.94v-.2h-74.94zM35.132.513a4.37 4.37 0 0 0-4.366 4.366v217.145a4.37 4.37 0 0 0 4.366 4.366h154.48a4.37 4.37 0 0 0 4.365-4.366V4.879A4.37 4.37 0 0 0 189.61.513H35.132m154.48 226.077H35.131a4.571 4.571 0 0 1-4.566-4.566V4.879A4.571 4.571 0 0 1 35.132.313h154.48a4.572 4.572 0 0 1 4.565 4.566v217.145a4.571 4.571 0 0 1-4.566 4.566M208.17.513a4.37 4.37 0 0 0-4.366 4.366v217.145a4.37 4.37 0 0 0 4.366 4.366h154.478a4.372 4.372 0 0 0 4.367-4.366V4.879a4.372 4.372 0 0 0-4.367-4.366H208.17M362.648 226.59H208.17a4.57 4.57 0 0 1-4.566-4.566V4.879A4.571 4.571 0 0 1 208.17.313h154.478a4.572 4.572 0 0 1 4.567 4.566v217.145a4.572 4.572 0 0 1-4.567 4.566"/>
        <path fill="#DDDED8" d="M54.703 262.268h10.708v-48.584H54.703z"/>
        <path fill="#EAEAE5" d="M51.324 262.268h7.437v-48.584h-7.437z"/>
        <path fill="#EAEAE5" d="M51.324 229.085h42.522v-15.401H51.324z"/>
        <path fill="#DDDED8" d="M90.18 262.268h10.709v-33.183H90.18z"/>
        <path fill="#EAEAE5" d="M86.802 262.268h7.044v-33.183h-7.044z"/>
        <path fill="#DDDED8" d="M166.402 262.268h10.708v-33.183h-10.708z"/>
        <path fill="#EAEAE5" d="M163.024 262.268h7.436v-33.183h-7.436z"/>
        <path fill="#DDDED8" d="M130.954 262.268h10.708v-33.183h-10.708z"/>
        <path fill="#EAEAE5" d="M127.574 262.268h7.437v-33.183h-7.437z"/>
        <path fill="#DDDED8" d="M93.846 229.085h83.264v-15.401H93.846zM230.582 141.082H352.45V25.27H230.582z"/>
        <path fill="#F1F0EC" d="M227.88 141.082h123.308V25.27H227.881z"/>
        <path fill="#DDDED8" d="M350.764 23.198H228.948a1.07 1.07 0 0 1-1.067-1.066c0-.586.48-1.067 1.067-1.067h121.816c.586 0 1.066.48 1.066 1.067a1.07 1.07 0 0 1-1.066 1.066M230.582 143.195H352.45v-2.113H230.582z"/>
        <path fill="#F1F0EC" d="M215.532 143.195h117.396v-2.113H215.532z"/>
        <path fill="#FAF9F6" d="M231.663 136.17h115.743V30.182H231.663z"/>
        <path fill="#FFFFFE" d="M307.208 136.169l-8.926-105.987h-16.056l8.925 105.987h16.057M286.608 136.169l-8.926-105.987h-7.45l8.925 105.987h7.451"/>
        <path fill="#DDDED8" d="M231.663 125.08h.48V29.517h-.48z"/>
        <path fill="#F1F0EC" d="M355.286 122.865c-.96 0-1.907-.076-2.836-.225V25.27h-31.857c.13-.736.296-1.43.492-2.072h29.679a1.07 1.07 0 0 0 1.066-1.066 1.07 1.07 0 0 0-1.066-1.067h-28.803c.731-1.331 1.65-2.133 2.661-2.133h27.696c1.64 0 2.968 3.125 2.968 6.98v96.953"/>
        <path fill="#DDDED8" d="M352.45 122.64c-.359-.058-.716-.126-1.068-.204a43.04 43.04 0 0 0 .942-8.982c0-3.388-.393-6.684-1.136-9.845V25.27h-30.595 31.857v97.37"/>
        <path fill="#E9E9E4" d="M351.188 103.609a42.558 42.558 0 0 0-3.782-10.11V30.181h-27.128a23.168 23.168 0 0 1 .315-4.912h30.595v78.339"/>
        <path fill="#DDDED8" d="M350.764 23.198h-29.68a11.38 11.38 0 0 1 .877-2.133h28.803c.586 0 1.066.48 1.066 1.067a1.07 1.07 0 0 1-1.066 1.066"/>
        <path fill="#EDEDE8" d="M347.406 93.498a43.041 43.041 0 0 0-20.848-19.367c-2.728-12.097-5.034-26.477-6.237-43.173-.019-.26-.033-.519-.043-.776h27.128v63.316"/>
        <path fill="#F1F0EC" d="M227.88 58.21a42.94 42.94 0 0 0-3.09-2.414V25.912c0-3.855 1.33-6.98 2.97-6.98h27.694c1.012 0 1.93.802 2.662 2.133h-29.168c-.586 0-1.067.48-1.067 1.067 0 .586.48 1.066 1.067 1.066h30.044c.196.641.362 1.336.492 2.072h-31.603v32.94"/>
        <path fill="#E9E9E4" d="M228.978 122.37a43.271 43.271 0 0 0 2.685-2.692v1.819c-.866.359-1.765.653-2.685.873m2.685-60.496a43.152 43.152 0 0 0-3.782-3.664V25.27h31.603c.266 1.504.385 3.179.315 4.912h-27.656v-.664h-.48v32.356"/>
        <path fill="#DDDED8" d="M258.992 23.198h-30.044a1.07 1.07 0 0 1-1.067-1.066c0-.586.48-1.067 1.067-1.067h29.168c.334.609.63 1.329.876 2.133"/>
        <path fill="#EDEDE8" d="M232.143 121.289v-2.145c6.675-7.558 10.728-17.491 10.728-28.368 0-10.877-4.053-20.81-10.728-28.368V30.182H259.8c-.01.257-.025.516-.043.776-2.93 40.668-12.41 67.594-18.558 81.265a18.04 18.04 0 0 1-9.055 9.066"/>
        <path fill="#DDDED8" d="M231.663 121.497v-1.819c.162-.176.322-.355.48-.534v2.145c-.159.072-.319.14-.48.208m.48-59.089c-.158-.18-.318-.358-.48-.534V29.518h.48v32.89M53.283 141.082h121.868V25.27H53.283z"/>
        <path fill="#F1F0EC" d="M50.582 141.082H173.89V25.27H50.582z"/>
        <path fill="#DDDED8" d="M173.465 23.198H51.649a1.07 1.07 0 0 1-1.067-1.066c0-.586.48-1.067 1.067-1.067h121.816c.587 0 1.067.48 1.067 1.067a1.07 1.07 0 0 1-1.067 1.066M53.283 143.195h121.868v-2.113H53.283z"/>
        <path fill="#F1F0EC" d="M38.233 143.195h117.396v-2.113H38.233z"/>
        <path fill="#FAF9F6" d="M54.364 136.17h115.743V30.182H54.364z"/>
        <path fill="#FFFFFE" d="M129.91 136.169l-8.926-105.987h-16.058l8.926 105.987h16.058M109.309 136.169l-8.926-105.987h-7.45l8.925 105.987h7.45"/>
        <path fill="#DDDED8" d="M54.364 125.08h.48V29.517h-.48z"/>
        <path fill="#F1F0EC" d="M175.151 55.84V25.27h-31.857c.13-.736.296-1.43.492-2.072h29.679a1.07 1.07 0 0 0 1.067-1.066 1.07 1.07 0 0 0-1.067-1.067h-28.803c.73-1.331 1.65-2.133 2.662-2.133h27.695c1.64 0 2.969 3.125 2.969 6.98v28.071a43.093 43.093 0 0 0-2.837 1.857"/>
        <path fill="#DDDED8" d="M173.89 56.774V25.27h-30.596 31.857v30.57c-.426.304-.847.616-1.261.934"/>
        <path fill="#E9E9E4" d="M170.107 60.05V30.182h-27.129a23.22 23.22 0 0 1 .316-4.912h30.596v31.504a42.983 42.983 0 0 0-3.783 3.276"/>
        <path fill="#DDDED8" d="M173.465 23.198h-29.679c.247-.804.541-1.524.876-2.133h28.803c.587 0 1.067.48 1.067 1.067a1.07 1.07 0 0 1-1.067 1.066"/>
        <path fill="#EDEDE8" d="M169.14 120.532a18.04 18.04 0 0 1-6.202-5.826c.304-.288.602-.592.893-.91a43.05 43.05 0 0 0 5.31 6.736m-9.537-12.908c-6.04-14.71-13.951-40.148-16.582-76.666-.019-.26-.033-.519-.044-.776h27.13V60.05c-8.003 7.788-12.976 18.677-12.976 30.726 0 5.742 1.129 11.22 3.177 16.223-.248.21-.485.416-.705.625"/>
        <path fill="#F1F0EC" d="M47.491 122.865V87.918c.303-.508.615-1.012.933-1.506a.4.4 0 1 0-.673-.433l-.26.408V25.912c0-3.855 1.329-6.98 2.969-6.98h27.695c1.011 0 1.93.802 2.662 2.133H51.649a1.07 1.07 0 0 0-1.067 1.067c0 .586.48 1.066 1.067 1.066h30.044c.196.641.361 1.336.492 2.072H50.582v56.745a.4.4 0 1 0-.82 2.424c.267-.373.541-.747.82-1.117v14.581a42.756 42.756 0 0 0-2.906 15.547v.004c0 3.217.355 6.355 1.027 9.37-.401.027-.805.04-1.212.04"/>
        <path fill="#E9E9E4" d="M50.582 97.903v-14.58c.201-.266.404-.53.61-.79a.4.4 0 0 0-.61-.518V25.27h31.603c.266 1.504.385 3.179.315 4.912H54.844v-.664h-.48V78.45a.397.397 0 0 0-.342-.192.399.399 0 0 0-.29.124 49.97 49.97 0 0 0-1.627 1.79.4.4 0 1 0 .605.524 49.857 49.857 0 0 1 1.602-1.762.42.42 0 0 0 .052-.07v11.582a42.71 42.71 0 0 0-3.782 7.457"/>
        <path fill="#DDDED8" d="M81.693 23.198H51.649a1.07 1.07 0 0 1-1.067-1.066c0-.586.48-1.067 1.067-1.067h29.168c.334.609.63 1.329.876 2.133"/>
        <path fill="#EDEDE8" d="M54.844 89.71V30.182H82.5c-.01.257-.025.516-.043.776-.886 12.292-2.369 23.327-4.179 33.121-.71.177-1.423.37-2.124.578a.4.4 0 0 0 .114.783l.114-.016c.572-.17 1.154-.33 1.735-.48-.52 2.767-1.066 5.43-1.63 7.995-8.918 3.095-16.5 9.052-21.643 16.77m2.649-14.766a.397.397 0 0 0-.262.098 52.245 52.245 0 0 0-1.789 1.629.4.4 0 0 0 .553.579 49.922 49.922 0 0 1 1.761-1.604.4.4 0 0 0-.263-.702m3.766-2.971a.396.396 0 0 0-.232.074c-.653.468-1.304.956-1.933 1.452a.4.4 0 0 0 .496.63c.619-.49 1.26-.971 1.902-1.431a.399.399 0 0 0-.233-.725m4.028-2.602a.4.4 0 0 0-.2.055c-.694.403-1.388.828-2.06 1.262a.4.4 0 1 0 .433.672 50.002 50.002 0 0 1 2.029-1.242.4.4 0 0 0-.202-.747m4.254-2.205a.401.401 0 0 0-.167.037 49.41 49.41 0 0 0-2.17 1.06.4.4 0 0 0 .185.755l.184-.045a49.7 49.7 0 0 1 2.136-1.044.4.4 0 0 0-.168-.763m4.441-1.79a.397.397 0 0 0-.13.023 50.08 50.08 0 0 0-2.26.848.4.4 0 0 0 .15.77l.148-.028c.732-.294 1.48-.575 2.224-.835a.4.4 0 0 0-.132-.778"/>
        <path fill="#DDDED8" d="M54.364 90.446V78.865a.401.401 0 0 0 0-.415V29.518h.48V89.71c-.162.244-.322.49-.48.736M214.956 262.27h29.376v-72.32h-29.376z"/>
        <path fill="#EAEAE5" d="M220.535 262.27h-5.579v-12.241h11.43l-5.85 12.24"/>
        <path fill="#DDDED8" d="M324.746 262.27h29.376v-72.32h-29.376z"/>
        <path fill="#D4D5CF" d="M326.569 189.951h30.708v-4.133h-30.708z"/>
        <path fill="#EAEAE5" d="M214.956 254.758h114.66V189.95h-114.66z"/>
        <path fill="#F1F0EC" d="M211.8 189.951h119.86v-4.133H211.8z"/>
        <path fill="#FAF9F6" d="M219.284 239.455h51.129v-20.457h-51.129zM274.158 239.455h51.128v-20.457h-51.128z"/>
        <path fill="#EAEAE5" d="M294.665 222.422h10.115c4.394 0 8.594-1.393 11.616-3.854h-33.347c3.021 2.46 7.222 3.854 11.616 3.854M239.274 222.422h10.116c4.393 0 8.593-1.393 11.616-3.854h-33.348c3.022 2.46 7.222 3.854 11.616 3.854"/>
        <path fill="#FAF9F6" d="M219.284 214.993h51.129v-20.458h-51.129zM274.158 214.993h51.128v-20.458h-51.128z"/>
        <path fill="#EAEAE5" d="M294.665 197.96h10.115c4.394 0 8.594-1.394 11.616-3.854h-33.347c3.021 2.46 7.222 3.853 11.616 3.853M239.274 197.96h10.116c4.393 0 8.593-1.394 11.616-3.854h-33.348c3.022 2.46 7.222 3.853 11.616 3.853M324.035 262.27h5.58v-12.241h-11.43l5.85 12.24"/>
        <path fill="#D4D5CF" d="M128.98 195.703c2.152.398 4.725-.846 5.042-3.672.525-4.675 5.433-2.461 8.028-9.139 3.663-9.426-7.567-6.354-.663-13.068 5.759-5.6-11.217-15.077-14.53-6.697-.863-.57-4.544-.68-7.304 6.361-2.796 7.13.568 10.764-2.875 11.336-2.515.418-3.83 3.34-2.796 6.534 1.408 4.35-2.6 4.33-1.67 7.328.915 2.959 2.986.586 5.27 3.96 2.043 3.016 6.716 1.087 7.6-1.483.826-2.398 1.73-1.86 3.897-1.46"/>
        <path fill="#E4E4DE" d="M97.72 194.702c-3.005.028-6.229-2.102-6.055-5.727.287-5.998-6.843-4.29-8.935-13.26-2.954-12.666 7.024-4.347 3.692-16.299-2.424-8.695 21.739-16.814 21.137-5.24 1.295-.528 6.31.142 8.55 9.606 2.268 9.585-3.071 13.42 1.476 14.896 3.322 1.076 4.48 5.043 2.395 8.835-2.84 5.164 2.602 6.017.7 9.588-1.874 3.52-4.174.08-7.994 3.825-3.416 3.348-9.341-.105-9.992-3.532-.608-3.199-1.95-2.72-4.974-2.692"/>
        <g transform="translate(44.8 192)">
            <mask id="d" fill="#fff">
                <use xlink:href="#c"/>
            </mask>
            <path fill="#EAEAE5" d="M100.716.174S99.928 21.686 69.7 21.686C39.473 21.686 38.684.174 38.684.174h62.032" mask="url(#d)"/>
            <path fill="#F1F0EC" d="M310.311 97.34c0 5.004-69.445 9.06-155.111 9.06S.089 102.344.089 97.34c0-5.002 69.445-9.058 155.111-9.058s155.111 4.056 155.111 9.059" mask="url(#d)"/>
        </g>
        <path fill="#3769A4" d="M133.414 113.45c0 23.676-19.192 42.87-42.868 42.87-23.676 0-42.87-19.194-42.87-42.87s19.194-42.87 42.87-42.87 42.868 19.194 42.868 42.87"/>
        <g transform="translate(48 122.4)">
            <mask id="f" fill="#fff">
                <use xlink:href="#e"/>
            </mask>
            <path fill="#FCFBF9" d="M.703 33.751H38.69V.424H.703z" mask="url(#f)"/>
        </g>
        <path fill="#F7F6F3" d="M57.768 141.082h-.003A42.877 42.877 0 0 1 50.582 129v-.003a42.836 42.836 0 0 0 7.186 12.084M59.674 143.195h-.003a43.388 43.388 0 0 1-1.906-2.113h.003c.613.726 1.247 1.43 1.906 2.113"/>
        <path fill="#FCFBF9" d="M107.51 152.834v-.002a42.746 42.746 0 0 0 4.972-2.542v.003c-1.593.95-3.254 1.8-4.972 2.541"/>
        <path fill="#F8F7F4" d="M48.703 122.824a43.049 43.049 0 0 1 .001 0"/>
        <path fill="#F1F0EC" d="M90.546 156.322c-1.301 0-2.588-.057-3.859-.17l.002-.004c1.27.114 2.557.171 3.857.171a42.73 42.73 0 0 0 16.964-3.487v.002a42.716 42.716 0 0 1-16.964 3.488"/>
        <path fill="#ACC6DD" d="M90.546 156.32c-1.3 0-2.588-.058-3.857-.172-10.58-.942-20.052-5.729-27.015-12.953a42.978 42.978 0 0 1-9.092-14.197 42.414 42.414 0 0 1-1.878-6.174 43.029 43.029 0 0 1-1.028-9.374c0-23.673 19.194-42.866 42.87-42.866 11.48 0 21.907 4.513 29.602 11.862a2.633 2.633 0 0 0-.374-.024c-.859 0-1.723.345-1.723.345a2.57 2.57 0 0 0-.686.574 84.519 84.519 0 0 0-7.841 1.137c-5.51.806-11.014 20.023-11.014 20.023l1.441.794c-.996 2.855-1.682 5.61-1.711 7.835-.05 3.722 6.211 17.07 11.984 21.334.81 1.234 2.16 1.802 3.298 2.06-.16 2.128-.544 7.222-1.04 13.766a42.746 42.746 0 0 1-4.972 2.542 42.73 42.73 0 0 1-16.964 3.487M112.64 131c-2.391-4.366-4.388-12.972-5.72-16.906-.244-.72.154-2.381.888-4.47l2.638 1.455s.579-1.117 1.427-2.862l.003.005c.32-.658.68-1.408 1.06-2.224.868 10.401.676 19.48.615 24.93l-.911.072"/>
        <path fill="#3769A4" d="M92.874 63.437h-.018a50.307 50.307 0 0 0-2.31-.053c-.221 0-.436-.18-.436-.4 0-.22.144-.4.364-.4v.4l.07-.4c.782 0 1.572.018 2.348.054a.4.4 0 0 1-.018.799m-7.194.18a.4.4 0 0 1-.038-.799 51.312 51.312 0 0 1 2.413-.174.4.4 0 1 1 .039.8 50.87 50.87 0 0 0-2.376.17l-.038.003m11.973.265l-.056-.004a50.963 50.963 0 0 0-2.366-.276.4.4 0 0 1 .075-.797c.8.074 1.608.17 2.403.281a.4.4 0 1 1-.056.796m-16.723.42a.4.4 0 0 1-.076-.792c.788-.152 1.59-.288 2.386-.403a.4.4 0 1 1 .114.791 51.33 51.33 0 0 0-2.348.397l-.076.007m21.437.48l-.094-.01a49.158 49.158 0 0 0-2.327-.503.4.4 0 0 1 .15-.786c.788.15 1.584.322 2.365.51a.4.4 0 0 1-.094.789m-26.099.658a.4.4 0 0 1-.114-.783c.77-.228 1.556-.44 2.337-.63a.4.4 0 1 1 .19.777 49.44 49.44 0 0 0-2.3.62l-.113.016m30.711.69l-.13-.021a50.021 50.021 0 0 0-2.275-.725.4.4 0 1 1 .224-.768c.772.226 1.55.474 2.312.737a.4.4 0 0 1-.13.777m-35.238.887a.4.4 0 0 1-.15-.771 50.08 50.08 0 0 1 2.26-.848.4.4 0 0 1 .262.755c-.744.26-1.492.54-2.224.835l-.148.029m39.703.9l-.167-.036a50.478 50.478 0 0 0-2.193-.94.4.4 0 1 1 .297-.742c.747.299 1.497.62 2.23.955a.4.4 0 0 1-.167.763m-44.056 1.1a.4.4 0 0 1-.184-.755 49.41 49.41 0 0 1 2.17-1.06.4.4 0 1 1 .334.726 49.7 49.7 0 0 0-2.136 1.044l-.184.045m48.327 1.104l-.2-.054a50.4 50.4 0 0 0-2.092-1.144.4.4 0 1 1 .366-.71c.716.369 1.43.759 2.127 1.161a.4.4 0 0 1-.201.747m-52.473 1.302a.4.4 0 0 1-.217-.736c.673-.434 1.367-.859 2.06-1.262a.4.4 0 0 1 .403.692c-.683.396-1.366.814-2.029 1.242a.4.4 0 0 1-.217.064m56.514 1.296a.398.398 0 0 1-.232-.074 50.214 50.214 0 0 0-1.974-1.336.4.4 0 0 1 .433-.673c.675.434 1.35.891 2.005 1.358a.4.4 0 0 1-.232.725m-60.415 1.494a.4.4 0 0 1-.248-.715c.63-.496 1.28-.984 1.933-1.452a.4.4 0 1 1 .465.65c-.642.46-1.283.942-1.902 1.431a.4.4 0 0 1-.248.086m64.19 1.474a.398.398 0 0 1-.262-.097 50.488 50.488 0 0 0-1.837-1.517.4.4 0 1 1 .494-.629c.631.497 1.26 1.014 1.867 1.54a.4.4 0 0 1-.262.703M55.719 77.36a.4.4 0 0 1-.277-.69 52.245 52.245 0 0 1 1.79-1.628.4.4 0 1 1 .524.604 49.922 49.922 0 0 0-1.76 1.604.4.4 0 0 1-.277.11m71.29 1.637a.397.397 0 0 1-.288-.123 49.912 49.912 0 0 0-1.687-1.683.4.4 0 1 1 .552-.579 51.489 51.489 0 0 1 1.713 1.709.4.4 0 0 1-.29.676m-74.602 1.838a.4.4 0 0 1-.302-.662 49.97 49.97 0 0 1 1.628-1.79.4.4 0 1 1 .579.552 49.857 49.857 0 0 0-1.602 1.762.4.4 0 0 1-.303.138m77.752 1.783a.4.4 0 0 1-.314-.152c-.49-.62-1.001-1.237-1.52-1.833a.4.4 0 0 1 .604-.525 50.5 50.5 0 0 1 1.544 1.862.4.4 0 0 1-.314.648m-80.723 1.99a.4.4 0 0 1-.326-.632c.468-.654.956-1.306 1.453-1.937a.4.4 0 1 1 .628.495c-.489.621-.97 1.263-1.43 1.906a.398.398 0 0 1-.325.168m83.516 1.909a.4.4 0 0 1-.337-.182 49.756 49.756 0 0 0-1.339-1.968.4.4 0 1 1 .65-.465c.468.652.925 1.324 1.361 1.997a.401.401 0 0 1-.335.618m-86.118 2.13l-.2-.054a.4.4 0 0 1-.145-.546c.402-.696.827-1.392 1.262-2.067a.4.4 0 1 1 .673.433c-.428.665-.846 1.35-1.243 2.034a.4.4 0 0 1-.347.2m88.527 2.014a.4.4 0 0 1-.355-.216c-.364-.7-.75-1.4-1.147-2.083a.401.401 0 0 1 .145-.547.401.401 0 0 1 .547.144c.403.695.795 1.407 1.165 2.117a.401.401 0 0 1-.171.54l-.184.045m-90.733 2.256l-.166-.036a.4.4 0 0 1-.198-.53c.334-.732.692-1.464 1.06-2.18a.4.4 0 0 1 .712.368 49.993 49.993 0 0 0-1.045 2.144.399.399 0 0 1-.363.234m92.737 2.095a.4.4 0 0 1-.371-.25 51.06 51.06 0 0 0-.943-2.182.4.4 0 1 1 .727-.334c.335.727.657 1.473.957 2.216a.4.4 0 0 1-.22.52l-.15.03M42.838 97.38l-.13-.022a.4.4 0 0 1-.248-.51c.263-.76.549-1.524.848-2.271a.401.401 0 0 1 .743.298 49.325 49.325 0 0 0-.835 2.235.4.4 0 0 1-.378.27m96.106 2.157a.401.401 0 0 1-.383-.287c-.225-.758-.47-1.52-.731-2.266a.4.4 0 0 1 .755-.264c.265.758.515 1.533.743 2.303a.4.4 0 0 1-.27.497l-.114.017m-97.458 2.454l-.094-.011a.4.4 0 0 1-.295-.482c.189-.781.399-1.568.625-2.338a.4.4 0 0 1 .768.225 50.474 50.474 0 0 0-.616 2.3.4.4 0 0 1-.388.306m98.599 2.207a.4.4 0 0 1-.392-.324 50.184 50.184 0 0 0-.51-2.325.4.4 0 1 1 .776-.19c.191.78.366 1.575.519 2.363a.4.4 0 0 1-.316.47l-.077.006m-99.502 2.507l-.057-.004a.4.4 0 0 1-.339-.452 50.81 50.81 0 0 1 .398-2.387.4.4 0 0 1 .786.15c-.149.776-.28 1.566-.392 2.35a.4.4 0 0 1-.396.343m100.191 2.242a.4.4 0 0 1-.397-.36 49.619 49.619 0 0 0-.286-2.365.4.4 0 1 1 .791-.115c.116.794.214 1.603.292 2.402a.4.4 0 0 1-.36.437l-.04.001m-100.64 2.536h-.019a.4.4 0 0 1-.38-.418c.036-.803.093-1.615.168-2.414a.4.4 0 0 1 .797.075c-.074.786-.13 1.585-.166 2.376a.4.4 0 0 1-.4.381m100.877 2.259a.4.4 0 0 1-.4-.4 51.32 51.32 0 0 0-.06-2.381.4.4 0 1 1 .799-.04c.039.801.06 1.615.061 2.42.001.22-.208.413-.4.4m-100.874 2.541a.399.399 0 0 1-.4-.38c-.038-.801-.058-1.615-.058-2.42a.4.4 0 0 1 .8 0c0 .792.02 1.593.058 2.382a.4.4 0 0 1-.381.418h-.02m100.66 2.254l-.037-.002a.4.4 0 0 1-.361-.435c.072-.786.127-1.585.163-2.376a.4.4 0 0 1 .8.036 51.717 51.717 0 0 1-.167 2.414.4.4 0 0 1-.398.363M40.592 121.06a.4.4 0 0 1-.396-.343 51.45 51.45 0 0 1-.286-2.402.4.4 0 0 1 .796-.076c.075.787.17 1.583.283 2.364a.4.4 0 0 1-.34.453l-.057.004m99.535 2.228l-.075-.007a.399.399 0 0 1-.318-.467c.147-.776.277-1.567.388-2.35a.4.4 0 1 1 .792.112 50.964 50.964 0 0 1-.395 2.386.4.4 0 0 1-.392.326m-98.626 2.485a.4.4 0 0 1-.388-.306c-.19-.78-.363-1.575-.515-2.364a.4.4 0 0 1 .785-.152c.15.777.32 1.56.507 2.327a.4.4 0 0 1-.294.483l-.095.012m97.505 2.181l-.112-.016a.4.4 0 0 1-.272-.496 48.69 48.69 0 0 0 .61-2.3.4.4 0 0 1 .78.186 51.32 51.32 0 0 1-.622 2.338.399.399 0 0 1-.384.288m-96.148 2.422a.4.4 0 0 1-.378-.268 50.075 50.075 0 0 1-.74-2.304.4.4 0 1 1 .768-.226c.223.757.468 1.52.727 2.267a.4.4 0 0 1-.246.51l-.131.021m94.58 2.127l-.148-.028a.401.401 0 0 1-.223-.52 49.33 49.33 0 0 0 .831-2.237.4.4 0 1 1 .757.26 50.598 50.598 0 0 1-.845 2.274.4.4 0 0 1-.372.251m-92.792 2.322a.399.399 0 0 1-.363-.234 50.133 50.133 0 0 1-.954-2.217.4.4 0 1 1 .742-.299c.294.731.61 1.466.939 2.183.092.2.004.438-.197.53l-.167.037m90.798 2.053l-.182-.044a.4.4 0 0 1-.173-.539c.362-.704.713-1.425 1.04-2.146a.4.4 0 0 1 .729.332c-.334.732-.69 1.465-1.058 2.18a.4.4 0 0 1-.356.217M46.85 139.08a.398.398 0 0 1-.346-.2 50.425 50.425 0 0 1-1.162-2.118.4.4 0 0 1 .71-.368c.363.7.748 1.402 1.144 2.085a.4.4 0 0 1-.146.547l-.2.054m86.193 1.96a.4.4 0 0 1-.336-.616c.427-.666.845-1.35 1.24-2.036a.4.4 0 1 1 .693.4 51.476 51.476 0 0 1-1.26 2.069.398.398 0 0 1-.337.184M49.45 143.11a.4.4 0 0 1-.327-.168 50.456 50.456 0 0 1-1.357-2 .4.4 0 1 1 .672-.434c.428.664.877 1.326 1.337 1.969a.4.4 0 0 1-.325.633m80.811 1.845a.4.4 0 0 1-.314-.647c.488-.622.968-1.264 1.426-1.909a.4.4 0 0 1 .652.464 51.532 51.532 0 0 1-1.45 1.94.4.4 0 0 1-.314.152m-77.843 1.923a.397.397 0 0 1-.302-.138 51.19 51.19 0 0 1-1.541-1.864.4.4 0 0 1 .628-.495c.49.62 1 1.237 1.517 1.834a.4.4 0 0 1-.302.663m74.704 1.71a.4.4 0 0 1-.29-.676 50.58 50.58 0 0 0 1.6-1.765.4.4 0 1 1 .605.523 51.39 51.39 0 0 1-1.626 1.793.396.396 0 0 1-.29.125M55.73 150.35a.396.396 0 0 1-.276-.11 51.49 51.49 0 0 1-1.71-1.711.4.4 0 0 1 .579-.552c.544.572 1.112 1.139 1.684 1.685a.4.4 0 0 1-.277.688m67.925 1.557a.4.4 0 0 1-.263-.701c.596-.52 1.188-1.06 1.759-1.606a.4.4 0 1 1 .553.578c-.58.555-1.18 1.104-1.786 1.63a.394.394 0 0 1-.263.1m-64.3 1.59a.396.396 0 0 1-.247-.086 51.403 51.403 0 0 1-1.865-1.543.4.4 0 1 1 .525-.604 49.936 49.936 0 0 0 1.835 1.519.4.4 0 0 1-.248.714m60.539 1.386a.4.4 0 0 1-.234-.725c.642-.46 1.282-.942 1.901-1.433a.4.4 0 1 1 .497.628c-.63.498-1.28.988-1.931 1.456a.399.399 0 0 1-.233.074m-56.63 1.406a.399.399 0 0 1-.217-.064 52.439 52.439 0 0 1-2.003-1.36.4.4 0 0 1 .465-.651c.643.46 1.307.91 1.972 1.339a.4.4 0 0 1-.217.736m52.606 1.201a.4.4 0 0 1-.202-.746 50.194 50.194 0 0 0 2.027-1.245.4.4 0 0 1 .435.671c-.675.437-1.367.863-2.06 1.266l-.2.054M67.42 158.7l-.184-.045a50.56 50.56 0 0 1-2.124-1.165.4.4 0 0 1 .4-.692c.685.397 1.389.783 2.092 1.147a.4.4 0 0 1-.184.755m44.197 1.004a.4.4 0 0 1-.168-.763 51.11 51.11 0 0 0 2.134-1.047.4.4 0 1 1 .37.71c-.71.369-1.44.727-2.168 1.063l-.168.037m-39.827 1l-.149-.03c-.747-.3-1.496-.621-2.227-.956a.4.4 0 1 1 .334-.728c.719.33 1.457.647 2.191.942a.4.4 0 0 1-.149.772m35.388.796a.4.4 0 0 1-.132-.778c.743-.26 1.49-.541 2.223-.838a.4.4 0 0 1 .3.742c-.744.3-1.504.588-2.259.852l-.132.022m-30.842.78l-.113-.016a50.013 50.013 0 0 1-2.31-.74.4.4 0 1 1 .262-.756c.749.26 1.514.506 2.273.729a.4.4 0 1 1-.112.784m26.24.586a.4.4 0 0 1-.094-.789c.767-.188 1.54-.398 2.298-.623a.4.4 0 1 1 .228.767c-.77.23-1.556.442-2.335.633l-.096.012m-21.576.544l-.076-.007a51.377 51.377 0 0 1-2.365-.514.4.4 0 0 1 .189-.777c.767.186 1.55.356 2.326.505a.4.4 0 0 1-.074.793m16.865.375a.4.4 0 0 1-.057-.796 49.73 49.73 0 0 0 2.348-.4.4.4 0 1 1 .152.786c-.788.154-1.59.29-2.384.406l-.059.004m-12.115.304l-.038-.001a50.916 50.916 0 0 1-2.403-.285.4.4 0 0 1 .114-.792c.783.111 1.578.206 2.365.28a.4.4 0 0 1-.038.798m7.34.163a.4.4 0 0 1-.02-.8c.79-.039 1.589-.098 2.374-.175a.4.4 0 1 1 .078.796c-.798.079-1.61.138-2.413.179h-.02m-2.545.063a50.72 50.72 0 0 1-2.419-.057.4.4 0 1 1 .038-.798c.789.037 1.59.055 2.38.055h.146c.218.006.4.178.401.4a.4.4 0 0 1-.4.4h-.146"/>
        <path fill="#FFFFFE" d="M97 115.528l-5.808-15.64-5.693 15.64H97zm15.67 16.676h-9.258l-3.68-9.574H82.882l-3.479 9.574h-9.028l16.417-42.15h9l16.877 42.15z"/>
        <path fill="#3769A4" d="M242.871 90.776c0 23.676-19.193 42.87-42.87 42.87-23.675 0-42.869-19.194-42.869-42.87s19.194-42.869 42.87-42.869 42.87 19.193 42.87 42.869"/>
        <path fill="#709BC5" d="M200.002 133.646a43.31 43.31 0 0 1-5.825-.393l-.2-.027c-9.225-1.298-17.505-5.53-23.87-11.724a43.05 43.05 0 0 1-6.276-7.706c3.254-3.554 5.61-8.822 5.506-12.312-.591-.265-1.828-.58-2.814-.58-.371 0-.706.044-.958.154-1.36 2.994-3.57 4.52-5.256 5.941a42.733 42.733 0 0 1-3.177-16.223c0-23.676 19.194-42.869 42.87-42.869s42.87 19.193 42.87 42.869c0 10.877-4.054 20.81-10.729 28.368a43.168 43.168 0 0 1-4.262 4.198 42.678 42.678 0 0 1-24.077 10.137l-.2.017c-1.188.1-2.389.15-3.602.15"/>
        <path fill="#3769A4" d="M202.331 40.763h-.018a51.536 51.536 0 0 0-2.311-.053c-.221 0-.436-.179-.436-.4 0-.22.144-.4.365-.4h.07c.781 0 1.572.018 2.349.053a.4.4 0 0 1-.019.8zm-7.194.18a.4.4 0 0 1-.038-.798 51.312 51.312 0 0 1 2.413-.175.4.4 0 1 1 .038.8c-.79.038-1.59.096-2.374.17l-.04.002zm11.973.266l-.056-.004a50.967 50.967 0 0 0-2.366-.278.399.399 0 1 1 .074-.796c.8.075 1.608.169 2.404.282a.4.4 0 0 1-.056.796zm-16.723.42a.4.4 0 0 1-.076-.793c.788-.153 1.59-.288 2.386-.403a.4.4 0 1 1 .114.792c-.782.113-1.573.246-2.348.397l-.076.007zm21.437.479l-.094-.011a49.98 49.98 0 0 0-2.328-.502.401.401 0 0 1 .15-.786c.79.151 1.586.322 2.366.51a.4.4 0 0 1-.094.789zm-26.1.658a.4.4 0 0 1-.113-.784c.771-.228 1.558-.439 2.337-.63a.4.4 0 1 1 .19.778c-.768.187-1.541.396-2.3.62l-.113.016zm30.712.69l-.13-.02c-.75-.26-1.516-.503-2.275-.726a.4.4 0 0 1 .224-.768c.772.226 1.55.474 2.311.737a.4.4 0 0 1-.13.778zm-35.238.886a.4.4 0 0 1-.15-.77c.744-.3 1.504-.586 2.26-.849a.4.4 0 1 1 .263.756c-.744.26-1.492.54-2.223.835l-.15.028zm39.704.902l-.167-.037a51.306 51.306 0 0 0-2.193-.939.4.4 0 1 1 .297-.742c.747.298 1.497.62 2.229.953a.401.401 0 0 1-.166.765zm-44.056 1.1a.4.4 0 0 1-.184-.755c.71-.37 1.441-.727 2.17-1.062a.4.4 0 0 1 .334.727c-.717.33-1.436.68-2.136 1.044l-.184.045zm48.327 1.103l-.2-.053a50.4 50.4 0 0 0-2.092-1.144.399.399 0 1 1 .366-.71c.715.368 1.43.758 2.127 1.16a.4.4 0 0 1-.201.747zM172.7 48.75a.4.4 0 0 1-.217-.737c.674-.435 1.367-.86 2.061-1.263a.4.4 0 0 1 .402.692 50.02 50.02 0 0 0-2.03 1.244.4.4 0 0 1-.216.064zm56.514 1.296a.398.398 0 0 1-.232-.075 50.214 50.214 0 0 0-1.974-1.336.4.4 0 0 1 .433-.673c.676.435 1.35.892 2.005 1.358a.4.4 0 0 1-.232.726zm-60.416 1.492a.4.4 0 0 1-.248-.714c.63-.496 1.281-.985 1.934-1.452a.4.4 0 0 1 .465.651c-.643.46-1.283.941-1.903 1.43a.4.4 0 0 1-.248.085zm64.19 1.476a.398.398 0 0 1-.26-.098 49.65 49.65 0 0 0-1.838-1.516.4.4 0 0 1 .494-.63c.632.497 1.26 1.016 1.867 1.541a.4.4 0 0 1-.262.703zm-67.812 1.67a.4.4 0 0 1-.277-.69 53.085 53.085 0 0 1 1.789-1.628.4.4 0 1 1 .525.604 50.642 50.642 0 0 0-1.761 1.604.4.4 0 0 1-.276.11zm71.29 1.64a.398.398 0 0 1-.288-.125 51.45 51.45 0 0 0-1.687-1.682.4.4 0 1 1 .552-.58 52.27 52.27 0 0 1 1.713 1.71.401.401 0 0 1-.29.676zm-74.602 1.836a.401.401 0 0 1-.302-.662 51.458 51.458 0 0 1 1.628-1.79.4.4 0 1 1 .579.551 49.857 49.857 0 0 0-1.603 1.763.4.4 0 0 1-.302.138zm77.752 1.783a.4.4 0 0 1-.314-.152 51.238 51.238 0 0 0-1.52-1.833.4.4 0 0 1 .604-.524 51.46 51.46 0 0 1 1.544 1.861.4.4 0 0 1-.314.648zm-80.723 1.99a.399.399 0 0 1-.325-.632 51.11 51.11 0 0 1 1.452-1.938.4.4 0 0 1 .629.495c-.49.621-.97 1.263-1.43 1.907a.4.4 0 0 1-.326.168zm83.515 1.91a.399.399 0 0 1-.336-.183 50.353 50.353 0 0 0-1.34-1.967.4.4 0 1 1 .651-.466c.467.653.925 1.325 1.361 1.999a.4.4 0 0 1-.336.616zm-86.117 2.129l-.2-.054a.4.4 0 0 1-.145-.547c.402-.695.827-1.39 1.262-2.066a.4.4 0 1 1 .673.433c-.429.665-.847 1.35-1.243 2.034a.4.4 0 0 1-.347.2zm88.527 2.014a.4.4 0 0 1-.356-.215c-.363-.7-.748-1.4-1.146-2.084a.4.4 0 0 1 .692-.402c.403.694.795 1.406 1.164 2.117a.4.4 0 0 1-.17.54l-.184.044zm-90.733 2.256l-.167-.036a.4.4 0 0 1-.197-.53c.334-.732.692-1.465 1.06-2.18a.4.4 0 0 1 .712.368 49.049 49.049 0 0 0-1.044 2.144.4.4 0 0 1-.364.234zm92.736 2.096a.4.4 0 0 1-.371-.25 50.05 50.05 0 0 0-.942-2.182.4.4 0 1 1 .726-.335c.336.728.657 1.474.958 2.217a.4.4 0 0 1-.222.52l-.15.03zm-94.526 2.368l-.131-.023a.4.4 0 0 1-.247-.509c.263-.76.549-1.524.848-2.27a.4.4 0 1 1 .743.297 49 49 0 0 0-.835 2.236.4.4 0 0 1-.378.269zm96.106 2.157a.4.4 0 0 1-.383-.286c-.225-.758-.47-1.521-.732-2.267a.4.4 0 0 1 .756-.263c.264.758.514 1.532.743 2.303a.401.401 0 0 1-.27.497l-.114.016zm-97.458 2.454l-.094-.011a.4.4 0 0 1-.295-.483c.188-.78.399-1.567.624-2.337a.4.4 0 0 1 .768.224c-.222.759-.43 1.533-.615 2.301a.4.4 0 0 1-.388.306zm98.599 2.208a.4.4 0 0 1-.393-.323 49.197 49.197 0 0 0-.51-2.327.4.4 0 0 1 .777-.19c.19.78.365 1.575.518 2.364a.4.4 0 0 1-.316.469l-.076.007zM150.04 84.03l-.057-.004a.4.4 0 0 1-.339-.452c.113-.795.247-1.598.398-2.386a.4.4 0 1 1 .786.15c-.149.776-.28 1.566-.392 2.35a.4.4 0 0 1-.396.342zm100.191 2.244a.4.4 0 0 1-.397-.361 50.81 50.81 0 0 0-.287-2.364.401.401 0 0 1 .792-.115c.115.794.213 1.602.29 2.402a.4.4 0 0 1-.36.437l-.038.001zm-100.64 2.535l-.019-.001a.4.4 0 0 1-.382-.418c.038-.803.095-1.615.17-2.413a.4.4 0 0 1 .797.075c-.075.786-.13 1.585-.167 2.375a.4.4 0 0 1-.4.382zm100.876 2.259a.4.4 0 0 1-.4-.4 50.224 50.224 0 0 0-.06-2.38.4.4 0 1 1 .799-.04c.039.802.06 1.615.061 2.42.001.22-.21.376-.4.4zm-100.874 2.54a.4.4 0 0 1-.4-.38 52.92 52.92 0 0 1-.058-2.42c0-.22.201-.432.4-.4.221 0 .4.18.4.4.001.791.02 1.593.058 2.382a.4.4 0 0 1-.38.418h-.02zm100.659 2.254l-.037-.001a.4.4 0 0 1-.361-.435c.072-.787.127-1.586.163-2.376a.4.4 0 0 1 .8.036 51.565 51.565 0 0 1-.167 2.413.4.4 0 0 1-.398.363zm-100.203 2.524a.4.4 0 0 1-.396-.344 51.322 51.322 0 0 1-.287-2.401.4.4 0 0 1 .796-.076c.076.787.17 1.582.283 2.364a.4.4 0 0 1-.34.453l-.056.004zm99.534 2.228l-.075-.007a.4.4 0 0 1-.318-.467c.147-.776.277-1.566.388-2.35a.4.4 0 0 1 .792.112 50.969 50.969 0 0 1-.395 2.387.4.4 0 0 1-.392.325zm-98.625 2.484a.4.4 0 0 1-.388-.305c-.19-.78-.364-1.575-.516-2.364a.4.4 0 0 1 .786-.152c.15.777.32 1.559.506 2.326a.4.4 0 0 1-.293.483l-.095.012zm97.504 2.184l-.112-.016a.4.4 0 0 1-.272-.496c.221-.76.427-1.534.612-2.302a.4.4 0 1 1 .777.187c-.187.78-.396 1.567-.621 2.339a.4.4 0 0 1-.384.288zm-96.148 2.42a.4.4 0 0 1-.378-.27 51.74 51.74 0 0 1-.74-2.302.4.4 0 0 1 .769-.227c.223.758.468 1.521.727 2.267a.4.4 0 0 1-.246.51l-.132.022zm94.58 2.128l-.148-.028a.4.4 0 0 1-.223-.52 49.33 49.33 0 0 0 .831-2.237.4.4 0 0 1 .757.26c-.262.761-.546 1.526-.845 2.273a.4.4 0 0 1-.372.252zm-92.79 2.32a.4.4 0 0 1-.365-.233 51.101 51.101 0 0 1-.954-2.218.4.4 0 0 1 .742-.298c.295.731.61 1.465.94 2.182a.4.4 0 0 1-.197.53l-.167.037zm90.796 2.055l-.182-.044a.4.4 0 0 1-.173-.54c.362-.703.713-1.425 1.04-2.145a.4.4 0 1 1 .728.332 50.636 50.636 0 0 1-1.057 2.18.4.4 0 0 1-.356.217zm-88.594 2.2a.4.4 0 0 1-.346-.199 51.341 51.341 0 0 1-1.162-2.119.4.4 0 1 1 .71-.367c.363.7.748 1.402 1.144 2.085a.4.4 0 0 1-.146.546l-.2.055zm86.193 1.963a.4.4 0 0 1-.336-.617c.427-.665.845-1.351 1.24-2.036a.4.4 0 1 1 .693.4 51.476 51.476 0 0 1-1.26 2.069.402.402 0 0 1-.337.184zm-83.594 2.067a.4.4 0 0 1-.326-.167 51.658 51.658 0 0 1-1.357-2 .4.4 0 1 1 .672-.434c.428.664.877 1.326 1.336 1.968a.4.4 0 0 1-.325.633zm80.81 1.847a.4.4 0 0 1-.314-.647c.489-.623.969-1.265 1.427-1.91a.4.4 0 0 1 .652.465 51.532 51.532 0 0 1-1.45 1.939.4.4 0 0 1-.315.153zm-77.841 1.921a.399.399 0 0 1-.303-.137 50.354 50.354 0 0 1-1.54-1.864.4.4 0 1 1 .627-.496c.49.621 1 1.238 1.517 1.836a.4.4 0 0 1-.301.661zm74.702 1.711a.4.4 0 0 1-.29-.675 50.605 50.605 0 0 0 1.6-1.765.4.4 0 0 1 .605.523 51.367 51.367 0 0 1-1.625 1.793.398.398 0 0 1-.29.124zm-71.39 1.763c-.1 0-.2-.037-.276-.111a51.49 51.49 0 0 1-1.712-1.71.4.4 0 0 1 .58-.554c.545.572 1.112 1.14 1.684 1.685a.4.4 0 0 1-.276.69zm67.924 1.557a.4.4 0 0 1-.263-.702 50.542 50.542 0 0 0 1.759-1.606.4.4 0 0 1 .552.578c-.58.556-1.18 1.105-1.785 1.631a.397.397 0 0 1-.263.099zm-64.299 1.59a.393.393 0 0 1-.247-.086 50.842 50.842 0 0 1-1.865-1.543.4.4 0 0 1 .524-.605c.597.519 1.215 1.03 1.836 1.52a.4.4 0 0 1-.248.714zm60.537 1.386a.4.4 0 0 1-.233-.725c.642-.46 1.282-.942 1.901-1.432a.4.4 0 0 1 .496.628c-.629.497-1.278.987-1.93 1.455a.403.403 0 0 1-.234.074zm-56.629 1.406a.395.395 0 0 1-.216-.064 50.332 50.332 0 0 1-2.003-1.36.4.4 0 1 1 .465-.652c.643.46 1.306.91 1.972 1.34a.4.4 0 0 1-.218.736zm52.605 1.202a.4.4 0 0 1-.202-.746 50.194 50.194 0 0 0 2.027-1.246.4.4 0 0 1 .435.672c-.674.436-1.366.862-2.06 1.265l-.2.055zm-48.447 1.208l-.184-.045a50.56 50.56 0 0 1-2.124-1.165.4.4 0 1 1 .401-.692c.684.397 1.388.782 2.09 1.146a.4.4 0 0 1-.183.756zm44.197 1.004a.402.402 0 0 1-.168-.764c.716-.33 1.434-.682 2.134-1.046a.399.399 0 1 1 .369.71c-.711.37-1.44.728-2.168 1.063l-.167.037zm-39.827 1l-.149-.03c-.746-.3-1.496-.622-2.227-.957a.4.4 0 0 1 .334-.727c.719.33 1.457.647 2.192.942a.4.4 0 0 1-.15.772zm35.387.796a.4.4 0 0 1-.132-.777c.744-.26 1.492-.543 2.223-.839a.4.4 0 1 1 .3.742c-.743.3-1.503.587-2.259.852l-.132.022zm-30.841.78l-.113-.016a50.326 50.326 0 0 1-2.31-.74.4.4 0 0 1 .262-.756 49.4 49.4 0 0 0 2.274.728.4.4 0 0 1-.113.784zm26.24.587a.4.4 0 0 1-.095-.788 49.903 49.903 0 0 0 2.299-.623.4.4 0 1 1 .228.766 50.25 50.25 0 0 1-2.336.634l-.095.01zm-21.575.544l-.076-.007a50.342 50.342 0 0 1-2.365-.514.4.4 0 1 1 .189-.778c.767.187 1.55.356 2.327.506a.4.4 0 0 1-.075.793zm16.865.376a.4.4 0 0 1-.057-.796 50.06 50.06 0 0 0 2.347-.4.4.4 0 0 1 .153.785c-.787.153-1.59.29-2.384.406l-.059.005zm-12.115.303l-.038-.002a50.667 50.667 0 0 1-2.402-.284.4.4 0 0 1 .113-.792c.783.112 1.579.206 2.365.28a.4.4 0 0 1-.038.798zm7.34.162a.4.4 0 0 1-.02-.799c.788-.039 1.587-.098 2.374-.175a.4.4 0 0 1 .078.797c-.8.077-1.611.137-2.413.177h-.02zm-2.546.064c-.804 0-1.617-.019-2.419-.056a.4.4 0 1 1 .038-.8c.789.037 1.59.056 2.38.056h.146a.4.4 0 0 1 .001.8h-.146z"/>
        <path fill="#FFFFFE" d="M190.857 91.154v11.27h7.878c3.067 0 5.012-.085 5.836-.258 1.266-.23 2.295-.79 3.091-1.681.796-.892 1.194-2.085 1.194-3.58 0-1.265-.307-2.339-.92-3.22-.614-.882-1.5-1.524-2.66-1.927-1.16-.402-3.676-.604-7.547-.604h-6.872zm0-16.762v9.747h5.577c3.316 0 5.377-.048 6.183-.144 1.456-.173 2.601-.676 3.435-1.51.834-.833 1.251-1.93 1.251-3.291 0-1.304-.359-2.363-1.078-3.177-.719-.815-1.787-1.309-3.206-1.481-.844-.096-3.269-.144-7.274-.144h-4.888zm-8.51-7.015h16.848c3.335 0 5.823.139 7.461.417 1.64.277 3.106.857 4.4 1.739 1.293.881 2.371 2.056 3.234 3.522.862 1.467 1.293 3.11 1.293 4.93a9.815 9.815 0 0 1-1.595 5.435c-1.064 1.649-2.506 2.886-4.327 3.709 2.568.748 4.542 2.023 5.922 3.824 1.381 1.802 2.07 3.92 2.07 6.354 0 1.917-.445 3.781-1.336 5.592-.891 1.812-2.109 3.26-3.651 4.342-1.544 1.083-3.447 1.75-5.708 1.998-1.419.154-4.84.25-10.264.288h-14.348v-42.15z"/>
        <path fill="#3769A4" d="M352.324 113.454c0 23.676-19.193 42.868-42.869 42.868-23.677 0-42.87-19.192-42.87-42.868 0-23.677 19.193-42.87 42.87-42.87 23.676 0 42.869 19.193 42.869 42.87"/>
        <path fill="#ACC6DD" d="M309.455 156.322c-23.677 0-42.87-19.192-42.87-42.868 0-23.677 19.193-42.87 42.87-42.87 23.676 0 42.869 19.193 42.869 42.87 0 3.08-.325 6.085-.942 8.982a42.586 42.586 0 0 1-5.564 13.734 43.109 43.109 0 0 1-5.49 7.025c-7.798 8.093-18.748 13.127-30.873 13.127"/>
        <path fill="#3769A4" d="M311.785 63.44h-.02a50.316 50.316 0 0 0-2.31-.053c-.221 0-.436-.179-.436-.4 0-.22.144-.4.366-.4h.07c.781 0 1.57.018 2.347.054a.4.4 0 0 1-.017.799zm-7.195.18a.4.4 0 0 1-.038-.798 51.39 51.39 0 0 1 2.413-.175.4.4 0 1 1 .039.8 50.87 50.87 0 0 0-2.375.17l-.04.002zm11.973.266l-.057-.004a50.933 50.933 0 0 0-2.364-.278.4.4 0 1 1 .074-.796c.8.074 1.608.17 2.402.282a.4.4 0 0 1-.055.796zm-16.723.42a.4.4 0 0 1-.075-.793 50.63 50.63 0 0 1 2.385-.403.4.4 0 1 1 .115.792 51.33 51.33 0 0 0-2.348.396l-.077.008zm21.437.48l-.094-.012a50.204 50.204 0 0 0-2.328-.502.4.4 0 0 1 .15-.786c.789.15 1.585.322 2.365.51a.4.4 0 0 1-.093.79zm-26.1.657a.4.4 0 0 1-.112-.784c.77-.227 1.557-.439 2.336-.63a.4.4 0 1 1 .19.778c-.768.187-1.541.395-2.3.62l-.113.016zm30.713.69l-.132-.021c-.75-.26-1.514-.502-2.274-.725a.4.4 0 0 1 .225-.768c.772.226 1.55.474 2.311.737a.4.4 0 0 1-.13.778zm-35.239.887a.4.4 0 0 1-.15-.771c.743-.3 1.504-.585 2.26-.849a.4.4 0 0 1 .264.756c-.745.26-1.494.54-2.224.834l-.15.03zm39.703.9l-.166-.036a50.872 50.872 0 0 0-2.193-.94.4.4 0 1 1 .297-.742c.747.299 1.497.62 2.229.955a.4.4 0 0 1-.167.764zm-44.055 1.1a.4.4 0 0 1-.185-.755 51.313 51.313 0 0 1 2.17-1.061.4.4 0 0 1 .334.727c-.716.33-1.435.681-2.136 1.044l-.183.045zm48.327 1.104l-.2-.054c-.685-.396-1.39-.78-2.092-1.144a.4.4 0 1 1 .366-.71c.715.369 1.43.76 2.126 1.162a.4.4 0 0 1-.2.746zm-52.472 1.302a.401.401 0 0 1-.218-.736 50.14 50.14 0 0 1 2.06-1.262.399.399 0 1 1 .402.691c-.683.397-1.365.815-2.028 1.243a.4.4 0 0 1-.216.064zm56.512 1.296a.396.396 0 0 1-.23-.074c-.646-.46-1.31-.909-1.974-1.336a.4.4 0 1 1 .432-.673c.676.435 1.35.891 2.005 1.358a.4.4 0 0 1-.233.725zm-60.414 1.494a.4.4 0 0 1-.248-.714c.63-.497 1.28-.986 1.933-1.452a.4.4 0 1 1 .465.65c-.643.46-1.283.94-1.903 1.43a.396.396 0 0 1-.247.086zm64.19 1.474a.397.397 0 0 1-.261-.097 50.348 50.348 0 0 0-1.839-1.516.4.4 0 0 1 .495-.63c.631.497 1.259 1.015 1.867 1.541a.4.4 0 0 1-.262.702zm-67.813 1.672a.4.4 0 0 1-.276-.69 52.145 52.145 0 0 1 1.788-1.628.401.401 0 0 1 .525.604 51.36 51.36 0 0 0-1.761 1.603.397.397 0 0 1-.276.111zM345.92 79a.398.398 0 0 1-.29-.123 50.643 50.643 0 0 0-1.685-1.682.4.4 0 0 1 .551-.58 50.73 50.73 0 0 1 1.713 1.71.4.4 0 0 1-.289.675zm-74.603 1.838a.4.4 0 0 1-.302-.662 51.483 51.483 0 0 1 1.627-1.791.4.4 0 0 1 .58.552 49.882 49.882 0 0 0-1.603 1.763.399.399 0 0 1-.302.138zm77.752 1.783a.398.398 0 0 1-.314-.152c-.49-.62-1-1.236-1.52-1.833a.4.4 0 0 1 .604-.525 51.156 51.156 0 0 1 1.543 1.862.4.4 0 0 1-.313.648zm-80.723 1.99a.4.4 0 0 1-.325-.632c.466-.654.955-1.306 1.452-1.937a.4.4 0 1 1 .629.494c-.49.622-.97 1.263-1.43 1.907a.399.399 0 0 1-.326.168zm83.516 1.91a.4.4 0 0 1-.337-.183 50.353 50.353 0 0 0-1.34-1.967.4.4 0 0 1 .651-.466c.467.652.926 1.325 1.36 1.998a.4.4 0 0 1-.334.617zm-86.118 2.129l-.2-.054a.4.4 0 0 1-.146-.546c.404-.696.828-1.391 1.264-2.067a.4.4 0 1 1 .672.433c-.428.665-.847 1.35-1.243 2.035a.4.4 0 0 1-.347.199zm88.527 2.014a.4.4 0 0 1-.355-.215 51.2 51.2 0 0 0-1.146-2.084.399.399 0 1 1 .69-.402c.405.694.796 1.406 1.166 2.117a.4.4 0 0 1-.17.54l-.185.044zm-90.733 2.256l-.167-.037a.4.4 0 0 1-.197-.53c.335-.731.692-1.464 1.061-2.178a.4.4 0 0 1 .71.367 50.5 50.5 0 0 0-1.043 2.145.4.4 0 0 1-.364.233zm92.736 2.095a.4.4 0 0 1-.37-.25 49.515 49.515 0 0 0-.943-2.182.4.4 0 0 1 .727-.334c.335.728.657 1.474.957 2.217a.399.399 0 0 1-.221.52l-.15.03zm-94.526 2.37l-.13-.023a.4.4 0 0 1-.248-.509c.264-.76.548-1.525.848-2.272a.4.4 0 0 1 .743.298 49.102 49.102 0 0 0-.835 2.236.401.401 0 0 1-.378.27zm96.106 2.156a.401.401 0 0 1-.384-.286 50.14 50.14 0 0 0-.73-2.267.4.4 0 1 1 .755-.264c.265.759.515 1.534.743 2.303a.399.399 0 0 1-.27.497l-.114.017zm-97.458 2.454l-.094-.01a.4.4 0 0 1-.295-.483c.188-.781.399-1.567.625-2.338a.4.4 0 1 1 .767.225 49.953 49.953 0 0 0-.614 2.3.4.4 0 0 1-.389.306zm98.598 2.208a.4.4 0 0 1-.392-.324 49.831 49.831 0 0 0-.51-2.326.4.4 0 1 1 .777-.19c.191.78.365 1.576.519 2.364a.4.4 0 0 1-.317.468l-.077.008zm-99.5 2.506l-.057-.004a.4.4 0 0 1-.34-.453c.113-.796.247-1.598.398-2.386a.4.4 0 1 1 .786.151 50.05 50.05 0 0 0-.392 2.348.4.4 0 0 1-.395.344zm100.19 2.243a.4.4 0 0 1-.398-.361 49.619 49.619 0 0 0-.285-2.364.4.4 0 0 1 .792-.116c.115.794.213 1.603.29 2.402a.4.4 0 0 1-.36.437l-.039.002zm-100.64 2.535h-.02a.4.4 0 0 1-.38-.419c.037-.802.094-1.614.17-2.413a.4.4 0 1 1 .796.075 51.13 51.13 0 0 0-.167 2.376.4.4 0 0 1-.399.38zm100.877 2.259a.4.4 0 0 1-.4-.4 51.32 51.32 0 0 0-.061-2.381.4.4 0 1 1 .8-.04c.038.802.06 1.615.06 2.42.002.22-.172.41-.4.4zm-100.875 2.54a.4.4 0 0 1-.399-.38 51.857 51.857 0 0 1-.058-2.42.4.4 0 0 1 .8 0c0 .791.02 1.593.057 2.381a.4.4 0 0 1-.38.419h-.02zm100.66 2.254l-.037-.001a.4.4 0 0 1-.362-.436c.073-.786.127-1.585.163-2.376a.4.4 0 1 1 .8.036 51.565 51.565 0 0 1-.166 2.414.4.4 0 0 1-.398.363zm-100.204 2.524a.4.4 0 0 1-.396-.343 50.432 50.432 0 0 1-.287-2.402.4.4 0 0 1 .797-.076c.074.787.17 1.582.282 2.364a.4.4 0 0 1-.339.453l-.057.004zm99.535 2.228l-.075-.006a.4.4 0 0 1-.319-.468c.147-.776.278-1.567.388-2.35a.4.4 0 0 1 .793.112 51.177 51.177 0 0 1-.395 2.387.4.4 0 0 1-.392.325zm-98.627 2.484a.4.4 0 0 1-.388-.305c-.19-.78-.363-1.576-.515-2.364a.4.4 0 1 1 .786-.152c.15.776.32 1.56.507 2.327a.4.4 0 0 1-.294.483l-.096.011zm97.506 2.183l-.112-.016a.4.4 0 0 1-.273-.496c.222-.76.427-1.534.612-2.301a.4.4 0 1 1 .778.186c-.187.78-.396 1.567-.621 2.339a.401.401 0 0 1-.384.288zm-96.149 2.421a.4.4 0 0 1-.377-.269 50.075 50.075 0 0 1-.74-2.304.4.4 0 1 1 .768-.225c.223.757.468 1.52.727 2.267a.399.399 0 0 1-.247.509l-.13.022zm94.582 2.128l-.149-.029a.4.4 0 0 1-.223-.52c.293-.735.573-1.488.832-2.236a.4.4 0 1 1 .756.26 50.598 50.598 0 0 1-.845 2.273.4.4 0 0 1-.371.252zm-92.793 2.32a.402.402 0 0 1-.364-.233 50.98 50.98 0 0 1-.954-2.218.4.4 0 1 1 .743-.298c.293.73.61 1.465.938 2.183a.4.4 0 0 1-.197.53l-.166.036zm90.798 2.055l-.183-.045a.4.4 0 0 1-.173-.539c.363-.704.713-1.426 1.042-2.146a.4.4 0 0 1 .728.332c-.334.732-.69 1.466-1.058 2.18a.399.399 0 0 1-.356.218zm-88.594 2.201a.4.4 0 0 1-.346-.2 50.813 50.813 0 0 1-1.163-2.118.4.4 0 0 1 .711-.368c.363.7.748 1.402 1.144 2.085a.4.4 0 0 1-.146.547l-.2.054zm86.193 1.961a.398.398 0 0 1-.336-.616c.427-.666.845-1.351 1.24-2.036a.4.4 0 1 1 .693.4 50.89 50.89 0 0 1-1.26 2.068.398.398 0 0 1-.337.184zm-83.595 2.068a.399.399 0 0 1-.326-.167 51.05 51.05 0 0 1-1.358-2 .4.4 0 1 1 .672-.434c.428.663.878 1.326 1.337 1.969a.4.4 0 0 1-.325.632zm80.812 1.846a.4.4 0 0 1-.315-.647c.488-.621.968-1.264 1.427-1.909a.4.4 0 0 1 .652.464 51.105 51.105 0 0 1-1.45 1.94.4.4 0 0 1-.314.152zm-77.844 1.923a.4.4 0 0 1-.302-.139 52.7 52.7 0 0 1-1.54-1.863.4.4 0 1 1 .628-.495c.488.62.998 1.238 1.517 1.834a.4.4 0 0 1-.303.663zm74.704 1.71a.4.4 0 0 1-.29-.675 51.343 51.343 0 0 0 1.6-1.766.4.4 0 1 1 .606.524 51.39 51.39 0 0 1-1.626 1.792.396.396 0 0 1-.29.125zm-71.392 1.763a.4.4 0 0 1-.276-.11 52.27 52.27 0 0 1-1.71-1.712.4.4 0 1 1 .58-.552 51.423 51.423 0 0 0 1.682 1.685.4.4 0 0 1-.276.689zm67.926 1.556a.4.4 0 0 1-.262-.701c.596-.52 1.187-1.06 1.757-1.606a.4.4 0 0 1 .554.578c-.58.555-1.181 1.104-1.787 1.631a.394.394 0 0 1-.262.098zm-64.3 1.59a.4.4 0 0 1-.247-.085 51.403 51.403 0 0 1-1.865-1.543.4.4 0 1 1 .524-.604 51.493 51.493 0 0 0 1.836 1.52.4.4 0 0 1-.248.713zm60.538 1.387a.4.4 0 0 1-.233-.725 50.65 50.65 0 0 0 1.9-1.432.4.4 0 1 1 .497.628c-.63.497-1.279.987-1.93 1.455a.399.399 0 0 1-.234.074zm-56.63 1.406a.4.4 0 0 1-.216-.064 52.42 52.42 0 0 1-2.003-1.36.4.4 0 1 1 .465-.651c.644.459 1.307.91 1.972 1.339a.4.4 0 0 1-.217.736zm52.606 1.201a.4.4 0 0 1-.202-.746 50.76 50.76 0 0 0 2.027-1.245.4.4 0 0 1 .435.671c-.674.437-1.367.863-2.059 1.266l-.2.054zm-48.448 1.21l-.184-.046a51.097 51.097 0 0 1-2.124-1.164.4.4 0 0 1 .401-.692c.685.396 1.388.782 2.091 1.146a.4.4 0 0 1-.184.755zm44.197 1.003a.4.4 0 0 1-.167-.763 51.11 51.11 0 0 0 2.134-1.047.4.4 0 0 1 .37.71c-.712.369-1.44.727-2.169 1.063l-.168.037zm-39.826 1l-.15-.03a51.09 51.09 0 0 1-2.227-.956.4.4 0 0 1 .334-.727c.719.33 1.456.646 2.192.941a.4.4 0 0 1-.15.771zm35.388.796a.4.4 0 0 1-.133-.777c.743-.26 1.491-.542 2.223-.839a.4.4 0 0 1 .3.742c-.744.3-1.503.588-2.258.852l-.132.022zm-30.843.78l-.113-.016a51.014 51.014 0 0 1-2.31-.74.4.4 0 0 1 .262-.756c.749.26 1.513.505 2.273.729a.4.4 0 0 1-.112.783zm26.241.587a.4.4 0 0 1-.094-.788c.766-.188 1.54-.398 2.297-.624a.4.4 0 1 1 .228.768c-.77.228-1.556.441-2.335.632l-.096.012zm-21.577.544l-.076-.007a51.344 51.344 0 0 1-2.364-.513.4.4 0 1 1 .188-.778c.768.186 1.55.356 2.328.506a.4.4 0 0 1-.076.792zm16.867.376a.4.4 0 0 1-.057-.796c.78-.114 1.571-.25 2.347-.4a.4.4 0 1 1 .153.785c-.788.154-1.59.29-2.385.407l-.058.004zm-12.115.304l-.039-.002a50.796 50.796 0 0 1-2.402-.286.4.4 0 1 1 .113-.792c.784.112 1.579.207 2.364.281a.4.4 0 0 1-.036.799zm7.339.162a.4.4 0 0 1-.02-.8c.79-.04 1.59-.098 2.375-.174a.4.4 0 1 1 .078.796c-.799.077-1.61.137-2.413.177l-.02.001zm-2.546.063c-.804 0-1.617-.019-2.419-.057a.4.4 0 0 1 .038-.798c.788.037 1.59.055 2.38.055h.146a.4.4 0 1 1 .002.8h-.147z"/>
        <path fill="#FFFFFE" d="M319.56 116.706l8.253 2.617c-1.265 4.6-3.369 8.018-6.311 10.25-2.943 2.233-6.676 3.35-11.199 3.35-5.597 0-10.197-1.912-13.8-5.736-3.605-3.824-5.406-9.052-5.406-15.685 0-7.015 1.811-12.464 5.433-16.345 3.624-3.881 8.387-5.822 14.29-5.822 5.157 0 9.345 1.523 12.565 4.571 1.917 1.802 3.354 4.39 4.313 7.764l-8.424 2.012c-.499-2.185-1.539-3.91-3.12-5.176-1.581-1.264-3.504-1.897-5.764-1.897-3.125 0-5.66 1.121-7.606 3.364-1.946 2.243-2.918 5.875-2.918 10.897 0 5.33.958 9.124 2.875 11.386 1.917 2.262 4.409 3.393 7.476 3.393 2.261 0 4.207-.72 5.837-2.157 1.628-1.438 2.798-3.7 3.507-6.786"/>
        <path fill="#DA7761" d="M136.206 284.537h5.862l-.014-13.574h-5.862l.014 13.574M95.624 279.209l5.8.847 4.286-13.092-5.8-.847-4.286 13.092"/>
        <path fill="#3769A4" d="M104.703 279.658l.175.06c.035.025.074.068.07.175-.009.222-.086.378-.238.475-.343.222-1.104.148-2.068-.196.692-.286 1.617-.58 2.061-.514zm-.984 1.081c.442.065.862.05 1.147-.133.226-.146.346-.378.358-.69a.466.466 0 0 0-.195-.426c-.602-.423-2.596.459-2.821.56l-.078.132.093.126c.393.158.96.354 1.496.431z"/>
        <path fill="#3769A4" d="M103.665 278.122l.061.013c.177.048.184.134.188.169.033.395-.804 1.254-1.447 1.622.118-.482.402-1.437.87-1.73a.478.478 0 0 1 .328-.074zm-1.41 2.196l.067-.008c.633-.24 1.924-1.35 1.866-2.019-.01-.12-.075-.337-.4-.425a.73.73 0 0 0-.603.092c-.73.455-1.04 2.12-1.052 2.19l.05.136.071.034z"/>
        <path fill="#132529" d="M101.904 279.44l-6.515-.951a.483.483 0 0 0-.535.326l-1.672 5.021c-.172.52.196 1.091.744 1.162 2.28.293 3.398.32 6.264.739 1.763.257 7.576 2.182 10.01 2.538 2.38.348 2.998-2.02 2.023-2.385-4.369-1.637-8.114-4.45-9.413-5.953a1.485 1.485 0 0 0-.906-.497"/>
        <path fill="#3769A4" d="M145.49 283.669c.108 0 .196.016.261.051.057.031.085.075.094.148.022.188-.026.334-.148.447-.347.32-1.309.375-2.612.16.793-.386 1.85-.806 2.405-.806zm-1.008 1.213c.582 0 1.116-.09 1.408-.36.187-.17.264-.399.23-.676a.465.465 0 0 0-.245-.368c-.728-.4-3.032.797-3.293.935l-.067.143.115.117c.501.099 1.207.21 1.852.21z"/>
        <path fill="#3769A4" d="M143.983 282.298l.083.005c.252.027.272.124.279.156.081.399-.827 1.394-1.53 1.828.055-.461.223-1.405.694-1.807a.707.707 0 0 1 .474-.182zm-1.325 2.377l.056-.012c.693-.317 2.04-1.585 1.903-2.248-.032-.155-.151-.35-.535-.387a.962.962 0 0 0-.759.237c-.718.613-.807 2.191-.81 2.258l.063.126.082.026z"/>
        <path fill="#132529" d="M142 283.858h-6.402c-.24 0-.44.166-.481.4l-.928 5.21a.895.895 0 0 0 .889 1.042c2.307-.038 5.638-.174 8.54-.174 3.393 0 6.332.186 10.312.186 2.406 0 2.967-2.433 1.95-2.654-4.63-1.003-8.378-1.11-12.449-3.554-.442-.265-.925-.456-1.432-.456"/>
        <path fill="#DA7761" d="M121.154 70.689c1.03 4.288 1.68 9.602-1.193 12.464 0 0 1.914 4.35 9.882 4.35 7.281 0 3.444-4.35 3.444-4.35-4.831-1.142-4.842-7.055-4.157-10.387l-7.976-2.077"/>
        <path fill="#3769A4" d="M136.56 87.738c.232-2.936.592-6.104-2.303-7.754-2.176-1.24-12.13-2.371-15.147-1.366-3.017 1.004-.74 6.47-.74 6.47l18.19 2.65"/>
        <path fill="#BEBFBB" d="M136.2 277.963h-.003l-.002-1.355h.003l.002 1.355"/>
        <path fill="#A65E4E" d="M142.06 277.963h-5.86l-.002-1.355h5.861l.002 1.355"/>
        <path fill="#BEBFBB" d="M97.7 272.869l-.005-.001.428-1.306h.004l-.428 1.307"/>
        <path fill="#A65E4E" d="M103.498 273.716l-5.799-.847.428-1.307 5.799.847-.428 1.307"/>
        <path fill="#DA7761" d="M108.02 88.432l7.271 4.735s-9.35 18.036-8.371 20.927c1.332 3.934 3.329 12.54 5.72 16.906-.245.94-1.614 3.093-2.413 3.466-5.773-4.26-12.037-17.613-11.987-21.336.112-8.488 9.78-24.698 9.78-24.698"/>
        <path fill="#DA7761" d="M112.64 131l5.556-.432-2.662 6.17s-4.877.216-5.858-3.52L112.64 131M122.852 133.378l-2.69 5.457-4.628-2.097 2.662-6.17 4.656 2.81"/>
        <path fill="#132529" d="M109.524 84.478c-5.51.806-11.014 20.023-11.014 20.023l11.936 6.578s4.728-9.139 6.959-15.926c2.337-7.111-1.97-11.54-7.881-10.675"/>
        <path fill="#869DB6" d="M111.876 108.222l-.003-.005c.32-.662.68-1.413 1.063-2.228v.01c-.38.815-.74 1.565-1.06 2.223"/>
        <path fill="#09181B" d="M111.873 108.217c-2.435-3.999-2.35-10.63-.483-14.716.719 4.271 1.21 8.477 1.546 12.488-.382.815-.742 1.566-1.063 2.228"/>
        <path fill="#132529" d="M142.375 84.78s7.698 17.7 2.579 50.662h-31.35c-.429-4.812 1.56-28.29-4.08-50.964 0 0 5.326-1.079 10.437-1.325 3.997-.194 9.791-.321 13.326 0 4.662.424 9.088 1.627 9.088 1.627"/>
        <path fill="#3769A4" d="M118.051 82.767c-1.238.667-2.766 3.51-2.471 8.426.333 5.53-.712 12.641-.712 12.641l1.817.9v2.567l4.55.6s-2.3-20 0-24.8c-.767-1.3-3.184-.334-3.184-.334"/>
        <path fill="#275E9C" d="M116.685 104.734l-.73-.362 1.247-10.805-.517 11.167"/>
        <path fill="#DA7761" d="M137.908 93.007l7.767-3.131s10.491 17.825 12.684 19.323c1.237-2.47 5.174-3.665 7.206-8.141.921-.4 2.958.062 3.772.426.209 6.93-9.289 20.866-16.241 14.482-6.396-5.874-15.188-22.959-15.188-22.959"/>
        <path fill="#09181B" d="M144.857 111.958s-9.934-15.92-7.928-21.063c1.02-2.619 3.001-3.91 5.247-3.91.334 0 .674.029 1.017.085.28.887.613 2.028.96 3.42l-6.245 2.517s4.054 7.877 8.658 14.772c.052 1.06.092 2.155.116 3.284l-1.825.895"/>
        <path fill="#A65E4E" d="M146.566 107.78c-4.604-6.896-8.658-14.773-8.658-14.773l6.245-2.517c.963 3.864 2.033 9.659 2.413 17.29"/>
        <path fill="#132529" d="M135.592 88.791c-1.745 5.244 8.943 20.687 8.943 20.687l11.443-6.366s-3.073-7.703-7.379-13.722c-4.421-6.18-11.093-6.355-13.007-.599"/>
        <path fill="#DA7761" d="M165.474 101.298l3.466-6.321 5.254 4.966s-1.468 1.847-5.208 4.086l-3.512-2.73"/>
        <path fill="#DA7761" d="M171.272 92.174l4.313 3.114-1.391 4.655-5.254-4.966 2.332-2.803"/>
        <path fill="#132529" d="M134.14 64.52c.049.473.338.84.646.823.307-.017.517-.415.47-.887-.049-.472-.337-.84-.645-.822-.307.018-.518.415-.47.887"/>
        <path fill="#C75142" d="M133.726 64.558s1.348 2.661 2.66 3.907c-.753.827-2.206.553-2.206.553l-.454-4.46"/>
        <path fill="#132529" d="M134.674 62.884l.115-.042a.271.271 0 0 0 .065-.384c-.89-1.29-2.172-1.31-2.225-1.312a.263.263 0 0 0-.267.277.294.294 0 0 0 .287.28c.042 0 1.042.026 1.753 1.056a.291.291 0 0 0 .272.125"/>
        <path fill="#DA7761" d="M118.22 64.107c.945 5.776 1.206 9.192 4.429 11.999 4.848 4.221 11.714 1.154 12.505-4.712.712-5.28-.952-13.839-6.846-15.819-5.807-1.95-11.033 2.756-10.088 8.532"/>
        <path fill="#132529" d="M133.245 58.55c2.802 3.819-1.294 7.09-3.335 6.69-.248 3.889-4.95 9.258-7.376 9.089-4.768-.334-4.39-5.956-7.312-8.756-3.42-3.279-3.888-7.089-.71-9.018-2.593-.266 1.266-9.137 9.31-5.982 10.103 3.963 16.566 5.55 16.623 1.245 1.71 4.755-2.486 8.777-7.2 6.732"/>
        <path fill="#132529" d="M114.334 56.783a.752.752 0 0 1-.53-.225c-.498-.479-.62-1.65-.298-2.85.299-1.116 1.418-3.82 5.335-4.796a.2.2 0 0 1 .097.388c-3.712.925-4.765 3.463-5.046 4.512-.318 1.187-.146 2.136.189 2.46.111.106.23.136.373.092a.2.2 0 0 1 .117.382.797.797 0 0 1-.237.037"/>
        <path fill="#DA7761" d="M126.974 66.73a5.2 5.2 0 0 0 2.901 2.472c1.648.547 2.486-.884 2.04-2.462-.402-1.42-1.743-3.418-3.402-3.28-1.635.136-2.284 1.84-1.54 3.27"/>
        <path fill="#3769A4" d="M133.833 135.442s-4.679 44.794-7.591 61.575c-3.19 18.377-19.904 75.745-19.904 75.745l-10.624-1.552s11.536-54.332 13.017-72.527c1.607-19.748 4.872-63.241 4.872-63.241h20.23"/>
        <path fill="#084B8E" d="M106.338 272.762l-2.412-.353-5.799-.847-2.413-.352s11.536-54.332 13.017-72.527c1.607-19.748 4.872-63.241 4.872-63.241h20.23-9.487s.712 7.136 1.647 16.947c-2.342 6.185-2.072 23.53-.232 34.158.294 1.703.63 3.235 1 4.52.094.321.189.627.286.915a247.347 247.347 0 0 1-.806 5.034c-.698 4.025-2.044 9.918-3.722 16.668a952.651 952.651 0 0 1-3.984 15.4c-3.241 12.162-6.76 24.685-9.182 33.186-.02.066-.039.133-.057.2-1.785 6.264-2.958 10.292-2.958 10.292"/>
        <path fill="#A4A6A3" d="M127.237 190.704a621.21 621.21 0 0 0 1.358-9.917l.001.007c-.462 3.555-.92 6.92-1.36 9.91"/>
        <path fill="#233D67" d="M127.047 191.982a22.584 22.584 0 0 1-.285-.916c-.372-1.284-.707-2.816-1.001-4.519-1.84-10.628-2.11-27.973.232-34.158.805 8.436 1.776 18.85 2.602 28.398a621.21 621.21 0 0 1-1.358 9.917c-.063.434-.127.86-.19 1.278"/>
        <path fill="#3769A4" d="M144.954 135.442s2.738 43.824 2.888 61.699c.156 18.592-3.656 79.467-3.656 79.467h-9.93s-2.998-59.79-4.245-78.049c-1.358-19.905-5.665-63.117-5.665-63.117h20.608"/>
        <path fill="#084B8E" d="M144.186 276.608h-9.93s-2.07-41.269-3.485-65.705c-.288-4.976-.549-9.254-.76-12.344a653.161 653.161 0 0 0-.471-6.385c-.274-3.502-.597-7.366-.945-11.387a3387.015 3387.015 0 0 0-2.602-28.398c-.935-9.81-1.647-16.947-1.647-16.947h20.608s2.738 43.824 2.888 61.699c.003.372.004.76.004 1.166 0 3.887-.14 9.255-.366 15.377-.177 4.79-.406 10.04-.66 15.4a3324.834 3324.834 0 0 1-1.775 33.186l-.012.2a3673.76 3673.76 0 0 1-.39 6.62l-.013.2c-.27 4.544-.444 7.318-.444 7.318"/>
        <path fill="#3769A4" d="M133.467 273.566l.143 3.244h11.445l.32-3.644-11.908.4M95.997 268.423l-.832 2.91 11.676 1.706 1.381-3.279-12.225-1.337"/>
    </g>
</svg>
