<svg xmlns="http://www.w3.org/2000/svg" width="96" height="96" viewBox="0 0 96 96">
    <g fill="none" fill-rule="evenodd">
        <path fill="#EFAC05" d="M29.173 61.922C18.599 61.922 10 53.192 10 42.46 10 31.73 18.599 23 29.173 23c10.57 0 19.17 8.73 19.17 19.46 0 10.732-8.6 19.462-19.17 19.462"/>
        <path fill="#C7E2F1" d="M47.395 42.46c0 10.218-8.16 18.499-18.224 18.499s-18.223-8.281-18.223-18.498c0-10.215 8.16-18.496 18.223-18.496 10.065 0 18.224 8.281 18.224 18.496"/>
        <path fill="#FEB602" d="M42.817 42.46c0 7.65-6.11 13.85-13.646 13.85-7.535 0-13.645-6.2-13.645-13.85 0-7.647 6.11-13.85 13.645-13.85 7.536 0 13.646 6.203 13.646 13.85"/>
        <path fill="#EFAC05" d="M30.6 26.26c0 .799-.64 1.448-1.43 1.448a1.438 1.438 0 0 1-1.426-1.448c0-.801.64-1.45 1.427-1.45.789 0 1.428.649 1.428 1.45M20.944 28.501a1.464 1.464 0 0 1-.315 2.026c-.638.47-1.531.325-1.996-.322a1.467 1.467 0 0 1 .317-2.025 1.415 1.415 0 0 1 1.994.321M14.431 36.076a1.455 1.455 0 0 1 .918 1.827 1.426 1.426 0 0 1-1.8.93 1.454 1.454 0 0 1-.916-1.827 1.423 1.423 0 0 1 1.798-.93M13.55 46.088c.749-.246 1.555.17 1.8.932a1.453 1.453 0 0 1-.919 1.826 1.42 1.42 0 0 1-1.798-.93 1.455 1.455 0 0 1 .916-1.828M18.633 54.717a1.415 1.415 0 0 1 1.996-.32c.637.47.78 1.377.315 2.024a1.413 1.413 0 0 1-1.994.321 1.466 1.466 0 0 1-.317-2.025M27.744 58.664c0-.801.64-1.45 1.427-1.45.789 0 1.428.649 1.428 1.45 0 .8-.64 1.45-1.428 1.45a1.439 1.439 0 0 1-1.427-1.45M37.398 56.42a1.464 1.464 0 0 1 .317-2.023 1.413 1.413 0 0 1 1.993.32 1.464 1.464 0 0 1-.315 2.025c-.637.47-1.53.328-1.995-.321M43.912 48.846a1.453 1.453 0 0 1-.918-1.826 1.425 1.425 0 0 1 1.8-.932c.75.249 1.161 1.067.916 1.828a1.42 1.42 0 0 1-1.798.93M44.794 38.833a1.425 1.425 0 0 1-1.8-.93 1.455 1.455 0 0 1 .918-1.827c.75-.246 1.555.17 1.798.93a1.454 1.454 0 0 1-.916 1.827M39.708 30.205a1.415 1.415 0 0 1-1.993.322 1.467 1.467 0 0 1-.317-2.026 1.417 1.417 0 0 1 1.995-.321c.638.471.78 1.378.315 2.025"/>
        <g transform="translate(17.2 30.2)">
            <circle cx="11.76" cy="11.76" r="8.4" fill="#FFF"/>
            <path fill="#FEB602" fill-rule="nonzero" d="M11.743 0C5.275 0 0 5.275 0 11.743s5.275 11.743 11.743 11.743 11.743-5.275 11.743-11.743S18.256 0 11.743 0zm.963 16.926v1.193a.94.94 0 0 1-.963.963.969.969 0 0 1-.963-.963v-1.193C9.587 16.834 8.532 16.1 8.119 15c-.183-.505.046-1.055.55-1.239.505-.183 1.056.046 1.239.55.183.413.596.734 1.1.734h1.515c.642 0 1.146-.504 1.146-1.146 0-.642-.504-1.147-1.146-1.147h-1.514a3.073 3.073 0 0 1-3.073-3.073c0-1.606 1.284-2.936 2.844-3.028V5.46a.94.94 0 0 1 .963-.964.94.94 0 0 1 .963.964V6.65c1.193.092 2.248.826 2.66 1.927.184.504-.045 1.055-.55 1.238-.504.184-1.055-.046-1.238-.55a1.216 1.216 0 0 0-1.101-.734h-1.514c-.642 0-1.147.504-1.147 1.147 0 .642.505 1.146 1.147 1.146h1.514A3.073 3.073 0 0 1 15.55 13.9c.046 1.605-1.238 2.935-2.844 3.027z"/>
        </g>
        <g>
            <path fill="#EFAC05" d="M68.773 61.922c-10.574 0-19.173-8.73-19.173-19.461C49.6 31.73 58.199 23 68.773 23c10.57 0 19.17 8.73 19.17 19.46 0 10.732-8.6 19.462-19.17 19.462"/>
            <path fill="#C7E2F1" d="M86.995 42.46c0 10.218-8.16 18.499-18.224 18.499s-18.223-8.281-18.223-18.498c0-10.215 8.16-18.496 18.223-18.496 10.065 0 18.224 8.281 18.224 18.496"/>
            <path fill="#FEB602" d="M82.417 42.46c0 7.65-6.11 13.85-13.646 13.85-7.535 0-13.645-6.2-13.645-13.85 0-7.647 6.11-13.85 13.645-13.85 7.536 0 13.646 6.203 13.646 13.85"/>
            <path fill="#EFAC05" d="M70.2 26.26c0 .799-.64 1.448-1.43 1.448a1.438 1.438 0 0 1-1.426-1.448c0-.801.64-1.45 1.427-1.45.789 0 1.428.649 1.428 1.45M60.544 28.501a1.464 1.464 0 0 1-.315 2.026c-.638.47-1.531.325-1.996-.322a1.467 1.467 0 0 1 .317-2.025 1.415 1.415 0 0 1 1.994.321M54.031 36.076a1.455 1.455 0 0 1 .918 1.827 1.426 1.426 0 0 1-1.8.93 1.454 1.454 0 0 1-.916-1.827 1.423 1.423 0 0 1 1.798-.93M53.15 46.088c.749-.246 1.555.17 1.8.932a1.453 1.453 0 0 1-.919 1.826 1.42 1.42 0 0 1-1.798-.93 1.455 1.455 0 0 1 .916-1.828M58.233 54.717a1.415 1.415 0 0 1 1.996-.32c.637.47.78 1.377.315 2.024a1.413 1.413 0 0 1-1.994.321 1.466 1.466 0 0 1-.317-2.025M67.344 58.664c0-.801.64-1.45 1.427-1.45.789 0 1.428.649 1.428 1.45 0 .8-.64 1.45-1.428 1.45a1.439 1.439 0 0 1-1.427-1.45M76.998 56.42a1.464 1.464 0 0 1 .317-2.023 1.413 1.413 0 0 1 1.993.32 1.464 1.464 0 0 1-.315 2.025c-.637.47-1.53.328-1.995-.321M83.512 48.846a1.453 1.453 0 0 1-.918-1.826 1.425 1.425 0 0 1 1.8-.932c.75.249 1.161 1.067.916 1.828a1.42 1.42 0 0 1-1.798.93M84.394 38.833a1.425 1.425 0 0 1-1.8-.93 1.455 1.455 0 0 1 .918-1.827c.75-.246 1.555.17 1.798.93a1.454 1.454 0 0 1-.916 1.827M79.308 30.205a1.415 1.415 0 0 1-1.993.322 1.467 1.467 0 0 1-.317-2.026 1.417 1.417 0 0 1 1.995-.321c.638.471.78 1.378.315 2.025"/>
            <g transform="translate(58 31.4)">
                <circle cx="11.088" cy="12.672" r="9.504" fill="#FFF"/>
                <path fill="#FEB602" fill-rule="nonzero" d="M11.072 0C4.974 0 0 4.974 0 11.072c0 6.098 4.974 11.072 11.072 11.072 6.098 0 11.072-4.974 11.072-11.072C22.144 4.974 17.17 0 11.072 0zm3.633 12.023c.432 0 .778.346.778.779a.775.775 0 0 1-.778.778H11.98v3.028c0 .519-.39.908-.908.908a.887.887 0 0 1-.908-.908V13.58H7.439a.775.775 0 0 1-.779-.778c0-.433.346-.779.779-.779h2.725v-.043l-.563-.908H7.44a.775.775 0 0 1-.779-.779c0-.432.346-.778.779-.778h1.168l-1.47-2.379a.912.912 0 1 1 1.557-.951l2.378 3.849 2.378-3.85a.912.912 0 1 1 1.557.952l-1.47 2.379h1.168c.432 0 .778.346.778.778a.775.775 0 0 1-.778.779h-2.163l-.562.908v.043h2.725z"/>
            </g>
        </g>
        <g>
            <path fill="#EFAC05" d="M49.573 83.522c-10.574 0-19.173-8.73-19.173-19.461 0-10.73 8.599-19.461 19.173-19.461 10.57 0 19.17 8.73 19.17 19.46 0 10.732-8.6 19.462-19.17 19.462"/>
            <path fill="#C7E2F1" d="M67.795 64.06c0 10.218-8.16 18.499-18.224 18.499s-18.223-8.281-18.223-18.498c0-10.215 8.16-18.496 18.223-18.496 10.065 0 18.224 8.281 18.224 18.496"/>
            <path fill="#FEB602" d="M63.217 64.06c0 7.65-6.11 13.85-13.646 13.85-7.535 0-13.645-6.2-13.645-13.85 0-7.647 6.11-13.85 13.645-13.85 7.536 0 13.646 6.203 13.646 13.85"/>
            <path fill="#EFAC05" d="M51 47.86c0 .799-.64 1.448-1.43 1.448a1.438 1.438 0 0 1-1.426-1.448c0-.801.64-1.45 1.427-1.45.789 0 1.428.649 1.428 1.45M41.344 50.101a1.464 1.464 0 0 1-.315 2.026c-.638.47-1.531.325-1.996-.322a1.467 1.467 0 0 1 .317-2.025 1.415 1.415 0 0 1 1.994.321M34.831 57.676a1.455 1.455 0 0 1 .918 1.827 1.426 1.426 0 0 1-1.8.93 1.454 1.454 0 0 1-.916-1.827 1.423 1.423 0 0 1 1.798-.93M33.95 67.688c.749-.246 1.555.17 1.8.932a1.453 1.453 0 0 1-.919 1.826 1.42 1.42 0 0 1-1.798-.93 1.455 1.455 0 0 1 .916-1.828M39.033 76.317a1.415 1.415 0 0 1 1.996-.32c.637.47.78 1.377.315 2.024a1.413 1.413 0 0 1-1.994.321 1.466 1.466 0 0 1-.317-2.025M48.144 80.264c0-.801.64-1.45 1.427-1.45.789 0 1.428.649 1.428 1.45 0 .8-.64 1.45-1.428 1.45a1.439 1.439 0 0 1-1.427-1.45M57.798 78.02a1.464 1.464 0 0 1 .317-2.023 1.413 1.413 0 0 1 1.993.32 1.464 1.464 0 0 1-.315 2.025c-.637.47-1.53.328-1.995-.321M64.312 70.446a1.453 1.453 0 0 1-.918-1.826 1.425 1.425 0 0 1 1.8-.932c.75.249 1.161 1.067.916 1.828a1.42 1.42 0 0 1-1.798.93M65.194 60.433a1.425 1.425 0 0 1-1.8-.93 1.455 1.455 0 0 1 .918-1.827c.75-.246 1.555.17 1.798.93a1.454 1.454 0 0 1-.916 1.827M60.108 51.805a1.415 1.415 0 0 1-1.993.322 1.467 1.467 0 0 1-.317-2.026 1.417 1.417 0 0 1 1.995-.321c.638.471.78 1.378.315 2.025"/>
            <path fill="#FFF" fill-rule="nonzero" d="M41.81 69.633h1.945V64.92h.988c1.116.034 1.61.51 1.93 2.008l.063.31c.263 1.255.506 2.08.654 2.395h2.008c-.107-.229-.236-.694-.383-1.288l-.462-1.91c-.255-1.106-.717-1.906-1.498-2.212v-.051a2.994 2.994 0 0 0 1.96-2.859c0-.987-.334-1.786-.924-2.314-.733-.646-1.77-.919-3.316-.919-1.132 0-2.216.102-2.965.256v11.297zm1.897-9.522c.22-.052.678-.105 1.393-.105 1.466 0 2.401.615 2.401 1.899 0 1.178-.935 1.952-2.456 1.952h-1.338V60.11zm7.588 9.522h2.048v-4.338c.285.068.621.085 1.007.085 1.46 0 2.737-.409 3.576-1.242.621-.613.957-1.498.957-2.587 0-1.072-.437-1.973-1.108-2.535-.722-.612-1.813-.936-3.324-.936-1.377 0-2.4.102-3.156.239v11.314zm1.897-9.53c.237-.049.675-.097 1.295-.097 1.55 0 2.499.647 2.499 1.844 0 1.262-1.022 2.007-2.7 2.007-.456 0-.802-.016-1.094-.097v-3.657z"/>
        </g>
        <rect width="96" height="96" fill="#FFF" fill-opacity=".01" rx="8"/>
    </g>
</svg>
