<svg xmlns="http://www.w3.org/2000/svg" width="96" height="96" viewBox="0 0 96 96">
    <g fill="none" fill-rule="evenodd">
        <rect width="96" height="96" fill="#FFF" fill-opacity=".01" rx="8"/>
        <path fill="#9DBEDE" d="M77.597 69.21H18.395A2.39 2.39 0 0 1 16 66.827V21.382A2.39 2.39 0 0 1 18.395 19h59.202a2.389 2.389 0 0 1 2.395 2.382v45.445a2.389 2.389 0 0 1-2.395 2.383"/>
        <path fill="#97AFBC" d="M74.802 62.276H21.19a.52.52 0 0 1-.522-.519v-38.49a.52.52 0 0 1 .522-.52H74.8a.52.52 0 0 1 .522.52v38.49a.52.52 0 0 1-.521.519"/>
        <path fill="#1A5289" d="M21.054 61.8V23.223c0-.052.042-.093.093-.093h53.698c.051 0 .093.041.093.093V61.8a.094.094 0 0 1-.094.094H21.148a.095.095 0 0 1-.094-.095"/>
        <path fill="#9AADC0" d="M53.6 69.21H42.392c0 3.52-2.746 5.501-8.257 6.51h27.723c-5.512-1.009-8.258-2.99-8.258-6.51"/>
        <path fill="#9DBEDE" d="M68.2 77.92c0-1.215-.99-2.2-2.213-2.2H30.006a2.207 2.207 0 0 0-2.213 2.2H68.2M48.114 29c7.243 0 13.114 5.96 13.114 13.311 0 7.352-5.871 13.311-13.114 13.311S35 49.662 35 42.311C35 34.959 40.871 29 48.114 29zm0 .69c-6.857 0-12.435 5.662-12.435 12.621 0 6.96 5.578 12.621 12.435 12.621s12.434-5.661 12.434-12.621c0-6.96-5.577-12.621-12.434-12.621zm.02 0c.272.001.538.024.805.042a28.06 28.06 0 0 1 2.151 5.044 24.407 24.407 0 0 0 3.51-.76 11.662 11.662 0 0 0-5.294-4.265c.772.075 1.52.228 2.245.44a12.512 12.512 0 0 1 3.692 3.63 27.09 27.09 0 0 0 1.533-.547c.175.173.34.356.506.54a27.27 27.27 0 0 1-1.666.61c1.093 1.877 1.872 4.336 1.926 7.542h2.99c.002.116.016.229.016.345 0 .116-.014.23-.017.345h-2.989c-.05 3.234-.79 5.702-1.837 7.573.56.187 1.084.383 1.575.58-.164.183-.328.365-.502.538-.45-.176-.927-.35-1.433-.516a11.776 11.776 0 0 1-3.425 3.491 12.14 12.14 0 0 1-2.399.524 10.877 10.877 0 0 0 5.178-4.21 24.368 24.368 0 0 0-3.609-.79 27.974 27.974 0 0 1-2.15 5.044c-.268.018-.534.04-.806.042.483-.829 1.465-2.669 2.27-5.17a21.255 21.255 0 0 0-2.29-.133c-.786 0-1.548.051-2.29.132.804 2.504 1.786 4.342 2.27 5.17-.272 0-.538-.023-.806-.041a28.086 28.086 0 0 1-2.15-5.044c-1.28.177-2.478.452-3.572.777a11.187 11.187 0 0 0 5.23 4.237 12.163 12.163 0 0 1-2.488-.538 11.79 11.79 0 0 1-3.426-3.491c-.507.165-.982.34-1.433.515-.174-.172-.337-.354-.502-.536a27.796 27.796 0 0 1 1.576-.581c-1.048-1.87-1.787-4.338-1.837-7.573h-2.99c-.003-.116-.017-.229-.017-.345 0-.116.014-.23.017-.345h2.99c.053-3.206.834-5.665 1.926-7.542a27.958 27.958 0 0 1-1.665-.61c.165-.184.33-.367.505-.54.48.187.99.372 1.534.547a12.511 12.511 0 0 1 3.69-3.63 12.17 12.17 0 0 1 2.245-.44 11.653 11.653 0 0 0-5.292 4.266c1.077.317 2.254.584 3.509.76a28.06 28.06 0 0 1 2.15-5.045c.268-.018.534-.04.806-.042-.483.83-1.464 2.669-2.27 5.17.743.08 1.505.133 2.29.133.785 0 1.547-.052 2.29-.132-.805-2.502-1.787-4.341-2.27-5.17zm8.729 12.966h-4.57c-.036 2.397-.453 4.614-1.006 6.523 1.36.196 2.629.498 3.78.85 1.02-1.794 1.746-4.188 1.796-7.373zm-12.93 0h-4.568c.051 3.174.792 5.567 1.828 7.363a25.254 25.254 0 0 1 3.748-.84c-.553-1.91-.97-4.126-1.007-6.523zm7.681 0h-7c.037 2.37.456 4.557 1.006 6.432a22.006 22.006 0 0 1 2.494-.149c.856 0 1.686.057 2.493.149.55-1.876.97-4.063 1.007-6.432zM41.25 34.619c-1.065 1.8-1.83 4.19-1.884 7.347h4.569c.037-2.397.454-4.614 1.007-6.523a25.18 25.18 0 0 1-3.692-.824zm9.358.915c-.807.092-1.637.149-2.493.149-.856 0-1.687-.057-2.492-.149-.551 1.875-.97 4.063-1.009 6.432h7.001c-.038-2.369-.457-4.557-1.007-6.432zm4.372-.914a25.282 25.282 0 0 1-3.692.823c.553 1.91.97 4.126 1.007 6.523h4.568c-.052-3.157-.818-5.546-1.883-7.346z"/>
    </g>
</svg>
