<svg xmlns="http://www.w3.org/2000/svg" width="96" height="96" viewBox="0 0 96 96">
    <g fill="none" fill-rule="evenodd">
        <rect width="96" height="96" fill="#FFF" fill-opacity=".01" rx="8"/>
        <path fill="#9DBEDE" d="M77.597 73.21H18.395A2.39 2.39 0 0 1 16 70.827V25.382A2.39 2.39 0 0 1 18.395 23h59.202a2.389 2.389 0 0 1 2.395 2.382v45.445a2.389 2.389 0 0 1-2.395 2.383"/>
        <path fill="#FFF" d="M26 57.8h7.7v7.7H26zM38.1 57.8h7.7v7.7h-7.7zM26 47.9h7.7v7.7H26zM38.1 47.9h7.7v7.7h-7.7zM38.1 38h7.7v7.7h-7.7zM50.2 57.8h7.7v7.7h-7.7z"/>
        <path fill="#6D92B7" d="M50.2 47.9h7.7v7.7h-7.7z"/>
        <path fill="#FFF" d="M50.2 38h7.7v7.7h-7.7zM62.3 47.9H70v7.7h-7.7zM62.3 38H70v7.7h-7.7z"/>
        <rect width="64" height="9" x="16" y="23" fill="#6D92B7" rx="2"/>
        <path fill="#466482" d="M24 17h6v9h-6zM66 17h6v9h-6z"/>
    </g>
</svg>
