<svg xmlns="http://www.w3.org/2000/svg" width="96" height="96" viewBox="0 0 96 96">
    <g fill="none" fill-rule="evenodd">
        <rect width="96" height="96" fill="#FFF" fill-opacity=".01" rx="8"/>
        <path fill="#1A5289" fill-rule="nonzero" d="M27.096 27.484c1.753-1.73 3.955-1.73 5.72-.012.363.356.724.715 1.083 1.074l2.153 2.163 3.135 3.146c1.843 1.854 1.843 4.012.011 5.854-1.314 1.326-2.618 2.652-3.955 3.945-.348.348-.382.629-.202 1.056.887 2.112 2.157 3.989 3.584 5.742 2.877 3.528 6.125 6.663 10.001 9.102.832.517 1.753.899 2.619 1.37.438.248.741.17 1.1-.202 1.316-1.348 2.653-2.674 3.99-4 1.753-1.742 3.956-1.742 5.72 0 2.146 2.135 4.292 4.27 6.427 6.416 1.787 1.798 1.776 4-.022 5.821-1.214 1.225-2.506 2.393-3.652 3.674-1.674 1.877-3.765 2.484-6.17 2.349-3.494-.191-6.708-1.348-9.81-2.854-6.888-3.349-12.776-7.99-17.71-13.855-3.651-4.338-6.663-9.068-8.64-14.395-.967-2.573-1.652-5.214-1.439-8.012.135-1.719.775-3.19 2.045-4.393 1.371-1.304 2.664-2.663 4.012-3.99zm21.216 4.303a18.433 18.433 0 0 1 10.563 5.27c2.73 2.742 4.528 6.192 5.18 10.001l-4.147.708a14.299 14.299 0 0 0-4-7.73 14.301 14.301 0 0 0-8.18-4.08zM48.862 21c6.686.933 12.743 3.955 17.53 8.742C70.932 34.293 73.91 40.024 75 46.34l-4.147.708c-.932-5.45-3.506-10.405-7.427-14.327-4.136-4.124-9.372-6.742-15.148-7.551z"/>
    </g>
</svg>
