<svg xmlns="http://www.w3.org/2000/svg" xmlns:xlink="http://www.w3.org/1999/xlink" width="407" height="367" viewBox="0 0 407 367">
    <defs>
        <path id="a" d="M39.175 25.883l-1.014-.295.757-1.836c.14-.331.258-.678.442-.815.027-.044.084-.061.16-.061.144 0 .355.064.552.122-.287.965-.586 1.927-.897 2.885zm-1.517-.442l-6.056-1.764-.555-.691-.396-.49-.156-.194-.204.141-.869.598-18.555-5.407.52-3.914.041-.307-.286.117a17.917 17.917 0 0 1-7.332 1.321l1.629-4.697.418-1.257c.091-.284.131-.43.121-.434h-.001c-.012 0-.073.139-.183.411l-.48 1.235-1.798 4.819-.06.159.172.01a17.946 17.946 0 0 0 7.362-1.124l-.501 3.551L.178 14.519C7.204 4.077 15.898 2.041 18.107 1.682c-.03.03-.096.114-.197.25l-.575.809L15.173 5.9l-.116.17.206.035 4.742.816-1.599 5.971-.107.402.395-.138 5.418-1.899 1.039 5.098.084.412.33-.261 5.111-4.03a27.675 27.675 0 0 0 4.316 4.299l.342.272.086-.428 1.098-5.453c1.884 1.041 3.871 1.558 5.737 2.034l.431.109-.141-.422c-.679-2.051-.679-4.142-.872-6.043a20.006 20.006 0 0 1 3.831-.001l-3.294 7.89a116.937 116.937 0 0 1-1.993 7.774 3.835 3.835 0 0 0-.467-.119c-.075-.012-.149-.024-.239-.024a.897.897 0 0 0-.101.005c-.175.029-.256.086-.363.161-.381.323-.457.713-.606 1.025l-.783 1.886zm-6.955-2.026l-.618-.181.305-.209.239.297.074.093zm4.281-7.334a27.116 27.116 0 0 1-2.006-1.832 27.065 27.065 0 0 1-2.048-2.313l-.166-.211-.21.167-4.982 3.948-1.036-4.956-.058-.277-.264.095-5.277 1.897 1.47-5.777.05-.195-.196-.03-4.754-.724 1.945-3.055c.209-.343.379-.621.518-.846.097-.166.149-.264.156-.293.331-.053.511-.068.511-.068L39.609.956l8.29.149-.051.123c-.179.037-.419.086-.717.137-.728.149-1.801.157-3.21.2l-.205.007.108.183 2.229 3.773-.393.941a20.199 20.199 0 0 0-4.249-.037l-.217.021.022.22c.184 1.796.15 3.856.737 5.943-1.821-.48-3.754-1.046-5.48-2.074l-.321-.19-.072.359-1.096 5.37zM46.212 5.148l-2.067-3.346c1.285-.072 2.325-.128 3.011-.309.267-.061.485-.121.653-.172l-1.597 3.827z"/>
    </defs>
    <g fill="none" fill-rule="evenodd">
        <path fill="#EAEAE5" d="M263.888 30.29c-2.583 13.9-15.97 23.071-29.902 20.483-13.932-2.587-23.134-15.953-20.552-29.854C216.016 7.02 229.404-2.15 243.335.437c13.932 2.587 23.134 15.954 20.553 29.853"/>
        <path fill="#F1F0EC" d="M257.885 29.176c-1.967 10.592-12.169 17.58-22.787 15.61-10.617-1.973-17.629-12.159-15.662-22.75 1.968-10.594 12.17-17.583 22.787-15.61 10.617 1.971 17.628 12.157 15.662 22.75"/>
        <path fill="#D4D5CF" d="M257.992 28.572c-.117-.017-.043-.876-.079-2.406-.045-1.522-.233-3.747-1.123-6.304a19.95 19.95 0 0 0-1.897-3.966 19.533 19.533 0 0 0-5.3-5.589 18.365 18.365 0 0 0-2.433-1.449 19.034 19.034 0 0 0-2.713-1.103c-.948-.297-1.93-.53-2.937-.692a20.925 20.925 0 0 0-3.01-.22 19.102 19.102 0 0 0-2.92.238c-.953.143-1.872.376-2.755.653-.885.272-1.726.62-2.524 1.001a19.546 19.546 0 0 0-4.209 2.742 19.934 19.934 0 0 0-2.998 3.215c-1.614 2.172-2.46 4.238-2.959 5.677-.493 1.448-.679 2.29-.796 2.271-.087-.012-.098-.887.234-2.43.34-1.53 1.064-3.752 2.653-6.127a19.818 19.818 0 0 1 3.04-3.534 19.974 19.974 0 0 1 4.421-3.048 18.894 18.894 0 0 1 2.694-1.125 19.13 19.13 0 0 1 2.958-.74 20.043 20.043 0 0 1 3.15-.282 21.693 21.693 0 0 1 3.247.231c1.087.174 2.147.428 3.167.754 1.023.325 1.994.747 2.92 1.213a19.073 19.073 0 0 1 2.6 1.594 19.996 19.996 0 0 1 5.536 6.113 19.88 19.88 0 0 1 1.842 4.283c.804 2.743.83 5.08.696 6.642-.146 1.571-.418 2.402-.505 2.388"/>
        <path fill="#D4D5CF" d="M241.893 31.82c.18-1.05-.592-1.768-1.804-2.439l-.707 4.138c1.555-.074 2.347-.74 2.511-1.7zm-3.92-8.106l.725-4.257c-1.649.09-2.428.851-2.597 1.84-.178 1.05.623 1.773 1.871 2.417zm.733 13.761l-.573 3.358-2.998-.513.558-3.267c-2.936-.687-5.626-2.102-7.053-3.673l2.272-3.376c1.31 1.366 3.33 2.544 5.452 3.122l.855-5.006c-3.19-1.377-6.716-3.12-5.984-7.408.543-3.177 3.317-5.51 8.145-5.24l.568-3.328 2.998.511-.558 3.268c2.217.564 4.302 1.537 5.772 2.868l-2.129 3.431c-1.38-1.13-2.85-1.906-4.319-2.343l-.87 5.097c3.193 1.347 6.661 3.082 5.94 7.308-.534 3.117-3.273 5.426-8.076 5.191z"/>
        <path fill="#132529" d="M407.25 366.315c0 .145-129.164.262-215.173.262-86.04 0-192.077-.117-192.077-.262 0-.144 106.037-.262 192.077-.262 86.009 0 215.173.118 215.173.262"/>
        <path fill="#F1F0EC" d="M74.779 319.457c17.166-11.994 21.061-34.255 20.382-54.266-.114-3.34.254-6.86-1.335-9.793-1.59-2.93-5.297-4.933-8.288-3.525-2.48 1.168-3.561 4.053-4.949 6.44a19.534 19.534 0 0 1-7.834 7.481c-2.127 1.104-4.759 1.78-6.859.621-2.881-1.59-3.22-5.57-3.2-8.893l.116-18.575c.021-3.32.031-6.714-1.002-9.867-1.034-3.153-3.317-6.082-6.477-6.968-3.161-.884-7.069.938-7.736 4.19-.278 1.353-.002 2.758-.095 4.136-.092 1.38-.734 2.905-2.044 3.29-1.326.39-2.655-.553-3.648-1.525-3.43-3.354-5.756-7.676-7.931-11.973-2.174-4.297-4.285-8.697-7.397-12.355-3.111-3.659-7.415-6.558-12.172-6.828-4.759-.269-9.827 2.667-11.03 7.338-1.205 4.684 1.527 9.436 4.501 13.227a74.153 74.153 0 0 0 15.44 14.718c1.047.743 2.182 1.546 2.582 2.776.722 2.215-1.377 4.415-3.564 5.143-2.476.825-5.163.568-7.753.873-2.59.305-5.397 1.447-6.377 3.896-1.36 3.395 1.479 6.954 4.274 9.285a63.517 63.517 0 0 0 18.801 10.853c2.443.894 5.015 1.68 6.986 3.396 1.971 1.718 3.16 4.703 1.97 7.043-1.192 2.343-4.248 3.092-6.808 2.616-2.559-.474-4.851-1.864-7.29-2.784-4.565-1.724-10.461-1.409-13.386 2.536-1.922 2.594-2.091 6.206-1.118 9.297.971 3.092 2.942 5.755 5.036 8.211 7.317 8.585 16.684 15.496 27.276 19.17 10.59 3.671 20.403 4.665 30.929.816"/>
        <path fill="#132529" d="M8.08 203.828c-.008.008.102.115.322.316.245.22.572.51.987.88.87.77 2.153 1.904 3.765 3.41a124.77 124.77 0 0 1 12.689 13.695c2.472 3.08 5.041 6.566 7.731 10.358 2.684 3.8 5.526 7.876 8.353 12.274 2.827 4.396 5.657 9.108 8.197 14.2 1.28 2.538 2.421 5.196 3.587 7.906l3.524 8.238c4.721 11.141 8.873 21.91 11.84 31.97 2.984 10.051 4.76 19.366 5.536 27.26.797 7.896.634 14.341.312 18.763-.173 2.212-.343 3.93-.499 5.087l-.153 1.32c-.032.3-.042.453-.033.455.011 0 .042-.149.095-.445l.213-1.313c.196-1.155.404-2.869.615-5.084.395-4.427.625-10.894-.12-18.826-.725-7.927-2.463-17.289-5.428-27.38-2.945-10.099-7.092-20.9-11.817-32.05l-3.528-8.242c-1.165-2.702-2.32-5.382-3.611-7.933-2.561-5.116-5.413-9.839-8.26-14.237-2.847-4.402-5.708-8.474-8.412-12.262-2.712-3.785-5.307-7.265-7.807-10.335-4.984-6.163-9.582-10.647-12.865-13.598a109.94 109.94 0 0 0-3.845-3.326l-1.026-.834c-.233-.184-.356-.275-.362-.267"/>
        <path fill="#132529" d="M50.482 258.663c.042.006.155-.498.325-1.417.174-.919.383-2.255.616-3.91.47-3.307.963-7.897 1.487-12.96.524-5.065 1.081-9.635 1.599-12.926.256-1.647.475-2.978.639-3.895.158-.919.226-1.432.185-1.443-.041-.008-.187.487-.417 1.393-.236.904-.521 2.227-.831 3.87-.63 3.284-1.257 7.865-1.782 12.935l-1.308 12.972c-.167 1.56-.31 2.874-.424 3.928-.096.93-.131 1.446-.089 1.453"/>
        <path fill="#132529" d="M7.77 250.68c-.001.042.606.113 1.704.204 1.095.097 2.682.23 4.636.457 3.913.422 9.296 1.195 15.199 2.307 5.901 1.123 11.2 2.367 15.005 3.377 1.908.492 3.44.931 4.501 1.228 1.061.302 1.653.45 1.667.41.014-.042-.555-.266-1.596-.64a81.054 81.054 0 0 0-4.458-1.42c-3.787-1.12-9.088-2.436-15.008-3.564-5.919-1.114-11.334-1.822-15.268-2.133a71.152 71.152 0 0 0-4.667-.262c-1.103-.017-1.713-.007-1.715.036M69.088 306.126c.019.01.119-.17.293-.52l.73-1.546c.628-1.345 1.487-3.314 2.516-5.76 2.06-4.894 4.694-11.743 7.498-19.339 2.807-7.6 5.373-14.463 7.329-19.392l2.333-5.832.626-1.59c.136-.367.199-.563.18-.573-.02-.008-.119.172-.293.522l-.731 1.544c-.628 1.345-1.486 3.315-2.515 5.762-2.061 4.892-4.695 11.741-7.5 19.341-2.805 7.597-5.371 14.46-7.327 19.39l-2.333 5.83-.626 1.591c-.137.367-.2.564-.18.572"/>
        <path fill="#132529" d="M12.33 287.834c-.006.02.189.1.563.231.444.15.988.332 1.649.553l6.077 1.97c5.132 1.664 12.194 4.044 19.993 6.684 7.801 2.643 14.891 4.96 20.059 6.518 2.584.78 4.681 1.39 6.138 1.782l1.681.441c.386.095.593.134.598.113.005-.02-.189-.1-.564-.233l-1.648-.55c-1.522-.495-3.576-1.16-6.077-1.97-5.132-1.664-12.194-4.045-19.995-6.687-7.8-2.64-14.889-4.958-20.056-6.516-2.584-.78-4.681-1.39-6.14-1.782l-1.68-.442c-.386-.094-.592-.133-.598-.112"/>
        <path fill="#D4D5CF" d="M276.144 35.436l-2.035 3.717-3.717 2.035 3.717 2.032 2.035 3.717 2.035-3.717 3.717-2.032-3.717-2.035-2.035-3.717M90.346 75.123l-2.034 3.717-3.718 2.035 3.718 2.032 2.034 3.718 2.035-3.718 3.718-2.032-3.718-2.035-2.035-3.717M290.973 51.21l-1.252 2.287-2.282 1.25 2.282 1.248 1.252 2.284 1.251-2.284 2.282-1.249-2.282-1.249-1.25-2.287M79.191 53.741l-1.251 2.286-2.282 1.25 2.282 1.248 1.251 2.285 1.251-2.285 2.282-1.249-2.282-1.249-1.251-2.286"/>
        <g>
            <path fill="#334F55" d="M233.686 319.394l-7.359-5.786 10.749-13.853 10.855 8.35-.611.902c-2.755 3.988-14.284 20.08-17.043 22.034-3.075 2.179 3.409-11.647 3.409-11.647"/>
            <path fill="#132529" d="M229.348 330.838c-.13-.103 3.818-5.342 8.818-11.701 5.002-6.361 9.16-11.431 9.29-11.33.13.103-3.817 5.34-8.818 11.7-5 6.359-9.16 11.433-9.29 11.33M234.996 320.817c-.026.165-.503.225-1.071.22-.568-.006-1.043-.075-1.067-.241-.023-.162.455-.365 1.074-.358.617.005 1.091.217 1.064.379M234.789 322.078c-.047.16-.575.145-1.198.063-.623-.086-1.137-.211-1.14-.378-.004-.163.547-.308 1.22-.217.674.09 1.166.375 1.118.532"/>
            <path fill="#132529" d="M244.142 311.92c-.079.023-.252-.291-.451-.834-.191-.541-.419-1.334-.388-2.26.031-.931.397-1.744.813-2.196.414-.463.799-.571.831-.507.051.077-.22.303-.492.759-.274.45-.524 1.156-.554 1.968-.028.816.117 1.573.201 2.13.09.559.122.919.04.94M233.58 319.77c-.061-.155.241-.42.634-.671.394-.248.763-.411.877-.288.113.118-.109.51-.556.795-.446.284-.895.317-.955.165M233.039 318.995c-.12-.114.069-.563.425-1.002.355-.441.755-.721.892-.627.136.094-.054.543-.425 1.004-.372.46-.772.74-.892.625M184.928 200.363s-21.957 58.343-18.999 69.243c2.959 10.899 62.176 54.178 62.176 54.178l16.078-23.138s-46.189-36.554-46.333-38.572c-.146-2.02 18.336-50.488 18.336-50.488l-31.258-11.223"/>
            <path fill="#334F55" d="M227.092 305.99c-.005.008-.076-.031-.208-.114l-.58-.381-2.2-1.508a364.846 364.846 0 0 1-7.959-5.733c-6.664-4.918-15.71-11.94-25.312-20.161a486.276 486.276 0 0 1-6.959-6.06c-1.111-.991-2.202-1.967-3.272-2.923-1.057-.956-2.146-1.93-2.823-3.202-.714-1.276-.676-2.784-.414-4.053.257-1.288.583-2.501.891-3.683a329.199 329.199 0 0 1 1.839-6.521l2.735-9.415.717-2.566.187-.667c.045-.15.073-.226.081-.224.01.002 0 .082-.028.236l-.136.68a81.219 81.219 0 0 1-.62 2.595c-.57 2.246-1.462 5.477-2.572 9.464-.553 1.995-1.162 4.178-1.773 6.53-.297 1.177-.616 2.4-.858 3.657-.242 1.247-.263 2.583.388 3.736.622 1.162 1.667 2.103 2.728 3.053 1.072.95 2.164 1.922 3.278 2.91a554.284 554.284 0 0 0 6.959 6.046 544.625 544.625 0 0 0 25.191 20.265l7.854 5.867 2.14 1.589.549.424c.122.098.183.152.177.16"/>
            <path fill="#334F55" d="M221.73 313.04c-.118-.09 2.934-4.3 6.815-9.401 3.882-5.104 7.124-9.167 7.241-9.078.118.09-2.932 4.298-6.815 9.402-3.881 5.102-7.123 9.166-7.241 9.077"/>
            <path fill="#132529" d="M223.706 89.417c1.958 3.924 2.993 7.32 6.885 9.344 1.753.912 3.891 1.432 4.948 3.1 1.151 1.818.608 4.45 2.064 6.037 2.114 2.305 6.436.437 8.811 2.474 2.119 1.818 1.438 5.717 3.724 7.32 1.285.9 3.038.7 4.502 1.268 2.399.929 3.536 3.697 3.851 6.25.253 2.046.136 4.192-.755 6.05-.889 1.858-2.651 3.376-4.7 3.592-1.04.109-2.132-.098-3.209-.304-1.74-.334-3.439-.67-4.801.334-.781.577-1.235 1.482-1.836 2.245-1.37 1.74-3.622 2.747-5.832 2.607-2.211-.14-4.318-1.421-5.458-3.321-1.52-2.533-1.422-6.027-3.649-7.97-1.164-1.014-2.738-1.377-4.186-1.918-1.446-.541-2.942-1.438-3.377-2.921-.422-1.44-1.26-2.357-2.094-3.605-.629-.94-1.375-.701-2.171-.462-.615.184-1.258.368-1.9.01-1.472-.82-.913-2.423-1.037-4.104l10.22-26.026"/>
            <path fill="#ECAF9C" d="M197.845 146.094l-18.979-6.346s-8.387 24.162-10.958 24.396c-14.241 1.299-29.478-3.423-34.822-5.29a41.189 41.189 0 0 1-1.852-2.235 8.485 8.485 0 0 1-1.339-2.56c-.364-1.117-.788-2.621-.763-3.517.03-1.11-1.303-1.677-1.92-.881-.617.797-.774 3.849.632 7.133 1.405 3.282-3.57.67-5.401-.248-1.83-.92-7.626-3.498-8.354-3.16-1.068.498-.733 1.734 1.117 2.609 1.872.886 7.21 3.89 6.677 4.835-.524.929-9.778-3.878-9.778-3.878s-1.811-1.347-2.461-.278c-1.175 1.929 9.039 6.314 10.021 6.708.682.272.141 1.318-.577.986-.738-.342-9.118-5.01-10.333-3.056-.931 1.498 8.368 3.685 9.568 5.618.624 1.004-1.257.325-3.326-.355-1.914-.63-3.989-1.258-4.389-.552-.309.546-.464.996 4.536 2.8 2.426.877 7.002 1.955 11.143 2.846l-.017.05s49.945 22.336 60.717.806c11.43-22.847 10.858-26.431 10.858-26.431"/>
            <path fill="#B0C9DF" d="M216.609 126.089l8.29.149 6.585 18.868-5.362 21.62c-1.567 6.316 5.545 18.95 5.362 25.922l-46.501 7.53-.979-31.051-.023-1.041-16.091-8.03 5.309-13.008c8.17-19.14 22.438-20.304 22.438-20.304l20.972-.655"/>
            <g transform="translate(177 125.133)">
                <mask id="b" fill="#fff">
                    <use xlink:href="#a"/>
                </mask>
                <path fill="#B0C9DF" d="M.178 25.883h47.721V.956H.178z" mask="url(#b)"/>
            </g>
            <path fill="#334F55" d="M234.421 134.22c-.011.024-.322-.154-.974-.341a5.76 5.76 0 0 0-2.935-.047l.075-.113a45.78 45.78 0 0 0 .903 3.933c.403 1.513.915 3.22 1.362 5.142l.066.285-.284-.082c-2.372-.685-5.161-1.211-8.098-2.204l.277-.22c.303 2.855.287 6.047.458 9.4l.015.292-.293-.044c-2.566-.378-5.183-1.198-7.854-2.07-.315-.093-.694-.22-.779-.081-.184.137-.302.484-.442.815l-.826 2.005c-.557 1.347-1.121 2.716-1.695 4.102l-.169.413-.281-.348-5.318-6.602-.395-.49.361.052c-2.927 2.01-5.787 3.977-8.554 5.879l-.284.195-.114-.325-2.799-8.054.374.128a48.868 48.868 0 0 1-9.515 4.79l-.356.133.052-.376 1.633-11.582.244.19a17.934 17.934 0 0 1-7.648 1.235l-.172-.01.06-.16c.774-2.076 1.377-3.687 1.798-4.818l.48-1.235c.111-.276.173-.415.184-.411.01.004-.03.15-.121.434a724.5 724.5 0 0 1-.418 1.257l-1.685 4.86-.113-.17a17.941 17.941 0 0 0 7.501-1.314l.286-.117-.041.307-1.539 11.595-.304-.242a48.941 48.941 0 0 0 9.399-4.787l.269-.176.106.304 2.822 8.045-.397-.13 8.548-5.886.204-.141.156.194.396.49 5.312 6.606-.451.065 1.701-4.1.832-2.002c.149-.312.225-.702.606-1.025.107-.075.188-.132.363-.161.139-.014.238.004.34.019.196.036.372.089.546.144 2.674.882 5.244 1.699 7.775 2.084l-.277.248c-.157-3.38-.121-6.548-.4-9.384l-.033-.327.31.108c2.899 1.005 5.669 1.552 8.061 2.272l-.217.203c-.422-1.912-.912-3.623-1.291-5.148a42.255 42.255 0 0 1-.833-3.97l-.014-.093.089-.02a5.661 5.661 0 0 1 3.011.143c.654.223.944.44.944.44"/>
            <path fill="#334F55" d="M184.26 167.856c-.016.032-.396-.116-.999-.526a8.037 8.037 0 0 1-2.151-2.217c-.73-1.092-1.239-2.694-1.094-4.44.066-1.732.623-3.66 1.806-5.304a9.727 9.727 0 0 1 3.297-2.948l-.142.194c.385-2.851.734-5.301 1.002-7.037.268-1.735.455-2.754.514-2.746.059.009-.019 1.044-.198 2.79-.18 1.748-.462 4.207-.812 7.065l-.015.123-.125.07a9.525 9.525 0 0 0-3.085 2.799c-1.118 1.557-1.658 3.366-1.75 5.024-.162 1.663.271 3.139.925 4.21.641 1.086 1.415 1.79 1.954 2.25.55.45.89.659.873.693"/>
            <path fill="#334F55" d="M186.014 146.91c-.133.064-.591-.6-1.024-1.482-.432-.883-.676-1.652-.542-1.717.133-.064.591.599 1.023 1.482.433.883.675 1.65.543 1.717"/>
            <path fill="#ECAF9C" d="M216.05 126.362l1.43-32.678-12.976-9.831-11.796 5.767s-.395 14.81 0 21.234c.393 6.422 6.868 7.108 6.868 7.108s-.15 3.763-.299 7.719a8.394 8.394 0 1 0 16.773.681"/>
            <path fill="#132529" d="M193.991 100.416a.822.822 0 1 0 1.644-.002.822.822 0 0 0-1.644.002M193.196 99.52c.107.106.713-.41 1.598-.457.885-.061 1.55.378 1.642.259.045-.052-.064-.25-.356-.448a2.15 2.15 0 0 0-1.318-.346 2.16 2.16 0 0 0-1.268.504c-.264.233-.349.44-.298.488M203.519 100.416a.82.82 0 1 0 1.643 0 .822.822 0 0 0-1.643 0M203.007 99.52c.106.106.713-.41 1.598-.457.884-.061 1.549.378 1.642.259.045-.052-.064-.25-.356-.448a2.156 2.156 0 0 0-1.319-.346 2.154 2.154 0 0 0-1.267.504c-.264.233-.35.44-.298.488"/>
            <path fill="#FFFFFE" d="M202.737 107.832c-1.1.546-3.051 1.33-4.278 1.474 0 0 1.091 1.557 2.934.832 1.908-.751 1.344-2.306 1.344-2.306"/>
            <path fill="#E6816F" d="M199.572 117.962s4.325.048 8.51-2.874c0 0-1.929 4.715-8.369 4.449l-.141-1.575"/>
            <path fill="#132529" d="M236.165 112.147c-.569.03-1.418-.061-2.328-.527-.916-.448-1.822-1.298-2.537-2.461-.728-1.152-1.293-2.58-1.899-4.07a95.61 95.61 0 0 1-2.717-7.773l-.268-.892a9.589 9.589 0 0 0-.168-.875c-3.505-13.394-15.276-15.891-17.605-15.891-2.497 0-6.867-1.374-13.236 5.244a14.39 14.39 0 0 0-2.416 3.335c-1.641 2.06-2.509 4.336-2.839 6.049-.387 1.956-.223 3.193-.148 3.187.121.005.141-1.213.641-3.071a15.47 15.47 0 0 1 1.231-3.162c-.93 4.146.652 7.397.652 7.397l2.285-.63 8.179-2.782c-.743-2.533.351-5.678.97-7.145l.061-.056c1.873 9.614 10.813 10.5 10.813 10.5l1.512 21.034c10.874-2.323 10.626-16.873 10.557-19.83a62.598 62.598 0 0 0 1.94 5.586c.61 1.495 1.194 2.94 1.989 4.145.775 1.207 1.806 2.113 2.821 2.544 1.009.453 1.94.483 2.536.376.604-.117.89-.311.876-.337-.017-.05-.33.066-.902.105"/>
            <path fill="#132529" d="M199.814 106.995c.001-.05-.552-.115-1.448-.181-.225-.012-.447-.044-.494-.211-.061-.173.025-.434.125-.714l.607-1.835c.421-1.305.783-2.492 1.028-3.356.245-.865.373-1.408.325-1.423-.046-.015-.259.5-.565 1.345-.307.845-.706 2.02-1.127 3.325l-.581 1.843c-.077.273-.212.584-.087.925a.55.55 0 0 0 .377.318c.144.038.271.034.383.035.898.002 1.456-.022 1.457-.071"/>
            <path fill="#ECAF9C" d="M218.162 106.727c-.038-1.07-.041-2.172.345-3.171.386-1 1.245-1.884 2.309-1.995 1.226-.127 2.413.89 2.609 2.109.194 1.216-.515 2.483-1.589 3.088-1.073.604-2.435.587-3.567.1"/>
            <path fill="#E6816F" d="M220.035 105.792c.039-.071.348.087.801-.051.456-.111.924-.63.962-1.366.026-.36-.052-.694-.229-.855-.179-.173-.47-.222-.7-.21-.481.043-.82.17-.848.089-.02-.054.217-.3.792-.462.286-.065.7-.082 1.078.208.378.309.472.823.442 1.266a2.002 2.002 0 0 1-.479 1.2 1.486 1.486 0 0 1-.946.5c-.634.063-.926-.28-.873-.32"/>
            <path fill="#334F55" d="M210.194 361.177v-9.361l17.535-.112.144 13.694-1.086.077c-4.838.299-24.614 1.182-27.855.222-3.614-1.07 11.262-4.52 11.262-4.52"/>
            <path fill="#132529" d="M198.518 364.84c0-.165 6.559-.3 14.647-.3 8.092 0 14.648.135 14.648.3 0 .166-6.556.3-14.648.3-8.088 0-14.647-.134-14.647-.3M209.886 363.087c-.147.08-.489-.256-.836-.706-.345-.45-.584-.867-.469-.987.112-.12.567.13.944.622.378.488.504.992.361 1.07M208.767 363.704c-.156.062-.47-.363-.79-.904-.318-.542-.538-1.024-.408-1.13.126-.103.58.24.925.826.345.585.426 1.148.273 1.208"/>
            <path fill="#132529" d="M222.532 364.777c-.066-.047.073-.378.378-.87.307-.485.789-1.154 1.535-1.702.752-.551 1.618-.766 2.23-.72.62.04.943.277.913.342-.029.087-.375.014-.901.082-.524.062-1.234.303-1.889.78-.659.483-1.166 1.065-1.552 1.476-.383.416-.646.663-.714.612M209.833 361.328c.084-.145.48-.071.919.082.439.157.795.345.769.51-.022.163-.468.232-.968.056-.499-.175-.804-.508-.72-.648M210.108 360.422c.015-.165.486-.293 1.051-.285.566.007 1.033.148 1.044.313.01.165-.46.294-1.052.287-.591-.008-1.059-.15-1.043-.315"/>
            <path fill="#334F55" d="M194.535 198.76l-9.607 1.603 5.53 6.804c1.589 32.029 1.204 63.052 2.671 78.524.223 2.347 10.141 76.036 9.155 74.31l29.203 1.219-8.716-74.003 4.132-65.727a34.797 34.797 0 0 0 3.657-25.668l-.725-2.956-35.3 5.894"/>
            <path fill="#132529" d="M214.66 83.096c-1.451-.56-2.633-1.825-2.999-3.338-.365-1.511.139-3.224 1.325-4.23 1.187-1.005 3.019-1.206 4.353-.406 1.088.653 1.747 1.838 2.163 3.037.276.799.468 1.666.262 2.487-.31 1.229-1.469 2.098-2.694 2.427-1.223.329-2.517.217-3.779.1"/>
            <path fill="#132529" d="M240.434 100.92c-.059-.015.225-.472.06-1.31a2.976 2.976 0 0 0-.697-1.337c-.393-.44-.995-.795-1.721-.991-.726-.201-1.569-.24-2.47-.176-.904.058-1.877.219-2.935.244-1.05.02-2.227-.12-3.255-.772-1.068-.653-1.585-1.892-1.944-3.007a16.012 16.012 0 0 0-3.202-5.744 17 17 0 0 0-4.142-3.457c-2.685-1.567-4.662-1.815-4.623-1.937.004-.018.125-.01.353.027.227.043.571.077.993.202.857.2 2.074.625 3.464 1.379a16.555 16.555 0 0 1 4.326 3.46c1.391 1.56 2.63 3.588 3.338 5.899.363 1.119.821 2.182 1.723 2.738.884.573 1.966.727 2.962.718 1.01-.01 1.985-.152 2.917-.193.931-.047 1.824.014 2.601.256.775.234 1.428.65 1.841 1.159.415.504.611 1.048.676 1.496.061.453-.012.809-.093 1.03-.08.223-.162.32-.172.315"/>
            <path fill="#D4D5CF" d="M221.961 106.667c.033-.05.482.332.476 1.195a1.897 1.897 0 0 1-.606 1.34 2.084 2.084 0 0 1-1.73.537 2.082 2.082 0 0 1-1.468-1.062 1.898 1.898 0 0 1-.145-1.463c.269-.821.818-1.04.832-.98.061.06-.338.375-.464 1.069-.059.339-.027.758.206 1.13.224.372.639.697 1.126.778.486.078.984-.097 1.315-.377a1.62 1.62 0 0 0 .556-1.005c.102-.698-.175-1.123-.098-1.162"/>
            <path fill="#E0565F" d="M219.371 84.356c-.126.108-1.412-1.514-3.613-2.658-2.186-1.176-4.25-1.327-4.231-1.491-.024-.132 2.168-.222 4.481 1.017 2.325 1.215 3.485 3.077 3.363 3.132"/>
            <path fill="#D4D5CF" d="M223.103 105.442c0-.07.283-.094.462.237.08.154.124.385.01.632-.117.25-.399.409-.679.416a.83.83 0 0 1-.704-.328.829.829 0 0 1-.153-.58c.046-.337.241-.456.292-.414.065.04.03.202.086.403.058.209.204.398.459.384.255-.012.347-.182.332-.386-.01-.19-.126-.291-.105-.364"/>
            <path fill="#334F55" d="M216.259 125.356c.025-.003.116.378.112 1.08-.003.699-.131 1.726-.584 2.909a8.925 8.925 0 0 1-2.576 3.578c-1.289 1.09-3.089 1.823-5.03 1.945-1.944.112-3.819-.4-5.23-1.326a8.917 8.917 0 0 1-2.988-3.243c-.592-1.12-.842-2.124-.929-2.817-.089-.697-.044-1.085-.018-1.086.117-.028.051 1.594 1.277 3.717.616 1.038 1.567 2.172 2.921 3.012 1.34.849 3.101 1.313 4.934 1.209 1.831-.117 3.523-.79 4.751-1.794 1.244-.995 2.051-2.236 2.539-3.34.961-2.255.701-3.858.821-3.844"/>
            <path fill="#132529" d="M214.162 354.525c-.009.002-.029-.09-.058-.27l-.119-.796-.403-3.072a716.358 716.358 0 0 1-1.326-11.315c-1.064-9.561-2.373-22.788-3.551-37.42-1.174-14.635-1.993-27.902-2.47-37.51a711.92 711.92 0 0 1-.497-11.382l-.092-3.095-.011-.806c.001-.182.006-.275.014-.275.01 0 .024.09.04.273l.065.803.192 3.09.667 11.37c.575 9.6 1.452 22.86 2.626 37.49a1881.09 1881.09 0 0 0 3.394 37.422l1.157 11.332.303 3.082.065.804c.012.18.013.275.004.275"/>
            <path fill="#132529" d="M230.481 354.597c.002.037-.396.09-1.118.156a71.94 71.94 0 0 1-3.062.197c-2.588.126-6.17.185-10.12.125a422.362 422.362 0 0 1-10.113-.281l-3.062-.144c-.723-.045-1.122-.087-1.122-.125.001-.036.401-.064 1.126-.083.723-.021 1.771-.03 3.066-.027 2.589.002 6.164.067 10.112.124 3.946.06 7.516.06 10.102.032 1.201-.01 2.224-.02 3.064-.026.724-.001 1.125.016 1.127.052"/>
            <path fill="#E0565F" d="M224.899 126.238s15.606 1.842 13.955 20.397c-1.683 18.928-9.504 32.912-9.504 32.912l-20.456-10.74c4.592-9.301 8.113-18.923 10.316-28.941l5.689-13.628"/>
            <path fill="#334F55" d="M225.242 126.293c.036.124-1.697.587-4.3.767l.19-.363a7657.5 7657.5 0 0 0 1.925 3.128l1.218 2.04.293.492-.557-.107c-3.191-.608-5.571-.324-5.577-.468-.007-.055.577-.19 1.586-.26a17.514 17.514 0 0 1 4.083.225l-.265.384-1.239-2.027-1.871-3.156-.207-.347.396-.016a63.165 63.165 0 0 0 3.124-.206c.756-.067 1.188-.14 1.201-.086M234.421 134.22c-.015.088-1.451-.265-3.939-.325l.164-.192 2.282 9.067.106.42-.413-.113-6.359-1.746-1.735-.482.343-.267.384 9.395.013.303-.282-.078-6.104-1.71-1.689-.51c-.386-.123-.589-.2-.583-.222.006-.022.221.01.619.094l1.717.392 6.134 1.523-.267.224-.475-9.388-.019-.367.362.1 1.73.478 6.335 1.77-.307.307-2.106-9.125-.047-.205.211.012c1.254.073 2.245.228 2.911.37.667.144 1.02.248 1.014.276M235.685 159.573c-.015.017-.315-.203-.727-.745-.423-.533-.874-1.414-1.542-2.433l.276-.011a60.582 60.582 0 0 1-5.66 8.995l-.206.27-.206-.27-3.044-3.964-2.297-3.012.383.037-3.685 3.216c-.574.497-1.125.976-1.656 1.434-.262.228-.52.45-.772.667l-.371.32-.091.079-.047.04-.047.036-.063.029c-.034.084-.33-.125-.257-.218l.008-.04.007-.021.014-.03-.002.025.104.158-.012.009-.17.055-.059-.191c-.598-1.97-1.023-3.583-1.257-4.717-.249-1.131-.236-1.792-.192-1.788.036.002.097.628.41 1.736.298 1.109.78 2.702 1.422 4.646l-.228-.136c.058-.004.091-.03.221.005l.166.245-.039.137-.049-.023-.141-.054-.059-.101-.056-.061.001-.001.004-.003.006-.007.043-.038.089-.081.365-.327.758-.683 1.632-1.461 3.655-3.25.21-.187.173.225 2.305 3.005 3.029 3.976h-.412c2.629-3.403 4.538-6.59 5.791-8.833l.136-.243.141.233c.644 1.068 1.043 1.957 1.413 2.508.357.558.611.817.585.843"/>
            <path fill="#334F55" d="M218.012 145.314c.035.01-.029.355-.174.972-.143.616-.38 1.502-.695 2.589a99.297 99.297 0 0 1-2.874 8.365 99.34 99.34 0 0 1-3.6 8.082 52.77 52.77 0 0 1-1.256 2.369c-.313.55-.503.845-.536.829-.069-.036.52-1.305 1.45-3.361.93-2.057 2.181-4.912 3.444-8.115a180.184 180.184 0 0 0 3.01-8.283c.722-2.138 1.155-3.47 1.231-3.447M225.242 126.293c.036.124-1.697.587-4.3.767l.19-.363a7657.5 7657.5 0 0 0 1.925 3.128l1.218 2.04.293.492-.557-.107c-3.191-.608-5.571-.324-5.577-.468-.007-.055.577-.19 1.586-.26a17.514 17.514 0 0 1 4.083.225l-.265.384-1.239-2.027-1.871-3.156-.207-.347.396-.016a63.165 63.165 0 0 0 3.124-.206c.756-.067 1.188-.14 1.201-.086"/>
            <path fill="#FEB602" d="M194.767 175.612c-1.097 23.004-20.664 40.73-43.707 39.592-23.042-1.137-40.834-20.707-39.738-43.71 1.095-23.004 20.663-40.729 43.706-39.592 23.042 1.139 40.834 20.707 39.739 43.71"/>
            <path fill="#FFC83D" d="M184.839 175.124c-.835 17.528-15.747 31.037-33.307 30.17-17.559-.867-31.118-15.781-30.283-33.31.834-17.53 15.747-31.039 33.306-30.17 17.56.867 31.118 15.78 30.284 33.31"/>
            <path fill="#C38C04" d="M184.879 174.125c-.193-.001-.263-1.404-.658-3.867-.409-2.447-1.205-5.997-3.204-9.931a32.629 32.629 0 0 0-3.934-5.99c-1.66-1.968-3.647-3.897-6.007-5.56a29.548 29.548 0 0 0-3.778-2.304c-1.342-.69-2.754-1.318-4.242-1.808-1.483-.497-3.024-.92-4.62-1.19a34.016 34.016 0 0 0-4.89-.478 34.176 34.176 0 0 0-4.905.301c-1.603.212-3.156.58-4.656 1.022-1.505.439-2.935 1.015-4.299 1.655a29.892 29.892 0 0 0-3.85 2.168c-2.414 1.579-4.463 3.436-6.183 5.345a32.521 32.521 0 0 0-4.126 5.845c-2.123 3.858-3.033 7.377-3.52 9.81-.474 2.445-.589 3.845-.782 3.84-.142 0-.353-1.411-.158-3.974.209-2.543.887-6.288 2.927-10.47a32.18 32.18 0 0 1 4.123-6.37c1.764-2.093 3.902-4.136 6.457-5.886a30.683 30.683 0 0 1 4.096-2.402c1.457-.711 2.99-1.351 4.607-1.841 1.614-.495 3.29-.901 5.019-1.142 1.728-.242 3.5-.356 5.29-.336 1.79.044 3.556.223 5.273.527 1.72.302 3.382.77 4.978 1.321 1.6.546 3.113 1.242 4.545 2.005a30.92 30.92 0 0 1 4.016 2.548c2.496 1.839 4.568 3.957 6.263 6.113a32.481 32.481 0 0 1 3.915 6.513c1.906 4.253 2.461 8.02 2.59 10.57.111 2.569-.144 3.972-.287 3.966"/>
            <path fill="#BE8800" fill-rule="nonzero" d="M139 181.489h3.492v-7.897h1.775c2.004.057 2.891.856 3.464 3.364l.134.606c.464 2.054.893 3.406 1.154 3.927h3.607c-.202-.402-.445-1.238-.726-2.301l-.791-3.059c-.458-1.852-1.288-3.192-2.691-3.705v-.086c1.832-.627 3.52-2.309 3.52-4.789 0-1.653-.6-2.993-1.66-3.877-1.316-1.083-3.177-1.54-5.954-1.54-2.032 0-3.979.172-5.324.428v18.929zm3.492-10.462v-6.072l.185-.04c.389-.07 1.046-.131 1.99-.131 2.291 0 3.75.998 3.75 3.079 0 1.91-1.459 3.164-3.835 3.164h-2.09zm12.653 16.106h3.521v-7.184h.057c.716 1.112 2.176 1.853 3.922 1.853 3.178 0 6.355-2.423 6.355-7.44 0-4.333-2.662-7.07-5.868-7.07-2.119 0-3.75.884-4.78 2.452h-.058l-.172-2.138h-3.091l.06 1.507c.03.928.054 1.95.054 3.111v14.909zm3.521-13.598c0-.285.057-.598.115-.883.372-1.54 1.717-2.594 3.177-2.594 2.261 0 3.464 1.995 3.464 4.447 0 2.736-1.317 4.59-3.55 4.59-1.517 0-2.748-1.027-3.12-2.452a5.31 5.31 0 0 1-.086-.97v-2.138z"/>
            <path fill="#ECAF9C" d="M236.174 159.269l-17.153-11.282s-8.387 24.163-10.959 24.397c-14.241 1.299-29.478-3.423-34.822-5.29a40.759 40.759 0 0 1-1.851-2.235 8.544 8.544 0 0 1-1.34-2.56c-.364-1.116-.787-2.621-.763-3.518.03-1.108-1.303-1.676-1.92-.88-.617.797-.773 3.849.632 7.133 1.405 3.282-3.569.67-5.4-.25-1.83-.918-7.626-3.496-8.355-3.157-1.067.497-.732 1.733 1.117 2.608 1.872.886 7.21 3.89 6.677 4.834-.523.93-9.777-3.876-9.777-3.876s-1.812-1.348-2.462-.28c-1.175 1.93 9.039 6.316 10.021 6.708.682.274.141 1.32-.577.987-.738-.343-9.118-5.01-10.333-3.056-.931 1.497 8.368 3.685 9.569 5.618.623 1.004-1.258.324-3.327-.355-1.914-.63-3.989-1.258-4.388-.553-.31.547-.465.997 4.535 2.802 2.427.876 7.002 1.954 11.144 2.845l-.018.05s51.059 22.859 60.718.806c10.284-23.485 9.032-21.496 9.032-21.496"/>
            <path fill="#B0C9DF" d="M229.35 179.547l-1.363-.715-19.093-10.025c4.592-9.301 8.113-18.923 10.316-28.941l5.689-13.628s14.09 1.663 14.078 17.747c-.001.843-.04 1.726-.123 2.65-1.683 18.928-9.504 32.912-9.504 32.912"/>
            <path fill="#334F55" d="M234.421 134.22c-.015.088-1.451-.265-3.939-.325l.164-.192 2.282 9.067.106.42-.413-.113-6.359-1.746-1.735-.482.343-.267.384 9.395.013.303-.282-.078-6.104-1.71-1.689-.51c-.386-.123-.589-.2-.583-.222.006-.022.221.01.619.094l1.717.392 6.134 1.523-.267.224-.475-9.388-.019-.367.362.1 1.73.478 6.335 1.77-.307.307-2.106-9.125-.047-.205.211.012c1.254.073 2.245.228 2.911.37.667.144 1.02.248 1.014.276M235.685 159.573c-.015.017-.315-.203-.727-.745-.423-.533-.874-1.414-1.542-2.433l.276-.011a60.582 60.582 0 0 1-5.66 8.995l-.206.27-.206-.27-3.044-3.964-2.297-3.012.383.037-3.685 3.216c-.574.497-1.125.976-1.656 1.434-.262.228-.52.45-.772.667l-.371.32-.091.079-.047.04-.047.036-.063.029c-.034.084-.33-.125-.257-.218l.008-.04.007-.021.014-.03-.002.025.104.158-.012.009-.17.055-.059-.191c-.598-1.97-1.023-3.583-1.257-4.717-.249-1.131-.236-1.792-.192-1.788.036.002.097.628.41 1.736.298 1.109.78 2.702 1.422 4.646l-.228-.136c.058-.004.091-.03.221.005l.166.245-.039.137-.049-.023-.141-.054-.059-.101-.056-.061.001-.001.004-.003.006-.007.043-.038.089-.081.365-.327.758-.683 1.632-1.461 3.655-3.25.21-.187.173.225 2.305 3.005 3.029 3.976h-.412c2.629-3.403 4.538-6.59 5.791-8.833l.136-.243.141.233c.644 1.068 1.043 1.957 1.413 2.508.357.558.611.817.585.843"/>
            <path fill="#334F55" d="M218.012 145.314c.035.01-.029.355-.174.972-.143.616-.38 1.502-.695 2.589a99.297 99.297 0 0 1-2.874 8.365 99.34 99.34 0 0 1-3.6 8.082 52.77 52.77 0 0 1-1.256 2.369c-.313.55-.503.845-.536.829-.069-.036.52-1.305 1.45-3.361.93-2.057 2.181-4.912 3.444-8.115a180.184 180.184 0 0 0 3.01-8.283c.722-2.138 1.155-3.47 1.231-3.447M225.242 126.293c.004.01-.088.047-.268.109-.182.06-.455.142-.818.224-.722.19-1.837.242-3.218.32l.097-.19 3.179 5.147.213.346-.404-.07a20.161 20.161 0 0 0-5.567-.18l.194-.24c.217 1.958.19 4.132.895 6.26l.141.423-.431-.11c-1.973-.502-4.08-1.052-6.059-2.217l.393-.168-1.169 5.805-.086.428-.342-.272a27.562 27.562 0 0 1-4.482-4.508l.376.043-5.321 4.196-.33.26-.084-.411-1.094-5.373.321.182-5.684 1.992-.395.138.107-.402 1.65-6.162.146.225-4.939-.85-.206-.035.116-.17 2.162-3.16.575-.808c.133-.18.205-.268.216-.262.01.007-.043.109-.156.302-.139.225-.309.503-.518.846l-2.057 3.229-.089-.205 4.955.755.196.03-.05.195-1.573 6.18-.288-.262 5.668-2.038.264-.095.058.277 1.122 5.367-.414-.151 5.31-4.208.21-.167.166.21c.63.8 1.314 1.575 2.048 2.314.76.769 1.561 1.48 2.346 2.108l-.427.156 1.183-5.802.072-.36.321.19c1.858 1.107 3.957 1.68 5.897 2.184l-.29.313c-.72-2.23-.668-4.448-.864-6.365l-.022-.22.217-.021a20.16 20.16 0 0 1 5.678.253l-.19.275-3.075-5.205-.108-.183.205-.007c1.409-.043 2.482-.051 3.21-.2.726-.124 1.104-.233 1.111-.205"/>
        </g>
        <g>
            <path fill="#EAEAE5" d="M86.767 136.109C85.67 159.112 66.103 176.838 43.06 175.7c-23.042-1.138-40.834-20.708-39.738-43.711 1.095-23.004 20.663-40.729 43.706-39.592 23.042 1.139 40.834 20.708 39.739 43.71"/>
            <path fill="#F1F0EC" d="M76.839 135.62c-.835 17.528-15.747 31.037-33.307 30.17-17.559-.866-31.118-15.781-30.283-33.31.834-17.53 15.747-31.039 33.306-30.17 17.56.867 31.118 15.78 30.284 33.31"/>
            <path fill="#D7D8D2" d="M76.879 134.621c-.193 0-.263-1.404-.658-3.867-.409-2.447-1.205-5.997-3.204-9.931a32.629 32.629 0 0 0-3.934-5.989c-1.66-1.969-3.647-3.898-6.007-5.561a29.548 29.548 0 0 0-3.778-2.304c-1.342-.69-2.754-1.318-4.242-1.808-1.483-.497-3.024-.92-4.62-1.19a34.016 34.016 0 0 0-4.89-.477 34.176 34.176 0 0 0-4.905.3c-1.603.213-3.156.58-4.656 1.022-1.505.439-2.935 1.016-4.299 1.655a29.892 29.892 0 0 0-3.85 2.169c-2.414 1.578-4.463 3.435-6.183 5.345a32.521 32.521 0 0 0-4.126 5.844c-2.123 3.858-3.033 7.377-3.52 9.81-.474 2.445-.589 3.845-.782 3.84-.142 0-.353-1.41-.158-3.974.209-2.543.887-6.288 2.927-10.47a32.18 32.18 0 0 1 4.123-6.37c1.764-2.092 3.902-4.136 6.457-5.886a30.683 30.683 0 0 1 4.096-2.402c1.457-.711 2.99-1.351 4.607-1.841 1.614-.495 3.29-.901 5.019-1.141 1.728-.243 3.5-.357 5.29-.336 1.79.043 3.556.222 5.273.526 1.72.302 3.382.77 4.978 1.321 1.6.546 3.113 1.242 4.545 2.005a30.92 30.92 0 0 1 4.016 2.548c2.496 1.839 4.568 3.957 6.263 6.113a32.481 32.481 0 0 1 3.915 6.513c1.906 4.253 2.461 8.02 2.59 10.57.111 2.569-.144 3.972-.287 3.966"/>
            <path fill="#D4D5CF" fill-rule="nonzero" d="M31 141.985h3.492v-7.896h1.775c2.004.057 2.891.855 3.464 3.363l.134.606c.464 2.054.893 3.406 1.154 3.927h3.607c-.202-.402-.445-1.238-.726-2.3l-.791-3.06c-.458-1.852-1.288-3.192-2.691-3.705v-.086c1.832-.627 3.52-2.309 3.52-4.789 0-1.653-.6-2.993-1.66-3.877-1.316-1.083-3.177-1.539-5.954-1.539-2.032 0-3.979.171-5.324.428v18.928zm3.492-10.462v-6.072l.185-.039c.389-.07 1.046-.132 1.99-.132 2.291 0 3.75.998 3.75 3.079 0 1.91-1.459 3.164-3.835 3.164h-2.09zm12.653 16.106h3.521v-7.184h.057c.716 1.112 2.176 1.853 3.922 1.853 3.178 0 6.355-2.423 6.355-7.44 0-4.333-2.662-7.07-5.868-7.07-2.119 0-3.75.884-4.78 2.452h-.058l-.172-2.138h-3.091l.06 1.507c.03.928.054 1.95.054 3.111v14.91zm3.521-13.597c0-.286.057-.6.115-.884.372-1.54 1.717-2.594 3.177-2.594 2.261 0 3.464 1.995 3.464 4.447 0 2.736-1.317 4.59-3.55 4.59-1.517 0-2.748-1.027-3.12-2.452a5.31 5.31 0 0 1-.086-.97v-2.137z"/>
        </g>
        <g>
            <path fill="#EAEAE5" d="M356.595 96.109c-1.097 23.003-20.664 40.729-43.707 39.592-23.042-1.138-40.834-20.708-39.738-43.711 1.095-23.004 20.663-40.729 43.706-39.592 23.042 1.139 40.834 20.708 39.739 43.71"/>
            <path fill="#F1F0EC" d="M346.667 95.62c-.835 17.528-15.747 31.037-33.307 30.17-17.559-.866-31.118-15.781-30.283-33.31.835-17.53 15.747-31.039 33.306-30.17 17.56.867 31.118 15.78 30.284 33.31"/>
            <path fill="#D7D8D2" d="M346.707 94.621c-.193 0-.263-1.404-.658-3.867-.409-2.447-1.205-5.997-3.204-9.931a32.629 32.629 0 0 0-3.934-5.989c-1.659-1.969-3.646-3.898-6.007-5.561a29.548 29.548 0 0 0-3.778-2.304c-1.342-.69-2.754-1.318-4.242-1.808-1.483-.497-3.024-.92-4.62-1.19a34.016 34.016 0 0 0-4.89-.477 34.176 34.176 0 0 0-4.904.3c-1.604.213-3.157.58-4.657 1.022-1.505.439-2.935 1.016-4.299 1.655a29.892 29.892 0 0 0-3.85 2.169c-2.413 1.578-4.463 3.435-6.183 5.345a32.521 32.521 0 0 0-4.126 5.844c-2.123 3.858-3.033 7.377-3.52 9.81-.474 2.445-.589 3.845-.782 3.84-.141 0-.353-1.41-.158-3.974.209-2.543.887-6.288 2.928-10.47a32.18 32.18 0 0 1 4.122-6.37c1.764-2.092 3.902-4.136 6.457-5.886a30.683 30.683 0 0 1 4.096-2.402c1.457-.711 2.99-1.351 4.607-1.841 1.614-.495 3.29-.901 5.019-1.141 1.728-.243 3.5-.357 5.29-.336 1.79.043 3.556.222 5.273.526 1.72.302 3.382.77 4.978 1.321 1.6.546 3.113 1.242 4.545 2.005a30.92 30.92 0 0 1 4.016 2.548c2.496 1.839 4.568 3.957 6.263 6.113a32.481 32.481 0 0 1 3.915 6.513c1.906 4.253 2.461 8.02 2.59 10.57.111 2.569-.144 3.972-.287 3.966"/>
            <path fill="#D4D5CF" fill-rule="nonzero" d="M300.828 101.985h3.492v-7.896h1.775c2.004.057 2.891.855 3.464 3.363l.134.606c.464 2.054.893 3.406 1.154 3.927h3.607c-.202-.402-.445-1.238-.726-2.3l-.791-3.06c-.458-1.852-1.288-3.192-2.691-3.705v-.086c1.832-.627 3.521-2.309 3.521-4.789 0-1.653-.601-2.993-1.66-3.877-1.317-1.083-3.178-1.539-5.955-1.539-2.032 0-3.979.171-5.324.428v18.928zm3.492-10.462v-6.072l.186-.039c.388-.07 1.045-.132 1.99-.132 2.29 0 3.75.998 3.75 3.079 0 1.91-1.46 3.164-3.836 3.164h-2.09zm12.653 16.106h3.521v-7.184h.057c.716 1.112 2.176 1.853 3.922 1.853 3.178 0 6.355-2.423 6.355-7.44 0-4.333-2.662-7.07-5.868-7.07-2.119 0-3.75.884-4.78 2.452h-.058l-.172-2.138h-3.091l.06 1.507c.03.928.054 1.95.054 3.111v14.91zm3.521-13.597c0-.286.057-.6.115-.884.372-1.54 1.717-2.594 3.177-2.594 2.262 0 3.464 1.995 3.464 4.447 0 2.736-1.317 4.59-3.55 4.59-1.517 0-2.748-1.027-3.12-2.452a5.31 5.31 0 0 1-.086-.97v-2.137z"/>
        </g>
    </g>
</svg>
