<svg xmlns="http://www.w3.org/2000/svg" width="96" height="96" viewBox="0 0 96 96">
    <g fill="none" fill-rule="evenodd">
        <rect width="96" height="96" fill="#FFF" fill-opacity=".01" rx="8"/>
        <path fill="#9DBEDE" d="M64.311 85H31.688C30.203 85 29 83.588 29 81.844V14.157C29 12.413 30.203 11 31.688 11h32.623C65.796 11 67 12.413 67 14.157v67.687C67 83.588 65.796 85 64.311 85"/>
        <path fill="#5C7BAE" d="M30 77h36V19H30z"/>
        <path fill="#1A5289" d="M30 77h36V20H30z"/>
        <path fill="#97AFBC" d="M53 16.5a1.5 1.5 0 1 1-3 0 1.5 1.5 0 0 1 3 0M48 16c0 .552-.224 1-.5 1s-.5-.448-.5-1 .224-1 .5-1 .5.448.5 1M44 82.067v-2.134c0-.515.383-.933.853-.933h6.294c.47 0 .853.418.853.933v2.134c0 .515-.382.933-.853.933h-6.294c-.469 0-.853-.42-.853-.933"/>
        <path fill="#B4C9DE" d="M51.548 83h-6.096a.465.465 0 0 1-.452-.477v-2.046c0-.264.202-.477.452-.477h6.096c.25 0 .452.213.452.477v2.046a.465.465 0 0 1-.452.477"/>
        <path fill="#9DBEDE" fill-rule="nonzero" d="M57.07 39c1.619 0 2.935 1.302 2.93 2.897v12.21C60 55.704 58.684 57 57.065 57h-18.13C37.316 57 36 55.703 36 54.108V41.892C36 40.297 37.316 39 38.935 39zm-.005 1.326h-18.13c-.88 0-1.594.705-1.594 1.571v12.21c0 .867.715 1.572 1.594 1.572H57.07c.88 0 1.594-.705 1.594-1.571h-.005v-12.21c0-.867-.715-1.572-1.594-1.572zm-18.125 1.4a.676.676 0 0 1 .948-.054l6.426 5.667a.99.99 0 0 1 .11.093c0 .005.004.01.01.015l1.578 1.39 8.095-7.16a.68.68 0 0 1 .948.049.657.657 0 0 1-.05.935l-5.87 5.187 5.895 5.516c.269.25.278.67.025.935a.674.674 0 0 1-.486.205.671.671 0 0 1-.462-.181l-5.97-5.589-1.673 1.478a.672.672 0 0 1-.894.005l-1.628-1.434-6.004 5.535a.677.677 0 0 1-.949-.034.657.657 0 0 1 .03-.935l5.915-5.457-5.94-5.231a.653.653 0 0 1-.054-.935z"/>
    </g>
</svg>
