<svg xmlns="http://www.w3.org/2000/svg" xmlns:xlink="http://www.w3.org/1999/xlink" width="372" height="334" viewBox="0 0 372 334">
    <defs>
        <path id="a" d="M.054.52H129.13v150.49H.054z"/>
    </defs>
    <g fill="none" fill-rule="evenodd">
        <path fill="#EFAC05" d="M290.135 97.22c-17.447 0-31.635-14.404-31.635-32.11 0-17.705 14.188-32.11 31.635-32.11 17.44 0 31.631 14.405 31.631 32.11 0 17.706-14.191 32.11-31.631 32.11"/>
        <path fill="#C7E2F1" d="M320.201 65.11c0 16.858-13.462 30.522-30.07 30.522-16.604 0-30.066-13.664-30.066-30.522 0-16.854 13.462-30.518 30.067-30.518 16.607 0 30.07 13.664 30.07 30.518"/>
        <path fill="#FEB602" d="M312.649 65.11c0 12.623-10.082 22.853-22.517 22.853-12.433 0-22.514-10.23-22.514-22.853 0-12.619 10.081-22.852 22.514-22.852 12.435 0 22.517 10.233 22.517 22.852"/>
        <path fill="#EFAC05" d="M292.488 38.379c0 1.318-1.054 2.389-2.356 2.389-1.3 0-2.354-1.07-2.354-2.39s1.055-2.392 2.354-2.392c1.302 0 2.356 1.071 2.356 2.393M276.557 42.077a2.416 2.416 0 0 1-.52 3.342 2.338 2.338 0 0 1-3.292-.53 2.42 2.42 0 0 1 .522-3.343 2.334 2.334 0 0 1 3.29.53M265.812 54.575c1.24.407 1.915 1.757 1.515 3.015-.404 1.255-1.734 1.942-2.97 1.535-1.237-.41-1.916-1.757-1.513-3.015a2.349 2.349 0 0 1 2.968-1.535M264.356 71.096c1.237-.407 2.567.28 2.97 1.538.401 1.255-.275 2.605-1.514 3.012-1.237.41-2.567-.277-2.968-1.535-.403-1.255.276-2.605 1.512-3.015M272.745 85.332a2.335 2.335 0 0 1 3.292-.527 2.412 2.412 0 0 1 .52 3.34 2.331 2.331 0 0 1-3.29.53 2.42 2.42 0 0 1-.522-3.343M287.778 91.845c0-1.321 1.055-2.392 2.354-2.392 1.302 0 2.356 1.07 2.356 2.392 0 1.322-1.054 2.393-2.356 2.393-1.3 0-2.354-1.071-2.354-2.393M303.706 88.144a2.415 2.415 0 0 1 .523-3.339 2.33 2.33 0 0 1 3.29.527 2.416 2.416 0 0 1-.52 3.343 2.335 2.335 0 0 1-3.293-.53M314.455 75.646c-1.24-.407-1.916-1.757-1.515-3.012a2.351 2.351 0 0 1 2.97-1.538c1.237.41 1.916 1.76 1.512 3.015-.4 1.258-1.73 1.944-2.967 1.535M315.91 59.125a2.352 2.352 0 0 1-2.97-1.535c-.4-1.258.275-2.608 1.515-3.015a2.349 2.349 0 0 1 2.967 1.535c.404 1.258-.275 2.605-1.512 3.015M307.519 44.889a2.334 2.334 0 0 1-3.29.53 2.42 2.42 0 0 1-.523-3.342 2.338 2.338 0 0 1 3.293-.53 2.416 2.416 0 0 1 .52 3.342"/>
        <g transform="translate(272.36 46.86)">
            <circle cx="18.295" cy="20.909" r="15.682" fill="#FFF"/>
            <path fill="#FEB602" fill-rule="nonzero" d="M18.268 0C8.207 0 0 8.207 0 18.268 0 28.33 8.207 36.537 18.268 36.537c10.062 0 18.269-8.207 18.269-18.269C36.537 8.207 28.33 0 18.268 0zm5.995 19.838c.713 0 1.284.571 1.284 1.285a1.28 1.28 0 0 1-1.284 1.284h-4.496v4.996c0 .856-.642 1.498-1.499 1.498-.856 0-1.498-.642-1.498-1.498v-4.996h-4.496a1.28 1.28 0 0 1-1.284-1.284c0-.714.57-1.285 1.284-1.285h4.496v-.071l-.928-1.499h-3.568a1.28 1.28 0 0 1-1.284-1.284c0-.714.57-1.285 1.284-1.285h1.927l-2.426-3.924c-.429-.714-.215-1.642.5-2.07.713-.428 1.64-.214 2.069.5l3.924 6.35 3.925-6.35c.428-.714 1.356-.928 2.07-.5.713.428.927 1.356.5 2.07l-2.427 3.924h1.927c.713 0 1.284.571 1.284 1.285a1.28 1.28 0 0 1-1.284 1.284h-3.568l-.928 1.499v.071h4.496z"/>
        </g>
        <g>
            <path fill="#EFAC05" d="M148.235 64.22c-17.447 0-31.635-14.404-31.635-32.11C116.6 14.405 130.788 0 148.235 0c17.44 0 31.631 14.405 31.631 32.11 0 17.706-14.191 32.11-31.631 32.11"/>
            <path fill="#C7E2F1" d="M178.301 32.11c0 16.858-13.462 30.522-30.07 30.522-16.604 0-30.066-13.664-30.066-30.522 0-16.854 13.462-30.518 30.067-30.518 16.607 0 30.07 13.664 30.07 30.518"/>
            <path fill="#FEB602" d="M170.749 32.11c0 12.623-10.082 22.853-22.517 22.853-12.433 0-22.514-10.23-22.514-22.853 0-12.619 10.081-22.852 22.514-22.852 12.435 0 22.517 10.233 22.517 22.852"/>
            <path fill="#EFAC05" d="M150.588 5.379c0 1.318-1.054 2.389-2.356 2.389-1.3 0-2.354-1.07-2.354-2.39s1.055-2.392 2.354-2.392c1.302 0 2.356 1.071 2.356 2.393M134.657 9.077a2.416 2.416 0 0 1-.52 3.342 2.338 2.338 0 0 1-3.292-.53 2.42 2.42 0 0 1 .522-3.343 2.334 2.334 0 0 1 3.29.53M123.912 21.575c1.24.407 1.915 1.757 1.515 3.015-.404 1.255-1.734 1.942-2.97 1.535-1.237-.41-1.916-1.757-1.513-3.015a2.349 2.349 0 0 1 2.968-1.535M122.456 38.096c1.237-.407 2.567.28 2.97 1.538.401 1.255-.275 2.605-1.514 3.012-1.237.41-2.567-.277-2.968-1.535-.403-1.255.276-2.605 1.512-3.015M130.845 52.332a2.335 2.335 0 0 1 3.292-.527 2.412 2.412 0 0 1 .52 3.34 2.331 2.331 0 0 1-3.29.53 2.42 2.42 0 0 1-.522-3.343M145.878 58.845c0-1.321 1.055-2.392 2.354-2.392 1.302 0 2.356 1.07 2.356 2.392 0 1.322-1.054 2.393-2.356 2.393-1.3 0-2.354-1.071-2.354-2.393M161.806 55.144a2.415 2.415 0 0 1 .523-3.339 2.33 2.33 0 0 1 3.29.527 2.416 2.416 0 0 1-.52 3.343 2.335 2.335 0 0 1-3.293-.53M172.555 42.646c-1.24-.407-1.916-1.757-1.515-3.012a2.351 2.351 0 0 1 2.97-1.538c1.237.41 1.916 1.76 1.512 3.015-.4 1.258-1.73 1.944-2.967 1.535M174.01 26.125a2.352 2.352 0 0 1-2.97-1.535c-.4-1.258.275-2.608 1.515-3.015a2.349 2.349 0 0 1 2.967 1.535c.404 1.258-.275 2.605-1.512 3.015M165.619 11.889a2.334 2.334 0 0 1-3.29.53 2.42 2.42 0 0 1-.523-3.342 2.338 2.338 0 0 1 3.293-.53 2.416 2.416 0 0 1 .52 3.342"/>
            <path fill="#FFF" fill-rule="nonzero" d="M135.427 41.305h3.209v-7.777h1.63c1.842.056 2.657.843 3.183 3.313l.105.51c.434 2.072.835 3.434 1.079 3.954h3.314c-.177-.378-.39-1.146-.633-2.126l-.761-3.152c-.421-1.825-1.184-3.144-2.473-3.65v-.084c1.684-.618 3.236-2.274 3.236-4.716 0-1.629-.553-2.948-1.526-3.818-1.21-1.067-2.92-1.516-5.47-1.516-1.868 0-3.657.168-4.893.42v18.642zm3.13-15.711c.363-.087 1.119-.174 2.298-.174 2.42 0 3.962 1.015 3.962 3.133 0 1.944-1.543 3.22-4.053 3.22h-2.207v-6.18zm12.52 15.71h3.379v-7.158c.47.112 1.025.14 1.662.14 2.41 0 4.515-.673 5.9-2.05 1.025-1.01 1.579-2.47 1.579-4.266 0-1.769-.72-3.257-1.828-4.183-1.191-1.011-2.992-1.544-5.485-1.544-2.271 0-3.96.168-5.207.393v18.669zm3.13-15.724c.391-.08 1.113-.16 2.137-.16 2.558 0 4.123 1.068 4.123 3.043 0 2.083-1.686 3.31-4.454 3.31-.753 0-1.325-.026-1.806-.16V25.58z"/>
        </g>
        <path fill="#132529" d="M371.8 332.75c0 .158-83.236.287-185.891.287-102.69 0-185.909-.13-185.909-.286 0-.159 83.219-.288 185.909-.288 102.655 0 185.891.13 185.891.288"/>
        <g>
            <g transform="translate(58.3 168.3)">
                <mask id="b" fill="#fff">
                    <use xlink:href="#a"/>
                </mask>
                <path fill="#F1F0EC" d="M108.414 145.732c20.792-17.817 22.877-47.152 19.297-72.963-.597-4.308-.593-8.915-3.062-12.497-2.469-3.58-7.577-5.678-11.292-3.457-3.08 1.843-4.102 5.722-5.593 8.996a25.478 25.478 0 0 1-9.217 10.73c-2.628 1.714-5.973 2.94-8.869 1.72-3.974-1.672-4.954-6.78-5.374-11.084-.784-8.02-1.568-16.039-2.35-24.058-.42-4.303-.865-8.694-2.637-12.638-1.774-3.944-5.148-7.43-9.392-8.154-4.246-.723-9.1 2.157-9.534 6.455-.18 1.79.369 3.57.434 5.367.065 1.798-.568 3.859-2.226 4.53-1.679.682-3.54-.359-4.967-1.485-4.927-3.884-8.547-9.167-11.964-14.44C38.251 17.484 34.904 12.07 30.35 7.75 25.796 3.43 19.789.252 13.542.538 7.295.825 1.074 5.303.133 11.509c-.942 6.224 3.264 12.01 7.656 16.52a97.173 97.173 0 0 0 22.135 16.988c1.467.823 3.057 1.71 3.745 3.251 1.24 2.77-1.203 5.897-3.96 7.132-3.12 1.398-6.663 1.424-10.003 2.164-3.34.74-6.849 2.595-7.798 5.895-1.319 4.577 2.868 8.805 6.828 11.449a83.681 83.681 0 0 0 26.002 11.536c3.31.832 6.773 1.504 9.577 3.463 2.803 1.961 4.757 5.667 3.519 8.854-1.24 3.19-5.128 4.569-8.533 4.294-3.405-.27-6.583-1.764-9.891-2.63-6.191-1.621-13.845-.426-17.13 5.072-2.16 3.614-1.894 8.311-.209 12.183 1.684 3.872 4.616 7.055 7.68 9.955 10.706 10.135 23.864 17.83 38.183 21.17 14.317 3.339 27.26 3.315 40.48-3.073" mask="url(#b)"/>
            </g>
            <path fill="#D4D5CF" d="M169.4 333.188c-2.004-10.2-5.518-22.127-10.723-34.837-5.182-12.723-12.018-26.197-19.651-40.046l-5.691-10.233c-1.875-3.353-3.735-6.68-5.755-9.822-4.013-6.3-8.353-12.053-12.643-17.384-4.288-5.336-8.553-10.242-12.573-14.802-4.033-4.552-7.87-8.723-11.53-12.376-7.302-7.337-13.879-12.546-18.54-15.938a141.378 141.378 0 0 0-5.442-3.806l-1.445-.946c-.328-.207-.499-.309-.507-.298-.009.012.148.137.462.367l1.4 1.011a229.62 229.62 0 0 1 5.35 3.924 162.794 162.794 0 0 1 18.324 16.09c3.625 3.668 7.43 7.852 11.434 12.417 3.997 4.575 8.236 9.49 12.5 14.824 4.261 5.331 8.571 11.073 12.553 17.345 2.004 3.126 3.844 6.425 5.722 9.79 1.869 3.361 3.764 6.775 5.684 10.227 7.627 13.84 14.466 27.27 19.67 39.94 5.225 12.655 8.781 24.517 10.848 34.665"/>
            <path fill="#D4D5CF" d="M127.668 238.7c.04.003.096-.657.167-1.853.075-1.194.14-2.927.2-5.07.12-4.285.138-10.21.14-16.742 0-6.536.08-12.443.248-16.713.08-2.135.155-3.864.22-5.056.06-1.194.075-1.859.035-1.866-.04-.006-.13.645-.256 1.833-.133 1.185-.273 2.912-.403 5.049-.273 4.276-.418 10.208-.419 16.749l.028 16.733-.016 5.071c-.001 1.197.016 1.861.056 1.865M70.4 234.8c.005.045.813.054 2.267.03 1.453-.017 3.555-.051 6.154-.023 5.197.02 12.374.256 20.28.804 7.907.558 15.036 1.317 20.173 1.989 2.574.32 4.646.626 6.08.83 1.434.21 2.233.304 2.246.259.012-.046-.766-.227-2.183-.516-1.42-.284-3.482-.662-6.05-1.045-5.128-.795-12.27-1.63-20.202-2.192-7.928-.548-15.137-.71-20.35-.607-2.606.034-4.713.14-6.165.239-1.453.105-2.253.184-2.25.232M81.4 281.611c-.004.028.258.106.76.23l2.207.507c2.036.447 4.785 1.048 8.13 1.779 6.864 1.505 16.32 3.692 26.766 6.124 10.45 2.434 19.935 4.534 26.832 5.893 3.448.68 6.243 1.202 8.182 1.522l2.234.354c.512.073.785.096.789.069.004-.03-.258-.107-.76-.233-.593-.135-1.322-.301-2.207-.505-2.036-.446-4.784-1.046-8.128-1.779-6.864-1.502-16.322-3.69-26.772-6.124-10.446-2.434-19.93-4.533-26.826-5.893-3.448-.68-6.244-1.2-8.183-1.52l-2.235-.356c-.512-.072-.783-.095-.789-.068"/>
        </g>
        <g>
            <path fill="#E4E4DE" d="M319.23 180.118s-6.89-5.419-16.943 11.632c-10.054 17.053-14.107 27.015-14.107 27.015s-2.59 3.538-4.91.932c-2.322-2.605-5.253-9.73-9.572-8.8-4.479.963-6.274 5.868-5.952 13.292.324 7.425.449 23.715.454 25.19.006 1.446-.947 3.506-2.807 1.99-1.859-1.515-12.212-15.146-18.242-9.734-6.03 5.41-1.807 25.942-1.387 28.195.42 2.254-.07 3.168-1.135 3.64s-4.123-4.445-7.223-8.2c-3.1-3.753-7.337-7.549-10.56-4.129-3.224 3.42-5.228 18.448 7.109 43.994l6.474 11.455 12.992.21c27.83-1.283 39.73-10.332 41.103-14.87 1.373-4.538-3.924-6.5-8.634-7.465-4.711-.965-10.398-1.33-10.507-2.513-.11-1.182.436-2.06 2.567-2.772 2.133-.713 21.752-6.842 23.475-14.854 1.722-8.014-14.948-10.707-17.143-11.64-2.196-.934-.891-2.784.35-3.476 1.264-.706 15.274-8.46 21.788-11.754 6.513-3.294 9.846-7.27 8.508-11.747-1.289-4.316-8.804-3.503-12.156-4.324-3.352-.822-1.571-4.848-1.571-4.848s6.572-8.44 16.321-25.676c9.748-17.236 1.562-20.843 1.562-20.843"/>
            <path fill="#D4D5CF" d="M309.1 193.6s-.058.13-.186.374c-.14.256-.332.613-.583 1.075l-2.27 4.111c-1.975 3.569-4.869 8.711-8.468 15.052-7.195 12.685-17.276 30.12-28.47 49.34-11.197 19.227-21.317 36.64-28.573 49.285l-8.578 14.984-2.334 4.073c-.265.451-.47.802-.616 1.054-.142.236-.222.352-.222.352s.056-.13.186-.374l.582-1.075 2.269-4.11c1.975-3.569 4.869-8.711 8.469-15.051 7.194-12.686 17.276-30.123 28.473-49.35 11.194-19.219 21.313-36.63 28.57-49.276l8.578-14.985 2.335-4.073c.264-.451.47-.802.616-1.054.14-.237.222-.352.222-.352"/>
        </g>
        <g>
            <path fill="#132529" d="M186.008 127.736c-7.485 8.529-11.812 34.67-6.262 47.538 5.55 12.87-58.806 25.738-5.709 46.631 53.098 20.893 95.546-3.331 80.179-24.981-15.366-21.65 1.655-57.701-16.13-66.802-16.081-8.23-37.064-19.494-52.078-2.386"/>
            <path fill="#BE5B52" d="M169.4 233.095c-2.802 9.695-5.773 19.317-8.857 28.922-3.112 9.598-6.29 19.159-9.689 28.733l-1.294 3.6-.658 1.806-.202.543-.323.803c-.2.52-.513 1.097-.79 1.633-1.168 2.194-3.25 4.493-5.738 5.864-2.49 1.37-5.057 1.85-7.157 1.898-4.267.065-7.37-.969-10.217-2.026-2.812-1.126-5.306-2.442-7.682-3.831-9.386-5.679-17.067-12.396-24.393-19.899l5.88-6.994c1.984 1.275 4.085 2.636 6.145 3.92 2.074 1.289 4.181 2.514 6.26 3.743 4.183 2.41 8.4 4.692 12.564 6.49 2.07.897 4.136 1.662 6.05 2.16 1.87.535 3.716.717 4.454.521.388-.071.307-.219-.008-.095-.333.1-.656.476-.674.44l-.007-.083.014-.079.102-.348.524-1.779 1.04-3.579 8.347-28.908c2.833-9.639 5.732-19.275 8.755-28.85l17.554 5.395"/>
            <path fill="#BD5B52" d="M98.439 274.136L82.5 268.4l6.35 16.302s11.274 1.573 15.65-4.156l-3.565-4.606a5.513 5.513 0 0 0-2.496-1.804"/>
            <path fill="#BD5B52" d="M68.2 273.316l6.197 13.784 14.703-1.894-6.47-16.806-14.43 4.916"/>
            <path fill="#3769A4" d="M157.744 209.096c-7.381 1.837-12.544 31.496-12.544 31.496l20.339 13.508s19.503-29.923 13.825-37.846c-5.915-8.254-10.848-9.835-21.62-7.158"/>
            <path fill="#86ABCF" d="M153.99 245.3l-7.69-5.4s4.963-30.146 12.058-32.012c2.052-.54 3.881-.909 5.542-1.088-3.397.636-5.542 1.088-5.542 1.088s-2.046.744-2.047 14.489c0 .634.004 1.298.013 1.99-1.161 6.448-1.957 15.744-2.334 20.933"/>
            <path fill="#924742" d="M157.3 247.5l-3.3-2.193v-.007l3.3 2.195v.005"/>
            <path fill="#698BBA" d="M157.3 248.6l-3.3-2.58c.332-5.087 1.033-14.2 2.056-20.52.066 5.568.415 13.047 1.244 23.1"/>
            <path fill="#3769A4" d="M158.291 208.586s-8.379 2.948 8.407 106.014h71.439c-1.2-29.035-1.233-46.937 12.663-106.523 0 0-14.967-3.251-30.336-3.991-12.022-.578-21.87-.962-32.438.001-13.934 1.27-29.735 4.499-29.735 4.499"/>
            <path fill="#86ABCF" d="M238.451 310.2h-72.456c-2.808-17.578-4.863-32.13-6.343-44.182a655.591 655.591 0 0 1-1.986-18.062c-1.086-11.47-1.466-19.645-1.466-25.476.001-13.7 2.104-14.442 2.104-14.442s15.898-3.256 29.916-4.537c0 0-10.647 15.748 7.586 15.748s25.051-15.749 25.051-15.749c12.38.598 24.501 2.82 28.843 3.681a9.024 9.024 0 0 0-.96-.052c-7.222 0-13.8 8.71-16.61 17.368-.326 1-.472 2.174-.472 3.47 0 3.776 1.232 8.6 2.83 13.274.753 8.779 3.73 22.99 5.085 29.108-1.063 9.568-1.425 17.657-1.425 25.661 0 4.667.124 9.305.303 14.19"/>
            <path fill="#ABB5BA" d="M238.712 270.6l-.012-.037a250.853 250.853 0 0 1 2.195-13.163l.005.008a244.473 244.473 0 0 0-2.188 13.192"/>
            <path fill="#698BBA" d="M239.212 270.6c-1.309-6.01-4.185-19.974-4.912-28.6 2.368 7.034 5.57 13.717 6.6 15.804a303.57 303.57 0 0 0-1.688 12.796"/>
            <path fill="#BD5B52" d="M216.814 167.2c-2.029 10.564-4.053 29.922 3.186 36.972 0 0-6.717 15.828-24.682 15.828-17.964 0-7.473-15.827-7.473-15.827 11.537-2.813 11.24-11.554 9.228-19.764l19.74-17.209"/>
            <path fill="#FAF9F6" d="M218.618 200.022c-1.7 3.456-7.179 11.358-22.51 14.161-.418.078-.871.007-1.221-.238-2.874-2.008-4.645-6.241-3.39-11.153.344-1.351-.956-2.544-2.242-2.01a21.713 21.713 0 0 0-3.382 1.796 1.641 1.641 0 0 0-.558.617c-1.113 2.116-5.653 12.455 8.044 18.831.217.1.452.158.692.163 8.042.17 22.277-1.425 31.238-17.625a1.703 1.703 0 0 0-.15-1.87c-.989-1.25-2.798-2.506-4.143-3.34a1.666 1.666 0 0 0-2.378.668M222.588 243.1l-18.793-.51c-.83-.024-1.455-.676-1.39-1.45l.18-2.17c.066-.776.798-1.392 1.628-1.37l18.793.51c.828.023 1.455.676 1.39 1.45l-.182 2.17c-.064.776-.796 1.392-1.626 1.37"/>
            <path fill="#09181B" d="M198.562 189.91a16.358 16.358 0 0 0-.026-.32c.01.107.02.213.028.32h-.002"/>
            <path fill="#914642" d="M198.856 190.3a38.555 38.555 0 0 0-.036-.4c-.14-1.552-.438-3.135-.82-4.707 1.303.22 2.634.334 3.983.334 1.953 0 3.94-.238 5.917-.727-2.345 2.821-6.06 5.075-9.044 5.5"/>
            <path fill="#BD5B52" d="M230.552 147.258c-3.275 17.058-4.296 24.348-14.11 32.05-14.76 11.589-34.973 3.832-36.855-13.862-1.695-15.925 3.943-41.145 21.638-45.813 17.434-4.599 32.601 10.568 29.327 27.625"/>
            <path fill="#132529" d="M221.237 135.267c-2.088 10.879-2.58 25.333 7.154 25.333 9.735 0 17.262-16.962 8.911-30.244-8.352-13.284-14.834-1.501-16.065 4.91"/>
            <path fill="#132529" d="M238.7 136.147c.004 11.718-14.752 5.923-21.292.87-6.538-5.054-6.9-4.5-18.933-4.521-12.034-.024-14.524-.837-18.097-6.62-3.575-5.783-3.254-9.587 4.798-8.37 8.051 1.218 1.284-7 7.292-11.564 6.007-4.566 13.09-3.411 21.29 7 8.201 10.41 24.934 2.888 24.942 23.205"/>
            <path fill="#FFFFFE" d="M233.712 162.446c-1.502 5.372-5.412 8.898-8.732 7.878-3.32-1.02-4.794-6.2-3.291-11.57 1.502-5.37 5.412-8.897 8.733-7.879 3.319 1.02 4.792 6.202 3.29 11.571"/>
            <path fill="#FFFFFE" d="M206.315 176c-3.087 0-6.174-.631-9.107-1.893a.514.514 0 0 1-.267-.672.503.503 0 0 1 .663-.273c5.537 2.382 11.65 2.415 17.203.093 5.43-2.268 9.631-6.52 11.829-11.977 4.093-11.755 8.187-26.441 3.399-35.543-1.858-3.534-4.993-5.897-9.315-7.023a.514.514 0 0 1-.363-.626.503.503 0 0 1 .617-.37c4.607 1.202 7.956 3.737 9.955 7.536 4.974 9.456.824 24.415-3.347 36.391-2.31 5.736-6.707 10.189-12.388 12.562a23.006 23.006 0 0 1-8.88 1.795"/>
            <path fill="#729DC7" d="M228.42 169.4c-.214 0-.424-.03-.63-.094-.916-.283-1.581-1.171-1.953-2.424a23.645 23.645 0 0 0 2.759-5.157 173.07 173.07 0 0 0 2.391-7.69 2.119 2.119 0 0 1 1.022.06c2.133.66 2.916 4.6 1.751 8.801-1.052 3.795-3.336 6.504-5.34 6.504m-2.855-3.894c-.164-1.463-.022-3.21.475-5 .787-2.838 2.262-5.07 3.794-6.014a176.97 176.97 0 0 1-2.155 6.864 22.566 22.566 0 0 1-2.114 4.15"/>
            <path fill="#729DC7" d="M225.776 167.2a8.459 8.459 0 0 1-.276-1.414 23.3 23.3 0 0 0 2.145-4.263 183.546 183.546 0 0 0 2.185-7.053A3.253 3.253 0 0 1 231 154a179.51 179.51 0 0 1-2.426 7.902 24.398 24.398 0 0 1-2.798 5.298"/>
            <path fill="#FFFFFE" d="M198.094 174.871l-5.298-.944c-.93-.166-1.544-1.004-1.365-1.863l.058-.274c.179-.86 1.086-1.427 2.017-1.261l5.298.943c.93.167 1.545 1.005 1.365 1.864l-.057.274c-.18.86-1.088 1.427-2.018 1.261"/>
            <path fill="#A92D2F" d="M192.5 148.5s-3.387 5.719-6.6 8.289c1.746 1.964 5.23 1.58 5.23 1.58l1.37-9.869"/>
            <path fill="#132529" d="M194.817 165.976l.112.044c4.725.63 8.387-2.648 8.541-2.789l.03-.4-.373-.031c-.035.032-3.643 3.257-8.133 2.659-.145-.02-.276.09-.294.245l.117.272M210.474 141.855a.525.525 0 0 0 .486-.031.493.493 0 0 0 .162-.688c-2.288-3.536-5.85-3.633-6-3.636a.508.508 0 0 0-.522.49.507.507 0 0 0 .504.508c.126.004 3.166.106 5.147 3.168l.223.189M202.346 149.354c-.23 1.509-1.13 2.596-2.012 2.43-.882-.17-1.41-1.528-1.18-3.038.23-1.51 1.13-2.597 2.012-2.429.88.168 1.41 1.528 1.18 3.037M186.946 146.054c-.229 1.509-1.13 2.596-2.011 2.43-.883-.17-1.411-1.53-1.181-3.038.229-1.51 1.13-2.597 2.011-2.429.883.168 1.411 1.528 1.181 3.037"/>
            <path fill="#132529" d="M185.9 143.674l-3.3-1.774s1.32 3.361 3.3 1.774M202.4 146.974l-3.3-1.774s1.318 3.361 3.3 1.774M181.809 136.361c.172.064.382.05.542-.05 3.045-1.892 6.021-1.093 6.146-1.057.276.077.578-.041.674-.265.096-.222-.055-.469-.323-.545-.148-.042-3.627-.999-7.141 1.187-.231.144-.276.413-.098.601l.2.13"/>
            <path fill="#3769A4" d="M163.903 332.2s-.195-9.886 2.716-17.6h71.666s6.443 10.49 8.115 17.6h-82.497"/>
            <path fill="#3769A4" d="M239.168 310.72l.573 6.208c.253.48-.34.972-1.17.972h-72.793c-.648 0-1.186-.306-1.227-.7l-.648-6.206c-.046-.43.516-.794 1.227-.794h72.866c.536 0 1.01.21 1.172.52"/>
            <path fill="#628DBC" d="M238.57 317.9h-72.792c-.648 0-1.185-.306-1.227-.7l-.648-6.206c-.003-.017-.003-.033-.003-.05.001-.408.547-.744 1.23-.744h72.866c.536 0 1.01.21 1.172.52l.573 6.208c.041.077.059.154.059.23-.003.395-.532.742-1.23.742"/>
            <path fill="#3769A4" d="M229.417 319h2.006c.398 0 .703-.19.675-.423l-.94-7.954c-.027-.232-.377-.423-.775-.423h-2.006c-.398 0-.703.19-.675.423l.939 7.954c.028.232.377.423.776.423M172.218 319h2.004c.4 0 .704-.19.676-.423l-.94-7.954c-.027-.232-.377-.423-.776-.423h-2.004c-.4 0-.703.19-.676.423l.94 7.954c.028.232.376.423.776.423M200.818 319h2.004c.4 0 .704-.19.676-.423l-.94-7.954c-.027-.232-.377-.423-.776-.423h-2.004c-.398 0-.703.19-.676.423l.94 7.954c.028.232.376.423.776.423"/>
            <path fill="#BE5B52" d="M266.343 258.462l5.197 16.358c.83-1.77 1.326-2.819 1.49-3.15 2.3-4.536 2.19-7.798 4.293-12.623a812.707 812.707 0 0 0 6.105-14.667c2.064-4.896 3.988-9.893 5.997-14.792l8.675 2.605c-2.247 10.655-4.887 21.116-8.125 31.553a220.18 220.18 0 0 1-5.427 15.66c-1.063 2.622-2.189 5.244-3.586 7.966-.71 1.367-1.477 2.754-2.498 4.264-.516.756-1.1 1.548-1.9 2.433-.845.866-1.764 1.903-3.946 3.015a10.032 10.032 0 0 1-4.809 1.007c-2.088-.053-4.217-1.003-5.472-2.004-1.307-1.011-2.026-1.975-2.57-2.78a14.299 14.299 0 0 1-1.149-2.116c-.127-.295-.266-.615-.364-.883l-.25-.675-.354-.963-.71-1.93c-.92-2.563-1.854-5.109-2.718-7.668-1.74-5.113-3.478-10.209-5.111-15.333a754.391 754.391 0 0 1-9.311-30.866l17.536-5.173a1282.693 1282.693 0 0 1 9.007 30.762z"/>
            <path fill="#3769A4" d="M251.537 208.295c7.098 2.18 17.963 30.318 17.963 30.318L241.963 258.5s-12.382-24.06-9.4-33.326c3.107-9.651 10.874-19.368 18.974-16.88"/>
            <path fill="#86ABCF" d="M241.963 258.5s-.122-.238-.34-.675c-1.051-2.113-4.317-8.878-6.733-15.998-1.576-4.647-2.79-9.446-2.79-13.202 0-1.29.143-2.456.464-3.451 2.77-8.611 9.254-17.274 16.372-17.274.86 0 1.729.127 2.601.395 7.098 2.18 17.963 30.318 17.963 30.318L241.963 258.5"/>
            <path fill="#BD5B52" d="M289.706 233.41L286 216.7l15.4 8.308s.193 11.242-6.02 14.792l-5.674-6.39"/>
            <path fill="#BD5B52" d="M292.535 203.5l9.965 7.268-.887 14.732L286 217.024l6.535-13.524"/>
        </g>
        <g>
            <path fill="#EFAC05" d="M67.935 167.62c-17.447 0-31.635-14.404-31.635-32.11 0-17.705 14.188-32.11 31.635-32.11 17.44 0 31.631 14.405 31.631 32.11 0 17.706-14.191 32.11-31.631 32.11"/>
            <path fill="#C7E2F1" d="M98.001 135.51c0 16.858-13.462 30.522-30.07 30.522-16.604 0-30.066-13.664-30.066-30.522 0-16.854 13.462-30.518 30.067-30.518 16.607 0 30.07 13.664 30.07 30.518"/>
            <path fill="#FEB602" d="M90.449 135.51c0 12.623-10.082 22.853-22.517 22.853-12.433 0-22.514-10.23-22.514-22.853 0-12.619 10.081-22.852 22.514-22.852 12.435 0 22.517 10.233 22.517 22.852"/>
            <path fill="#EFAC05" d="M70.288 108.779c0 1.318-1.054 2.389-2.356 2.389-1.3 0-2.354-1.07-2.354-2.39s1.055-2.392 2.354-2.392c1.302 0 2.356 1.071 2.356 2.393M54.357 112.477a2.416 2.416 0 0 1-.52 3.342 2.338 2.338 0 0 1-3.292-.53 2.42 2.42 0 0 1 .522-3.343 2.334 2.334 0 0 1 3.29.53M43.612 124.975c1.24.407 1.915 1.757 1.515 3.015-.404 1.255-1.734 1.942-2.97 1.535-1.237-.41-1.916-1.757-1.513-3.015a2.349 2.349 0 0 1 2.968-1.535M42.156 141.496c1.237-.407 2.567.28 2.97 1.538.401 1.255-.275 2.605-1.514 3.012-1.237.41-2.567-.277-2.968-1.535-.403-1.255.276-2.605 1.512-3.015M50.545 155.732a2.335 2.335 0 0 1 3.292-.527 2.412 2.412 0 0 1 .52 3.34 2.331 2.331 0 0 1-3.29.53 2.42 2.42 0 0 1-.522-3.343M65.578 162.245c0-1.321 1.055-2.392 2.354-2.392 1.302 0 2.356 1.07 2.356 2.392 0 1.322-1.054 2.393-2.356 2.393-1.3 0-2.354-1.071-2.354-2.393M81.506 158.544a2.415 2.415 0 0 1 .523-3.339 2.33 2.33 0 0 1 3.29.527 2.416 2.416 0 0 1-.52 3.343 2.335 2.335 0 0 1-3.293-.53M92.255 146.046c-1.24-.407-1.916-1.757-1.515-3.012a2.351 2.351 0 0 1 2.97-1.538c1.237.41 1.916 1.76 1.512 3.015-.4 1.258-1.73 1.944-2.967 1.535M93.71 129.525a2.352 2.352 0 0 1-2.97-1.535c-.4-1.258.275-2.608 1.515-3.015a2.349 2.349 0 0 1 2.967 1.535c.404 1.258-.275 2.605-1.512 3.015M85.319 115.289a2.334 2.334 0 0 1-3.29.53 2.42 2.42 0 0 1-.523-3.342 2.338 2.338 0 0 1 3.293-.53 2.416 2.416 0 0 1 .52 3.342"/>
            <g transform="translate(48.18 115.28)">
                <circle cx="19.404" cy="19.404" r="13.86" fill="#FFF"/>
                <path fill="#FEB602" fill-rule="nonzero" d="M19.376 0C8.704 0 0 8.704 0 19.376 0 30.047 8.704 38.75 19.376 38.75c10.671 0 19.375-8.704 19.375-19.375C38.751 8.704 30.123 0 19.376 0zm1.589 27.928v1.968c0 .908-.681 1.59-1.59 1.59-.908 0-1.589-.757-1.589-1.59v-1.968c-1.968-.151-3.708-1.362-4.39-3.179-.302-.832.076-1.74.909-2.043.832-.303 1.74.075 2.043.908.303.681.984 1.211 1.817 1.211h2.497c1.06 0 1.892-.833 1.892-1.892 0-1.06-.832-1.892-1.892-1.892h-2.497c-2.8 0-5.071-2.27-5.071-5.071 0-2.65 2.119-4.844 4.692-4.996V9.007c0-.909.681-1.59 1.59-1.59.908 0 1.589.681 1.589 1.59v1.967c1.968.152 3.709 1.363 4.39 3.18.303.832-.076 1.74-.908 2.043-.833.303-1.741-.076-2.044-.908-.303-.682-.984-1.211-1.816-1.211h-2.498c-1.06 0-1.892.832-1.892 1.892s.832 1.892 1.892 1.892h2.498c2.8 0 5.07 2.27 5.07 5.07.076 2.65-2.043 4.845-4.692 4.996z"/>
            </g>
        </g>
    </g>
</svg>
